<?xml version="1.0" encoding="UTF-8" standalone="no"?>
<svg
   width="460.8pt"
   height="345.6pt"
   viewBox="0 0 460.8 345.6"
   version="1.1"
   id="svg84"
   sodipodi:docname="barplots-invL-UR.svg"
   inkscape:version="1.3.2 (091e20e, 2023-11-25, custom)"
   xmlns:inkscape="http://www.inkscape.org/namespaces/inkscape"
   xmlns:sodipodi="http://sodipodi.sourceforge.net/DTD/sodipodi-0.dtd"
   xmlns:xlink="http://www.w3.org/1999/xlink"
   xmlns="http://www.w3.org/2000/svg"
   xmlns:svg="http://www.w3.org/2000/svg"
   xmlns:rdf="http://www.w3.org/1999/02/22-rdf-syntax-ns#"
   xmlns:cc="http://creativecommons.org/ns#"
   xmlns:dc="http://purl.org/dc/elements/1.1/">
  <sodipodi:namedview
     id="namedview84"
     pagecolor="#ffffff"
     bordercolor="#000000"
     borderopacity="0.25"
     inkscape:showpageshadow="2"
     inkscape:pageopacity="0.0"
     inkscape:pagecheckerboard="0"
     inkscape:deskcolor="#d1d1d1"
     inkscape:document-units="pt"
     inkscape:zoom="1.6037326"
     inkscape:cx="307.40785"
     inkscape:cy="280.28363"
     inkscape:window-width="1920"
     inkscape:window-height="974"
     inkscape:window-x="-11"
     inkscape:window-y="-11"
     inkscape:window-maximized="1"
     inkscape:current-layer="svg84" />
  <metadata
     id="metadata1">
    <rdf:RDF>
      <cc:Work>
        <dc:type
           rdf:resource="http://purl.org/dc/dcmitype/StillImage" />
        <dc:date>2024-02-08T17:32:39.444240</dc:date>
        <dc:format>image/svg+xml</dc:format>
        <dc:creator>
          <cc:Agent>
            <dc:title>Matplotlib v3.7.4, https://matplotlib.org/</dc:title>
          </cc:Agent>
        </dc:creator>
      </cc:Work>
    </rdf:RDF>
  </metadata>
  <defs
     id="defs1">
    <style
       type="text/css"
       id="style1">*{stroke-linejoin: round; stroke-linecap: butt}</style>
  </defs>
  <path
     d="M 0,345.6 H 460.8 V 0 H 0 Z"
     style="fill:#ffffff"
     id="path1" />
  <g
     id="patch_2">
    <path
       d="M 57.6,307.584 H 414.72 V 41.472 H 57.6 Z"
       style="fill:#ffffff"
       id="path2" />
  </g>
  <g
     id="patch_3">
    <path
       d="m 73.832727,307.584 h 15.646002 v 0 z"
       clip-path="url(#pfed31b1886)"
       style="fill:#1f77b4"
       id="path3" />
  </g>
  <g
     id="patch_4">
    <path
       d="m 132.50523,307.584 h 15.64601 v 0 z"
       clip-path="url(#pfed31b1886)"
       style="fill:#1f77b4"
       id="path4" />
  </g>
  <g
     id="patch_5">
    <path
       d="m 191.17774,307.584 h 15.64601 V 89.856 h -15.64601 z"
       clip-path="url(#pfed31b1886)"
       style="fill:#1f77b4"
       id="path5" />
  </g>
  <g
     id="patch_6">
    <path
       d="m 249.85025,307.584 h 15.646 V 89.856 h -15.646 z"
       clip-path="url(#pfed31b1886)"
       style="fill:#1f77b4"
       id="path6" />
  </g>
  <g
     id="patch_7">
    <path
       d="m 308.52276,307.584 h 15.646 V 162.432 h -15.646 z"
       clip-path="url(#pfed31b1886)"
       style="fill:#1f77b4"
       id="path7" />
  </g>
  <g
     id="patch_8">
    <path
       d="m 367.19527,307.584 h 15.646 V 174.528 h -15.646 z"
       clip-path="url(#pfed31b1886)"
       style="fill:#1f77b4"
       id="path8" />
  </g>
  <g
     id="patch_9">
    <path
       d="m 89.478729,307.584 h 15.646001 v 0 z"
       clip-path="url(#pfed31b1886)"
       style="fill:#ff7f0e"
       id="path9" />
  </g>
  <g
     id="patch_10">
    <path
       d="m 148.15124,307.584 h 15.646 v -36.288 h -15.646 z"
       clip-path="url(#pfed31b1886)"
       style="fill:#ff7f0e"
       id="path10" />
  </g>
  <g
     id="patch_11">
    <path
       d="m 206.82375,307.584 h 15.646 V 198.72 h -15.646 z"
       clip-path="url(#pfed31b1886)"
       style="fill:#ff7f0e"
       id="path11" />
  </g>
  <g
     id="patch_12">
    <path
       d="m 265.49625,307.584 h 15.64601 V 114.048 h -15.64601 z"
       clip-path="url(#pfed31b1886)"
       style="fill:#ff7f0e"
       id="path12" />
  </g>
  <g
     id="patch_13">
    <path
       d="m 324.16876,307.584 h 15.64601 V 162.432 h -15.64601 z"
       clip-path="url(#pfed31b1886)"
       style="fill:#ff7f0e"
       id="path13" />
  </g>
  <g
     id="patch_14">
    <path
       d="m 382.84127,307.584 h 15.646 V 162.432 h -15.646 z"
       clip-path="url(#pfed31b1886)"
       style="fill:#ff7f0e"
       id="path14" />
  </g>
  <g
     id="xtick_1">
    <g
       id="line2d_1">
      <defs
         id="defs14">
        <path
           id="me33758808f"
           d="M 0,0 V 3.5"
           style="stroke:#000000;stroke-width:0.8" />
      </defs>
      <g
         id="g14">
        <use
           xlink:href="#me33758808f"
           x="97.301727"
           y="307.58401"
           style="stroke:#000000;stroke-width:0.8"
           id="use14" />
      </g>
    </g>
    <g
       id="text_1">
      <!-- dθ -->
      <g
         transform="matrix(0.18,0,0,-0.18,86.081262,328.26119)"
         id="g16">
        <defs
           id="defs15">
          <path
             id="DejaVuSans-64"
             d="m 2906,2969 v 1894 h 575 V 0 H 2906 V 525 Q 2725,213 2448,61 2172,-91 1784,-91 1150,-91 751,415 353,922 353,1747 q 0,825 398,1331 399,506 1033,506 388,0 664,-152 277,-151 458,-463 z M 947,1747 q 0,-634 261,-995 261,-361 717,-361 456,0 718,361 263,361 263,995 0,634 -263,995 -262,361 -718,361 -456,0 -717,-361 -261,-361 -261,-995 z"
             transform="scale(0.015625)" />
          <path
             id="DejaVuSans-3b8"
             d="M 2953,2219 H 963 q 46,-935 262,-1331 269,-488 734,-488 469,0 729,491 228,431 265,1328 z m -9,531 q -88,888 -256,1200 -269,494 -729,494 -478,0 -731,-488 -200,-393 -259,-1206 z m -985,2163 q 750,0 1179,-663 428,-659 428,-1828 0,-1166 -428,-1828 -429,-666 -1179,-666 -753,0 -1178,666 -428,662 -428,1828 0,1169 428,1828 425,663 1178,663 z"
             transform="scale(0.015625)" />
        </defs>
        <use
           xlink:href="#DejaVuSans-64"
           id="use15" />
        <use
           xlink:href="#DejaVuSans-3b8"
           x="63.476562"
           id="use16" />
      </g>
    </g>
  </g>
  <g
     id="xtick_2">
    <g
       id="line2d_2">
      <g
         id="g17">
        <use
           xlink:href="#me33758808f"
           x="155.97424"
           y="307.58401"
           style="stroke:#000000;stroke-width:0.8"
           id="use17" />
      </g>
    </g>
    <g
       id="text_2">
      <!-- dθ_sug -->
      <g
         transform="matrix(0.18,0,0,-0.18,124.14799,328.40181)"
         id="g23">
        <defs
           id="defs17">
          <path
             id="DejaVuSans-5f"
             d="m 3263,-1063 v -446 H -63 v 446 z"
             transform="scale(0.015625)" />
          <path
             id="DejaVuSans-73"
             d="m 2834,3397 v -544 q -243,125 -506,187 -262,63 -544,63 -428,0 -642,-131 -214,-131 -214,-394 0,-200 153,-314 153,-114 616,-217 l 197,-44 q 612,-131 870,-370 258,-239 258,-667 0,-488 -386,-773 Q 2250,-91 1575,-91 1294,-91 989,-36 684,19 347,128 v 594 q 319,-166 628,-249 309,-82 613,-82 406,0 624,139 219,139 219,392 0,234 -158,359 -157,125 -692,241 l -200,47 q -534,112 -772,345 -237,233 -237,639 0,494 350,762 350,269 994,269 318,0 599,-47 282,-46 519,-140 z"
             transform="scale(0.015625)" />
          <path
             id="DejaVuSans-75"
             d="m 544,1381 v 2119 h 575 V 1403 q 0,-497 193,-746 194,-248 582,-248 465,0 735,297 271,297 271,810 v 1984 h 575 V 0 H 2900 V 538 Q 2691,219 2414,64 2138,-91 1772,-91 1169,-91 856,284 544,659 544,1381 Z m 1447,2203 z"
             transform="scale(0.015625)" />
          <path
             id="DejaVuSans-67"
             d="m 2906,1791 q 0,625 -258,968 -257,344 -723,344 -462,0 -720,-344 -258,-343 -258,-968 0,-622 258,-966 258,-344 720,-344 466,0 723,344 258,344 258,966 z M 3481,434 q 0,-893 -397,-1329 -396,-436 -1215,-436 -303,0 -572,45 -269,45 -522,139 v 559 q 253,-137 500,-202 247,-66 503,-66 566,0 847,295 281,295 281,892 V 616 Q 2728,306 2450,153 2172,0 1784,0 1141,0 747,490 353,981 353,1791 q 0,812 394,1302 394,491 1037,491 388,0 666,-153 278,-153 456,-462 v 531 h 575 z"
             transform="scale(0.015625)" />
        </defs>
        <use
           xlink:href="#DejaVuSans-64"
           id="use18" />
        <use
           xlink:href="#DejaVuSans-3b8"
           x="63.476562"
           id="use19" />
        <use
           xlink:href="#DejaVuSans-5f"
           x="124.6582"
           id="use20" />
        <use
           xlink:href="#DejaVuSans-73"
           x="174.6582"
           id="use21" />
        <use
           xlink:href="#DejaVuSans-75"
           x="226.75781"
           id="use22" />
        <use
           xlink:href="#DejaVuSans-67"
           x="290.13672"
           id="use23" />
      </g>
    </g>
  </g>
  <g
     id="xtick_3">
    <g
       id="line2d_3">
      <g
         id="g24">
        <use
           xlink:href="#me33758808f"
           x="214.64674"
           y="307.58401"
           style="stroke:#000000;stroke-width:0.8"
           id="use24" />
      </g>
    </g>
    <g
       id="text_3">
      <!-- dr -->
      <g
         transform="matrix(0.18,0,0,-0.18,205.23331,328.26119)"
         id="g26">
        <defs
           id="defs24">
          <path
             id="DejaVuSans-72"
             d="m 2631,2963 q -97,56 -211,82 -114,27 -251,27 -488,0 -749,-317 -261,-317 -261,-911 V 0 H 581 v 3500 h 578 v -544 q 182,319 472,473 291,155 707,155 59,0 131,-8 72,-7 159,-23 z"
             transform="scale(0.015625)" />
        </defs>
        <use
           xlink:href="#DejaVuSans-64"
           id="use25" />
        <use
           xlink:href="#DejaVuSans-72"
           x="63.476562"
           id="use26" />
      </g>
    </g>
  </g>
  <g
     id="xtick_4">
    <g
       id="line2d_4">
      <g
         id="g27">
        <use
           xlink:href="#me33758808f"
           x="273.31924"
           y="307.58401"
           style="stroke:#000000;stroke-width:0.8"
           id="use27" />
      </g>
    </g>
    <g
       id="text_4">
      <!-- dr_sug -->
      <g
         transform="matrix(0.18,0,0,-0.18,243.30004,328.26119)"
         id="g33">
        <use
           xlink:href="#DejaVuSans-64"
           id="use28" />
        <use
           xlink:href="#DejaVuSans-72"
           x="63.476562"
           id="use29" />
        <use
           xlink:href="#DejaVuSans-5f"
           x="104.58984"
           id="use30" />
        <use
           xlink:href="#DejaVuSans-73"
           x="154.58984"
           id="use31" />
        <use
           xlink:href="#DejaVuSans-75"
           x="206.68945"
           id="use32" />
        <use
           xlink:href="#DejaVuSans-67"
           x="270.06836"
           id="use33" />
      </g>
    </g>
  </g>
  <g
     id="xtick_5">
    <g
       id="line2d_5">
      <g
         id="g34">
        <use
           xlink:href="#me33758808f"
           x="331.99176"
           y="307.58401"
           style="stroke:#000000;stroke-width:0.8"
           id="use34" />
      </g>
    </g>
    <g
       id="text_5">
      <!-- θ_i -->
      <g
         transform="matrix(0.18,0,0,-0.18,319.48458,328.40181)"
         id="g37">
        <defs
           id="defs34">
          <path
             id="DejaVuSans-69"
             d="m 603,3500 h 575 V 0 H 603 Z m 0,1363 h 575 V 4134 H 603 Z"
             transform="scale(0.015625)" />
        </defs>
        <use
           xlink:href="#DejaVuSans-3b8"
           id="use35" />
        <use
           xlink:href="#DejaVuSans-5f"
           x="61.181641"
           id="use36" />
        <use
           xlink:href="#DejaVuSans-69"
           x="111.18164"
           id="use37" />
      </g>
    </g>
  </g>
  <g
     id="xtick_6">
    <g
       id="line2d_6">
      <g
         id="g38">
        <use
           xlink:href="#me33758808f"
           x="390.66428"
           y="307.58401"
           style="stroke:#000000;stroke-width:0.8"
           id="use38" />
      </g>
    </g>
    <g
       id="text_6">
      <!-- θ_diff -->
      <g
         transform="matrix(0.18,0,0,-0.18,366.10693,328.40181)"
         id="g44">
        <defs
           id="defs38">
          <path
             id="DejaVuSans-66"
             d="m 2375,4863 v -479 h -550 q -309,0 -430,-125 -120,-125 -120,-450 v -309 h 947 V 3053 H 1275 V 0 H 697 V 3053 H 147 v 447 h 550 v 244 q 0,584 272,851 272,268 862,268 z"
             transform="scale(0.015625)" />
        </defs>
        <use
           xlink:href="#DejaVuSans-3b8"
           id="use39" />
        <use
           xlink:href="#DejaVuSans-5f"
           x="61.181641"
           id="use40" />
        <use
           xlink:href="#DejaVuSans-64"
           x="111.18164"
           id="use41" />
        <use
           xlink:href="#DejaVuSans-69"
           x="174.6582"
           id="use42" />
        <use
           xlink:href="#DejaVuSans-66"
           x="202.44141"
           id="use43" />
        <use
           xlink:href="#DejaVuSans-66"
           x="237.64648"
           id="use44" />
      </g>
    </g>
  </g>
  <g
     id="matplotlib.axis_2">
    <g
       id="ytick_1">
      <g
         id="line2d_7">
        <defs
           id="defs44">
          <path
             id="m90a51f2186"
             d="M 0,0 H -3.5"
             style="stroke:#000000;stroke-width:0.8" />
        </defs>
        <g
           id="g45">
          <use
             xlink:href="#m90a51f2186"
             x="57.599998"
             y="307.58401"
             style="stroke:#000000;stroke-width:0.8"
             id="use45" />
        </g>
      </g>
      <g
         id="text_7">
        <!-- 0.0 -->
        <g
           transform="matrix(0.18,0,0,-0.18,21.974375,314.42259)"
           id="g48">
          <defs
             id="defs45">
            <path
               id="DejaVuSans-30"
               d="m 2034,4250 q -487,0 -733,-480 -245,-479 -245,-1442 0,-959 245,-1439 246,-480 733,-480 491,0 736,480 246,480 246,1439 0,963 -246,1442 -245,480 -736,480 z m 0,500 q 785,0 1199,-621 414,-620 414,-1801 0,-1178 -414,-1799 -414,-620 -1199,-620 -784,0 -1198,620 -414,621 -414,1799 0,1181 414,1801 414,621 1198,621 z"
               transform="scale(0.015625)" />
            <path
               id="DejaVuSans-2e"
               d="m 684,794 h 660 V 0 H 684 Z"
               transform="scale(0.015625)" />
          </defs>
          <use
             xlink:href="#DejaVuSans-30"
             id="use46" />
          <use
             xlink:href="#DejaVuSans-2e"
             x="63.623047"
             id="use47" />
          <use
             xlink:href="#DejaVuSans-30"
             x="95.410156"
             id="use48" />
        </g>
      </g>
    </g>
    <g
       id="ytick_2">
      <g
         id="line2d_8">
        <g
           id="g49">
          <use
             xlink:href="#m90a51f2186"
             x="57.599998"
             y="259.20001"
             style="stroke:#000000;stroke-width:0.8"
             id="use49" />
        </g>
      </g>
      <g
         id="text_8">
        <!-- 0.2 -->
        <g
           transform="matrix(0.18,0,0,-0.18,21.974375,266.03859)"
           id="g52">
          <defs
             id="defs49">
            <path
               id="DejaVuSans-32"
               d="M 1228,531 H 3431 V 0 H 469 v 531 q 359,372 979,998 621,627 780,809 303,340 423,576 121,236 121,464 0,372 -261,606 -261,235 -680,235 -297,0 -627,-103 -329,-103 -704,-313 v 638 q 381,153 712,231 332,78 607,78 725,0 1156,-363 431,-362 431,-968 0,-288 -108,-546 -107,-257 -392,-607 -78,-91 -497,-524 Q 1991,1309 1228,531 Z"
               transform="scale(0.015625)" />
          </defs>
          <use
             xlink:href="#DejaVuSans-30"
             id="use50" />
          <use
             xlink:href="#DejaVuSans-2e"
             x="63.623047"
             id="use51" />
          <use
             xlink:href="#DejaVuSans-32"
             x="95.410156"
             id="use52" />
        </g>
      </g>
    </g>
    <g
       id="ytick_3">
      <g
         id="line2d_9">
        <g
           id="g53">
          <use
             xlink:href="#m90a51f2186"
             x="57.599998"
             y="210.81599"
             style="stroke:#000000;stroke-width:0.8"
             id="use53" />
        </g>
      </g>
      <g
         id="text_9">
        <!-- 0.4 -->
        <g
           transform="matrix(0.18,0,0,-0.18,21.974375,217.65459)"
           id="g56">
          <defs
             id="defs53">
            <path
               id="DejaVuSans-34"
               d="M 2419,4116 825,1625 h 1594 z m -166,550 h 794 V 1625 h 666 V 1100 H 3047 V 0 H 2419 V 1100 H 313 v 609 z"
               transform="scale(0.015625)" />
          </defs>
          <use
             xlink:href="#DejaVuSans-30"
             id="use54" />
          <use
             xlink:href="#DejaVuSans-2e"
             x="63.623047"
             id="use55" />
          <use
             xlink:href="#DejaVuSans-34"
             x="95.410156"
             id="use56" />
        </g>
      </g>
    </g>
    <g
       id="ytick_4">
      <g
         id="line2d_10">
        <g
           id="g57">
          <use
             xlink:href="#m90a51f2186"
             x="57.599998"
             y="162.43201"
             style="stroke:#000000;stroke-width:0.8"
             id="use57" />
        </g>
      </g>
      <g
         id="text_10">
        <!-- 0.6 -->
        <g
           transform="matrix(0.18,0,0,-0.18,21.974375,169.27059)"
           id="g60">
          <defs
             id="defs57">
            <path
               id="DejaVuSans-36"
               d="m 2113,2584 q -425,0 -674,-291 -248,-290 -248,-796 0,-503 248,-796 249,-292 674,-292 425,0 673,292 248,293 248,796 0,506 -248,796 -248,291 -673,291 z m 1253,1979 v -575 q -238,112 -480,171 -242,60 -480,60 -625,0 -955,-422 -329,-422 -376,-1275 184,272 462,417 279,145 613,145 703,0 1111,-427 408,-426 408,-1160 0,-719 -425,-1154 -425,-434 -1131,-434 -810,0 -1238,620 -428,621 -428,1799 0,1106 525,1764 525,658 1409,658 238,0 480,-47 242,-47 505,-140 z"
               transform="scale(0.015625)" />
          </defs>
          <use
             xlink:href="#DejaVuSans-30"
             id="use58" />
          <use
             xlink:href="#DejaVuSans-2e"
             x="63.623047"
             id="use59" />
          <use
             xlink:href="#DejaVuSans-36"
             x="95.410156"
             id="use60" />
        </g>
      </g>
    </g>
    <g
       id="ytick_5">
      <g
         id="line2d_11">
        <g
           id="g61">
          <use
             xlink:href="#m90a51f2186"
             x="57.599998"
             y="114.048"
             style="stroke:#000000;stroke-width:0.8"
             id="use61" />
        </g>
      </g>
      <g
         id="text_11">
        <!-- 0.8 -->
        <g
           transform="matrix(0.18,0,0,-0.18,21.974375,120.88659)"
           id="g64">
          <defs
             id="defs61">
            <path
               id="DejaVuSans-38"
               d="m 2034,2216 q -450,0 -708,-241 -257,-241 -257,-662 0,-422 257,-663 258,-241 708,-241 450,0 709,242 260,243 260,662 0,421 -258,662 -257,241 -711,241 z m -631,268 q -406,100 -633,378 -226,279 -226,679 0,559 398,884 399,325 1092,325 697,0 1094,-325 397,-325 397,-884 0,-400 -227,-679 -226,-278 -629,-378 456,-106 710,-416 255,-309 255,-755 Q 3634,634 3220,271 2806,-91 2034,-91 1263,-91 848,271 434,634 434,1313 q 0,446 256,755 257,310 713,416 z m -231,997 q 0,-362 226,-565 227,-203 636,-203 407,0 636,203 230,203 230,565 0,363 -230,566 -229,203 -636,203 -409,0 -636,-203 -226,-203 -226,-566 z"
               transform="scale(0.015625)" />
          </defs>
          <use
             xlink:href="#DejaVuSans-30"
             id="use62" />
          <use
             xlink:href="#DejaVuSans-2e"
             x="63.623047"
             id="use63" />
          <use
             xlink:href="#DejaVuSans-38"
             x="95.410156"
             id="use64" />
        </g>
      </g>
    </g>
    <g
       id="ytick_6">
      <g
         id="line2d_12">
        <g
           id="g65">
          <use
             xlink:href="#m90a51f2186"
             x="57.599998"
             y="65.664001"
             style="stroke:#000000;stroke-width:0.8"
             id="use65" />
        </g>
      </g>
      <g
         id="text_12">
        <!-- 1.0 -->
        <g
           transform="matrix(0.18,0,0,-0.18,21.974375,72.502594)"
           id="g68">
          <defs
             id="defs65">
            <path
               id="DejaVuSans-31"
               d="M 794,531 H 1825 V 4091 L 703,3866 v 575 l 1116,225 h 631 V 531 H 3481 V 0 H 794 Z"
               transform="scale(0.015625)" />
          </defs>
          <use
             xlink:href="#DejaVuSans-31"
             id="use66" />
          <use
             xlink:href="#DejaVuSans-2e"
             x="63.623047"
             id="use67" />
          <use
             xlink:href="#DejaVuSans-30"
             x="95.410156"
             id="use68" />
        </g>
      </g>
    </g>
  </g>
  <g
     id="patch_15">
    <path
       d="M 57.6,307.584 V 41.472"
       style="fill:none;stroke:#000000;stroke-width:0.8;stroke-linecap:square;stroke-linejoin:miter"
       id="path68" />
  </g>
  <g
     id="patch_16">
    <path
       d="M 414.72,307.584 V 41.472"
       style="fill:none;stroke:#000000;stroke-width:0.8;stroke-linecap:square;stroke-linejoin:miter"
       id="path69" />
  </g>
  <g
     id="patch_17">
    <path
       d="M 57.6,307.584 H 414.72"
       style="fill:none;stroke:#000000;stroke-width:0.8;stroke-linecap:square;stroke-linejoin:miter"
       id="path70" />
  </g>
  <g
     id="patch_18">
    <path
       d="M 57.6,41.472 H 414.72"
       style="fill:none;stroke:#000000;stroke-width:0.8;stroke-linecap:square;stroke-linejoin:miter"
       id="path71" />
  </g>
  <g
     id="legend_1">
    <g
       id="patch_19">
      <path
         d="M 286.74844,108.71325 H 402.12 q 3.6,0 3.6,-3.6 V 54.072 q 0,-3.6 -3.6,-3.6 H 286.74844 q -3.6,0 -3.6,3.6 v 51.04125 q 0,3.6 3.6,3.6 z"
         style="opacity:0.8;fill:#ffffff;stroke:#cccccc;stroke-linejoin:miter"
         id="path72" />
    </g>
    <g
       id="patch_20">
      <path
         d="m 290.34844,71.349187 h 36 v -12.6 h -36 z"
         style="fill:#1f77b4"
         id="path73" />
    </g>
    <g
       id="text_13">
      <!-- cosine -->
      <g
         transform="matrix(0.18,0,0,-0.18,340.74844,71.349187)"
         id="g78">
        <defs
           id="defs73">
          <path
             id="DejaVuSans-63"
             d="m 3122,3366 v -538 q -244,135 -489,202 -245,67 -495,67 -560,0 -870,-355 -309,-354 -309,-995 0,-641 309,-996 310,-354 870,-354 250,0 495,67 245,67 489,202 V 134 Q 2881,22 2623,-34 2366,-91 2075,-91 1284,-91 818,406 353,903 353,1747 q 0,856 470,1346 471,491 1290,491 265,0 518,-55 253,-54 491,-163 z"
             transform="scale(0.015625)" />
          <path
             id="DejaVuSans-6f"
             d="m 1959,3097 q -462,0 -731,-361 -269,-361 -269,-989 0,-628 267,-989 268,-361 733,-361 460,0 728,362 269,363 269,988 0,622 -269,986 -268,364 -728,364 z m 0,487 q 750,0 1178,-488 429,-487 429,-1349 Q 3566,888 3137,398 2709,-91 1959,-91 1206,-91 779,398 353,888 353,1747 q 0,862 426,1349 427,488 1180,488 z"
             transform="scale(0.015625)" />
          <path
             id="DejaVuSans-6e"
             d="M 3513,2113 V 0 h -575 v 2094 q 0,497 -194,743 -194,247 -581,247 -466,0 -735,-297 -269,-296 -269,-809 V 0 H 581 v 3500 h 578 v -544 q 207,316 486,472 280,156 646,156 603,0 912,-373 310,-373 310,-1098 z"
             transform="scale(0.015625)" />
          <path
             id="DejaVuSans-65"
             d="M 3597,1894 V 1613 H 953 q 38,-594 358,-905 320,-311 892,-311 331,0 642,81 311,81 618,244 V 178 Q 3153,47 2828,-22 2503,-91 2169,-91 1331,-91 842,396 353,884 353,1716 q 0,859 464,1363 464,505 1252,505 706,0 1117,-455 411,-454 411,-1235 z m -575,169 q -6,471 -264,752 -258,282 -683,282 -481,0 -770,-272 -289,-272 -333,-766 z"
             transform="scale(0.015625)" />
        </defs>
        <use
           xlink:href="#DejaVuSans-63"
           id="use73" />
        <use
           xlink:href="#DejaVuSans-6f"
           x="54.980469"
           id="use74" />
        <use
           xlink:href="#DejaVuSans-73"
           x="116.16211"
           id="use75" />
        <use
           xlink:href="#DejaVuSans-69"
           x="168.26172"
           id="use76" />
        <use
           xlink:href="#DejaVuSans-6e"
           x="196.04492"
           id="use77" />
        <use
           xlink:href="#DejaVuSans-65"
           x="259.42383"
           id="use78" />
      </g>
    </g>
    <g
       id="patch_21">
      <path
         d="m 290.34844,97.769812 h 36 v -12.6 h -36 z"
         style="fill:#ff7f0e"
         id="path78" />
    </g>
    <g
       id="text_14">
      <!-- euclid -->
      <g
         transform="matrix(0.18,0,0,-0.18,340.74844,97.769812)"
         id="g84">
        <defs
           id="defs78">
          <path
             id="DejaVuSans-6c"
             d="m 603,4863 h 575 V 0 H 603 Z"
             transform="scale(0.015625)" />
        </defs>
        <use
           xlink:href="#DejaVuSans-65"
           id="use79" />
        <use
           xlink:href="#DejaVuSans-75"
           x="61.523438"
           id="use80" />
        <use
           xlink:href="#DejaVuSans-63"
           x="124.90234"
           id="use81" />
        <use
           xlink:href="#DejaVuSans-6c"
           x="179.88281"
           id="use82" />
        <use
           xlink:href="#DejaVuSans-69"
           x="207.66602"
           id="use83" />
        <use
           xlink:href="#DejaVuSans-64"
           x="235.44922"
           id="use84" />
      </g>
    </g>
  </g>
  <defs
     id="defs84">
    <clipPath
       id="pfed31b1886">
      <rect
         x="57.6"
         y="41.472"
         width="357.12"
         height="266.112"
         id="rect84" />
    </clipPath>
  </defs>
  <ellipse
     style="fill:none;stroke:#ff0000;stroke-width:2;stroke-linecap:square;stroke-dasharray:none;stroke-opacity:1"
     id="path84"
     cx="272.99774"
     cy="323.78592"
     rx="35.542088"
     ry="14.96509" />
</svg>
