<?xml version="1.0" encoding="UTF-8" standalone="no"?>
<svg
   width="460.8pt"
   height="345.6pt"
   viewBox="0 0 460.8 345.6"
   version="1.1"
   id="svg320"
   sodipodi:docname="dtheta_grad_euclidean_average.svg"
   inkscape:version="1.1.2 (0a00cf5339, 2022-02-04)"
   xmlns:inkscape="http://www.inkscape.org/namespaces/inkscape"
   xmlns:sodipodi="http://sodipodi.sourceforge.net/DTD/sodipodi-0.dtd"
   xmlns:xlink="http://www.w3.org/1999/xlink"
   xmlns="http://www.w3.org/2000/svg"
   xmlns:svg="http://www.w3.org/2000/svg"
   xmlns:rdf="http://www.w3.org/1999/02/22-rdf-syntax-ns#"
   xmlns:cc="http://creativecommons.org/ns#"
   xmlns:dc="http://purl.org/dc/elements/1.1/">
  <sodipodi:namedview
     id="namedview322"
     pagecolor="#ffffff"
     bordercolor="#999999"
     borderopacity="1"
     inkscape:pageshadow="0"
     inkscape:pageopacity="0"
     inkscape:pagecheckerboard="0"
     inkscape:document-units="pt"
     showgrid="false"
     inkscape:zoom="1.3975694"
     inkscape:cx="306.9615"
     inkscape:cy="230.75777"
     inkscape:window-width="1920"
     inkscape:window-height="1007"
     inkscape:window-x="0"
     inkscape:window-y="0"
     inkscape:window-maximized="1"
     inkscape:current-layer="svg320" />
  <metadata
     id="metadata2">
    <rdf:RDF>
      <cc:Work>
        <dc:type
           rdf:resource="http://purl.org/dc/dcmitype/StillImage" />
        <dc:date>2024-03-11T04:55:50.254345</dc:date>
        <dc:format>image/svg+xml</dc:format>
        <dc:creator>
          <cc:Agent>
            <dc:title>Matplotlib v3.7.5, https://matplotlib.org/</dc:title>
          </cc:Agent>
        </dc:creator>
      </cc:Work>
    </rdf:RDF>
  </metadata>
  <defs
     id="defs6">
    <style
       type="text/css"
       id="style4">*{stroke-linejoin: round; stroke-linecap: butt}</style>
  </defs>
  <g
     id="figure_1">
    <g
       id="patch_1">
      <path
         d="M 0 345.6  L 460.8 345.6  L 460.8 0  L 0 0  z "
         style="fill: #ffffff"
         id="path8" />
    </g>
    <g
       id="axes_1">
      <g
         id="patch_2">
        <path
           d="M 68.74 224.75  L 450 224.75  L 450 26.88  L 68.74 26.88  z "
           style="fill: #ffffff"
           id="path11" />
      </g>
      <g
         id="matplotlib.axis_1">
        <g
           id="xtick_1">
          <g
             id="text_1">
            <!-- UR -->
            <g
               transform="translate(82.175982 231.75) rotate(-270) scale(0.5 -0.5)"
               id="g22">
              <defs
                 id="defs16">
                <path
                   id="DejaVuSans-55"
                   d="M 556 4666  L 1191 4666  L 1191 1831  Q 1191 1081 1462 751  Q 1734 422 2344 422  Q 2950 422 3222 751  Q 3494 1081 3494 1831  L 3494 4666  L 4128 4666  L 4128 1753  Q 4128 841 3676 375  Q 3225 -91 2344 -91  Q 1459 -91 1007 375  Q 556 841 556 1753  L 556 4666  z "
                   transform="scale(0.015625)" />
                <path
                   id="DejaVuSans-52"
                   d="M 2841 2188  Q 3044 2119 3236 1894  Q 3428 1669 3622 1275  L 4263 0  L 3584 0  L 2988 1197  Q 2756 1666 2539 1819  Q 2322 1972 1947 1972  L 1259 1972  L 1259 0  L 628 0  L 628 4666  L 2053 4666  Q 2853 4666 3247 4331  Q 3641 3997 3641 3322  Q 3641 2881 3436 2590  Q 3231 2300 2841 2188  z M 1259 4147  L 1259 2491  L 2053 2491  Q 2509 2491 2742 2702  Q 2975 2913 2975 3322  Q 2975 3731 2742 3939  Q 2509 4147 2053 4147  L 1259 4147  z "
                   transform="scale(0.015625)" />
              </defs>
              <use
                 xlink:href="#DejaVuSans-55"
                 id="use18" />
              <use
                 xlink:href="#DejaVuSans-52"
                 x="73.193359"
                 id="use20" />
            </g>
          </g>
        </g>
        <g
           id="xtick_2">
          <g
             id="text_2">
            <!-- invL -->
            <g
               transform="translate(136.641696 231.75) rotate(-270) scale(0.5 -0.5)"
               id="g40">
              <defs
                 id="defs30">
                <path
                   id="DejaVuSans-69"
                   d="M 603 3500  L 1178 3500  L 1178 0  L 603 0  L 603 3500  z M 603 4863  L 1178 4863  L 1178 4134  L 603 4134  L 603 4863  z "
                   transform="scale(0.015625)" />
                <path
                   id="DejaVuSans-6e"
                   d="M 3513 2113  L 3513 0  L 2938 0  L 2938 2094  Q 2938 2591 2744 2837  Q 2550 3084 2163 3084  Q 1697 3084 1428 2787  Q 1159 2491 1159 1978  L 1159 0  L 581 0  L 581 3500  L 1159 3500  L 1159 2956  Q 1366 3272 1645 3428  Q 1925 3584 2291 3584  Q 2894 3584 3203 3211  Q 3513 2838 3513 2113  z "
                   transform="scale(0.015625)" />
                <path
                   id="DejaVuSans-76"
                   d="M 191 3500  L 800 3500  L 1894 563  L 2988 3500  L 3597 3500  L 2284 0  L 1503 0  L 191 3500  z "
                   transform="scale(0.015625)" />
                <path
                   id="DejaVuSans-4c"
                   d="M 628 4666  L 1259 4666  L 1259 531  L 3531 531  L 3531 0  L 628 0  L 628 4666  z "
                   transform="scale(0.015625)" />
              </defs>
              <use
                 xlink:href="#DejaVuSans-69"
                 id="use32" />
              <use
                 xlink:href="#DejaVuSans-6e"
                 x="27.783203"
                 id="use34" />
              <use
                 xlink:href="#DejaVuSans-76"
                 x="91.162109"
                 id="use36" />
              <use
                 xlink:href="#DejaVuSans-4c"
                 x="150.341797"
                 id="use38" />
            </g>
          </g>
        </g>
        <g
           id="xtick_3">
          <g
             id="text_3">
            <!-- s2 -->
            <g
               transform="translate(191.107411 231.75) rotate(-270) scale(0.5 -0.5)"
               id="g52">
              <defs
                 id="defs46">
                <path
                   id="DejaVuSans-73"
                   d="M 2834 3397  L 2834 2853  Q 2591 2978 2328 3040  Q 2066 3103 1784 3103  Q 1356 3103 1142 2972  Q 928 2841 928 2578  Q 928 2378 1081 2264  Q 1234 2150 1697 2047  L 1894 2003  Q 2506 1872 2764 1633  Q 3022 1394 3022 966  Q 3022 478 2636 193  Q 2250 -91 1575 -91  Q 1294 -91 989 -36  Q 684 19 347 128  L 347 722  Q 666 556 975 473  Q 1284 391 1588 391  Q 1994 391 2212 530  Q 2431 669 2431 922  Q 2431 1156 2273 1281  Q 2116 1406 1581 1522  L 1381 1569  Q 847 1681 609 1914  Q 372 2147 372 2553  Q 372 3047 722 3315  Q 1072 3584 1716 3584  Q 2034 3584 2315 3537  Q 2597 3491 2834 3397  z "
                   transform="scale(0.015625)" />
                <path
                   id="DejaVuSans-32"
                   d="M 1228 531  L 3431 531  L 3431 0  L 469 0  L 469 531  Q 828 903 1448 1529  Q 2069 2156 2228 2338  Q 2531 2678 2651 2914  Q 2772 3150 2772 3378  Q 2772 3750 2511 3984  Q 2250 4219 1831 4219  Q 1534 4219 1204 4116  Q 875 4013 500 3803  L 500 4441  Q 881 4594 1212 4672  Q 1544 4750 1819 4750  Q 2544 4750 2975 4387  Q 3406 4025 3406 3419  Q 3406 3131 3298 2873  Q 3191 2616 2906 2266  Q 2828 2175 2409 1742  Q 1991 1309 1228 531  z "
                   transform="scale(0.015625)" />
              </defs>
              <use
                 xlink:href="#DejaVuSans-73"
                 id="use48" />
              <use
                 xlink:href="#DejaVuSans-32"
                 x="52.099609"
                 id="use50" />
            </g>
          </g>
        </g>
        <g
           id="xtick_4">
          <g
             id="text_4">
            <!-- s0 -->
            <g
               transform="translate(245.573125 231.75) rotate(-270) scale(0.5 -0.5)"
               id="g63">
              <defs
                 id="defs57">
                <path
                   id="DejaVuSans-30"
                   d="M 2034 4250  Q 1547 4250 1301 3770  Q 1056 3291 1056 2328  Q 1056 1369 1301 889  Q 1547 409 2034 409  Q 2525 409 2770 889  Q 3016 1369 3016 2328  Q 3016 3291 2770 3770  Q 2525 4250 2034 4250  z M 2034 4750  Q 2819 4750 3233 4129  Q 3647 3509 3647 2328  Q 3647 1150 3233 529  Q 2819 -91 2034 -91  Q 1250 -91 836 529  Q 422 1150 422 2328  Q 422 3509 836 4129  Q 1250 4750 2034 4750  z "
                   transform="scale(0.015625)" />
              </defs>
              <use
                 xlink:href="#DejaVuSans-73"
                 id="use59" />
              <use
                 xlink:href="#DejaVuSans-30"
                 x="52.099609"
                 id="use61" />
            </g>
          </g>
        </g>
        <g
           id="xtick_5">
          <g
             id="text_5">
            <!-- s1 -->
            <g
               transform="translate(300.038839 231.75) rotate(-270) scale(0.5 -0.5)"
               id="g74">
              <defs
                 id="defs68">
                <path
                   id="DejaVuSans-31"
                   d="M 794 531  L 1825 531  L 1825 4091  L 703 3866  L 703 4441  L 1819 4666  L 2450 4666  L 2450 531  L 3481 531  L 3481 0  L 794 0  L 794 531  z "
                   transform="scale(0.015625)" />
              </defs>
              <use
                 xlink:href="#DejaVuSans-73"
                 id="use70" />
              <use
                 xlink:href="#DejaVuSans-31"
                 x="52.099609"
                 id="use72" />
            </g>
          </g>
        </g>
        <g
           id="xtick_6">
          <g
             id="text_6">
            <!-- L -->
            <g
               transform="translate(354.504554 231.75) rotate(-270) scale(0.5 -0.5)"
               id="g80">
              <use
                 xlink:href="#DejaVuSans-4c"
                 id="use78" />
            </g>
          </g>
        </g>
        <g
           id="xtick_7">
          <g
             id="text_7">
            <!-- tiL -->
            <g
               transform="translate(408.970268 231.75) rotate(-270) scale(0.5 -0.5)"
               id="g93">
              <defs
                 id="defs85">
                <path
                   id="DejaVuSans-74"
                   d="M 1172 4494  L 1172 3500  L 2356 3500  L 2356 3053  L 1172 3053  L 1172 1153  Q 1172 725 1289 603  Q 1406 481 1766 481  L 2356 481  L 2356 0  L 1766 0  Q 1100 0 847 248  Q 594 497 594 1153  L 594 3053  L 172 3053  L 172 3500  L 594 3500  L 594 4494  L 1172 4494  z "
                   transform="scale(0.015625)" />
              </defs>
              <use
                 xlink:href="#DejaVuSans-74"
                 id="use87" />
              <use
                 xlink:href="#DejaVuSans-69"
                 x="39.208984"
                 id="use89" />
              <use
                 xlink:href="#DejaVuSans-4c"
                 x="66.992188"
                 id="use91" />
            </g>
          </g>
        </g>
      </g>
      <g
         id="matplotlib.axis_2">
        <g
           id="ytick_1">
          <g
             id="line2d_1">
            <defs
               id="defs99">
              <path
                 id="m8b205f31d2"
                 d="M 0 0  L -3.5 0  "
                 style="stroke: #000000; stroke-width: 0.8" />
            </defs>
            <g
               id="g103">
              <use
                 xlink:href="#m8b205f31d2"
                 x="68.74"
                 y="224.75"
                 style="stroke: #000000; stroke-width: 0.8"
                 id="use101" />
            </g>
          </g>
          <g
             id="text_8">
            <!-- 0 -->
            <g
               transform="translate(36.29 239.946875) scale(0.4 -0.4)"
               id="g108">
              <use
                 xlink:href="#DejaVuSans-30"
                 id="use106" />
            </g>
          </g>
        </g>
        <g
           id="ytick_2">
          <g
             id="line2d_2">
            <g
               id="g114">
              <use
                 xlink:href="#m8b205f31d2"
                 x="68.74"
                 y="193.453797"
                 style="stroke: #000000; stroke-width: 0.8"
                 id="use112" />
            </g>
          </g>
          <g
             id="text_9">
            <!-- 5 -->
            <g
               transform="translate(36.29 208.650672) scale(0.4 -0.4)"
               id="g122">
              <defs
                 id="defs118">
                <path
                   id="DejaVuSans-35"
                   d="M 691 4666  L 3169 4666  L 3169 4134  L 1269 4134  L 1269 2991  Q 1406 3038 1543 3061  Q 1681 3084 1819 3084  Q 2600 3084 3056 2656  Q 3513 2228 3513 1497  Q 3513 744 3044 326  Q 2575 -91 1722 -91  Q 1428 -91 1123 -41  Q 819 9 494 109  L 494 744  Q 775 591 1075 516  Q 1375 441 1709 441  Q 2250 441 2565 725  Q 2881 1009 2881 1497  Q 2881 1984 2565 2268  Q 2250 2553 1709 2553  Q 1456 2553 1204 2497  Q 953 2441 691 2322  L 691 4666  z "
                   transform="scale(0.015625)" />
              </defs>
              <use
                 xlink:href="#DejaVuSans-35"
                 id="use120" />
            </g>
          </g>
        </g>
        <g
           id="ytick_3">
          <g
             id="line2d_3">
            <g
               id="g128">
              <use
                 xlink:href="#m8b205f31d2"
                 x="68.74"
                 y="162.157593"
                 style="stroke: #000000; stroke-width: 0.8"
                 id="use126" />
            </g>
          </g>
          <g
             id="text_10">
            <!-- 10 -->
            <g
               transform="translate(10.84 177.354468) scale(0.4 -0.4)"
               id="g135">
              <use
                 xlink:href="#DejaVuSans-31"
                 id="use131" />
              <use
                 xlink:href="#DejaVuSans-30"
                 x="63.623047"
                 id="use133" />
            </g>
          </g>
        </g>
        <g
           id="ytick_4">
          <g
             id="line2d_4">
            <g
               id="g141">
              <use
                 xlink:href="#m8b205f31d2"
                 x="68.74"
                 y="130.86139"
                 style="stroke: #000000; stroke-width: 0.8"
                 id="use139" />
            </g>
          </g>
          <g
             id="text_11">
            <!-- 15 -->
            <g
               transform="translate(10.84 146.058265) scale(0.4 -0.4)"
               id="g148">
              <use
                 xlink:href="#DejaVuSans-31"
                 id="use144" />
              <use
                 xlink:href="#DejaVuSans-35"
                 x="63.623047"
                 id="use146" />
            </g>
          </g>
        </g>
        <g
           id="ytick_5">
          <g
             id="line2d_5">
            <g
               id="g154">
              <use
                 xlink:href="#m8b205f31d2"
                 x="68.74"
                 y="99.565186"
                 style="stroke: #000000; stroke-width: 0.8"
                 id="use152" />
            </g>
          </g>
          <g
             id="text_12">
            <!-- 20 -->
            <g
               transform="translate(10.84 114.762061) scale(0.4 -0.4)"
               id="g161">
              <use
                 xlink:href="#DejaVuSans-32"
                 id="use157" />
              <use
                 xlink:href="#DejaVuSans-30"
                 x="63.623047"
                 id="use159" />
            </g>
          </g>
        </g>
        <g
           id="ytick_6">
          <g
             id="line2d_6">
            <g
               id="g167">
              <use
                 xlink:href="#m8b205f31d2"
                 x="68.74"
                 y="68.268983"
                 style="stroke: #000000; stroke-width: 0.8"
                 id="use165" />
            </g>
          </g>
          <g
             id="text_13">
            <!-- 25 -->
            <g
               transform="translate(10.84 83.465858) scale(0.4 -0.4)"
               id="g174">
              <use
                 xlink:href="#DejaVuSans-32"
                 id="use170" />
              <use
                 xlink:href="#DejaVuSans-35"
                 x="63.623047"
                 id="use172" />
            </g>
          </g>
        </g>
        <g
           id="ytick_7">
          <g
             id="line2d_7">
            <g
               id="g180">
              <use
                 xlink:href="#m8b205f31d2"
                 x="68.74"
                 y="36.972779"
                 style="stroke: #000000; stroke-width: 0.8"
                 id="use178" />
            </g>
          </g>
          <g
             id="text_14">
            <!-- 30 -->
            <g
               transform="translate(10.84 52.169654) scale(0.4 -0.4)"
               id="g190">
              <defs
                 id="defs184">
                <path
                   id="DejaVuSans-33"
                   d="M 2597 2516  Q 3050 2419 3304 2112  Q 3559 1806 3559 1356  Q 3559 666 3084 287  Q 2609 -91 1734 -91  Q 1441 -91 1130 -33  Q 819 25 488 141  L 488 750  Q 750 597 1062 519  Q 1375 441 1716 441  Q 2309 441 2620 675  Q 2931 909 2931 1356  Q 2931 1769 2642 2001  Q 2353 2234 1838 2234  L 1294 2234  L 1294 2753  L 1863 2753  Q 2328 2753 2575 2939  Q 2822 3125 2822 3475  Q 2822 3834 2567 4026  Q 2313 4219 1838 4219  Q 1578 4219 1281 4162  Q 984 4106 628 3988  L 628 4550  Q 988 4650 1302 4700  Q 1616 4750 1894 4750  Q 2613 4750 3031 4423  Q 3450 4097 3450 3541  Q 3450 3153 3228 2886  Q 3006 2619 2597 2516  z "
                   transform="scale(0.015625)" />
              </defs>
              <use
                 xlink:href="#DejaVuSans-33"
                 id="use186" />
              <use
                 xlink:href="#DejaVuSans-30"
                 x="63.623047"
                 id="use188" />
            </g>
          </g>
        </g>
      </g>
      <g
         id="LineCollection_1">
        <path
           d="M 259.37 224.75  L 259.37 209.281861  L 313.835714 209.281861  L 313.835714 224.75  "
           clip-path="url(#pc4b48c163d)"
           style="fill: none; stroke: #ff7f0e; stroke-width: 1.5"
           id="path195" />
        <path
           d="M 204.904286 224.75  L 204.904286 206.149238  L 286.602857 206.149238  L 286.602857 209.281861  "
           clip-path="url(#pc4b48c163d)"
           style="fill: none; stroke: #ff7f0e; stroke-width: 1.5"
           id="path197" />
        <path
           d="M 150.438571 224.75  L 150.438571 192.777945  L 245.753571 192.777945  L 245.753571 206.149238  "
           clip-path="url(#pc4b48c163d)"
           style="fill: none; stroke: #ff7f0e; stroke-width: 1.5"
           id="path199" />
        <path
           d="M 368.301429 224.75  L 368.301429 188.771475  L 422.767143 188.771475  L 422.767143 224.75  "
           clip-path="url(#pc4b48c163d)"
           style="fill: none; stroke: #ff7f0e; stroke-width: 1.5"
           id="path201" />
        <path
           d="M 198.096071 192.777945  L 198.096071 160.530972  L 395.534286 160.530972  L 395.534286 188.771475  "
           clip-path="url(#pc4b48c163d)"
           style="fill: none; stroke: #ff7f0e; stroke-width: 1.5"
           id="path203" />
      </g>
      <g
         id="LineCollection_2">
        <path
           d="M 95.972857 224.75  L 95.972857 36.302381  L 296.815179 36.302381  L 296.815179 160.530972  "
           clip-path="url(#pc4b48c163d)"
           style="fill: none; stroke: #1f77b4; stroke-width: 1.5"
           id="path206" />
      </g>
      <g
         id="LineCollection_3">
        <path
           d="M 95.972857 224.75  L 95.972857 36.302381  L 296.815179 36.302381  L 296.815179 160.530972  "
           clip-path="url(#pc4b48c163d)"
           style="fill: none; stroke: #1f77b4; stroke-width: 10"
           id="path209" />
        <path
           d="M 198.096071 192.777945  L 198.096071 160.530972  L 395.534286 160.530972  L 395.534286 188.771475  "
           clip-path="url(#pc4b48c163d)"
           style="fill: none; stroke: #1f77b4; stroke-width: 10"
           id="path211" />
        <path
           d="M 368.301429 224.75  L 368.301429 188.771475  L 422.767143 188.771475  L 422.767143 224.75  "
           clip-path="url(#pc4b48c163d)"
           style="fill: none; stroke: #1f77b4; stroke-width: 10"
           id="path213" />
        <path
           d="M 150.438571 224.75  L 150.438571 192.777945  L 245.753571 192.777945  L 245.753571 206.149238  "
           clip-path="url(#pc4b48c163d)"
           style="fill: none; stroke: #1f77b4; stroke-width: 10"
           id="path215" />
        <path
           d="M 204.904286 224.75  L 204.904286 206.149238  L 286.602857 206.149238  L 286.602857 209.281861  "
           clip-path="url(#pc4b48c163d)"
           style="fill: none; stroke: #1f77b4; stroke-width: 10"
           id="path217" />
        <path
           d="M 259.37 224.75  L 259.37 209.281861  L 313.835714 209.281861  L 313.835714 224.75  "
           clip-path="url(#pc4b48c163d)"
           style="fill: none; stroke: #1f77b4; stroke-width: 10"
           id="path219" />
      </g>
      <g
         id="patch_3">
        <path
           d="M 68.74 224.75  L 68.74 26.88  "
           style="fill: none; stroke: #000000; stroke-width: 0.8; stroke-linejoin: miter; stroke-linecap: square"
           id="path222" />
      </g>
      <g
         id="patch_4">
        <path
           d="M 450 224.75  L 450 26.88  "
           style="fill: none; stroke: #000000; stroke-width: 0.8; stroke-linejoin: miter; stroke-linecap: square"
           id="path225" />
      </g>
      <g
         id="patch_5">
        <path
           d="M 68.74 224.75  L 450 224.75  "
           style="fill: none; stroke: #000000; stroke-width: 0.8; stroke-linejoin: miter; stroke-linecap: square"
           id="path228" />
      </g>
      <g
         id="patch_6">
        <path
           d="M 68.74 26.88  L 450 26.88  "
           style="fill: none; stroke: #000000; stroke-width: 0.8; stroke-linejoin: miter; stroke-linecap: square"
           id="path231" />
      </g>
      <g
         id="text_15">
        <!-- dtheta_grad_euclidean_average_11 -->
        <g
           transform="translate(152.616875 20.88) scale(0.12 -0.12)"
           id="g310">
          <defs
             id="defs244">
            <path
               id="DejaVuSans-64"
               d="M 2906 2969  L 2906 4863  L 3481 4863  L 3481 0  L 2906 0  L 2906 525  Q 2725 213 2448 61  Q 2172 -91 1784 -91  Q 1150 -91 751 415  Q 353 922 353 1747  Q 353 2572 751 3078  Q 1150 3584 1784 3584  Q 2172 3584 2448 3432  Q 2725 3281 2906 2969  z M 947 1747  Q 947 1113 1208 752  Q 1469 391 1925 391  Q 2381 391 2643 752  Q 2906 1113 2906 1747  Q 2906 2381 2643 2742  Q 2381 3103 1925 3103  Q 1469 3103 1208 2742  Q 947 2381 947 1747  z "
               transform="scale(0.015625)" />
            <path
               id="DejaVuSans-68"
               d="M 3513 2113  L 3513 0  L 2938 0  L 2938 2094  Q 2938 2591 2744 2837  Q 2550 3084 2163 3084  Q 1697 3084 1428 2787  Q 1159 2491 1159 1978  L 1159 0  L 581 0  L 581 4863  L 1159 4863  L 1159 2956  Q 1366 3272 1645 3428  Q 1925 3584 2291 3584  Q 2894 3584 3203 3211  Q 3513 2838 3513 2113  z "
               transform="scale(0.015625)" />
            <path
               id="DejaVuSans-65"
               d="M 3597 1894  L 3597 1613  L 953 1613  Q 991 1019 1311 708  Q 1631 397 2203 397  Q 2534 397 2845 478  Q 3156 559 3463 722  L 3463 178  Q 3153 47 2828 -22  Q 2503 -91 2169 -91  Q 1331 -91 842 396  Q 353 884 353 1716  Q 353 2575 817 3079  Q 1281 3584 2069 3584  Q 2775 3584 3186 3129  Q 3597 2675 3597 1894  z M 3022 2063  Q 3016 2534 2758 2815  Q 2500 3097 2075 3097  Q 1594 3097 1305 2825  Q 1016 2553 972 2059  L 3022 2063  z "
               transform="scale(0.015625)" />
            <path
               id="DejaVuSans-61"
               d="M 2194 1759  Q 1497 1759 1228 1600  Q 959 1441 959 1056  Q 959 750 1161 570  Q 1363 391 1709 391  Q 2188 391 2477 730  Q 2766 1069 2766 1631  L 2766 1759  L 2194 1759  z M 3341 1997  L 3341 0  L 2766 0  L 2766 531  Q 2569 213 2275 61  Q 1981 -91 1556 -91  Q 1019 -91 701 211  Q 384 513 384 1019  Q 384 1609 779 1909  Q 1175 2209 1959 2209  L 2766 2209  L 2766 2266  Q 2766 2663 2505 2880  Q 2244 3097 1772 3097  Q 1472 3097 1187 3025  Q 903 2953 641 2809  L 641 3341  Q 956 3463 1253 3523  Q 1550 3584 1831 3584  Q 2591 3584 2966 3190  Q 3341 2797 3341 1997  z "
               transform="scale(0.015625)" />
            <path
               id="DejaVuSans-5f"
               d="M 3263 -1063  L 3263 -1509  L -63 -1509  L -63 -1063  L 3263 -1063  z "
               transform="scale(0.015625)" />
            <path
               id="DejaVuSans-67"
               d="M 2906 1791  Q 2906 2416 2648 2759  Q 2391 3103 1925 3103  Q 1463 3103 1205 2759  Q 947 2416 947 1791  Q 947 1169 1205 825  Q 1463 481 1925 481  Q 2391 481 2648 825  Q 2906 1169 2906 1791  z M 3481 434  Q 3481 -459 3084 -895  Q 2688 -1331 1869 -1331  Q 1566 -1331 1297 -1286  Q 1028 -1241 775 -1147  L 775 -588  Q 1028 -725 1275 -790  Q 1522 -856 1778 -856  Q 2344 -856 2625 -561  Q 2906 -266 2906 331  L 2906 616  Q 2728 306 2450 153  Q 2172 0 1784 0  Q 1141 0 747 490  Q 353 981 353 1791  Q 353 2603 747 3093  Q 1141 3584 1784 3584  Q 2172 3584 2450 3431  Q 2728 3278 2906 2969  L 2906 3500  L 3481 3500  L 3481 434  z "
               transform="scale(0.015625)" />
            <path
               id="DejaVuSans-72"
               d="M 2631 2963  Q 2534 3019 2420 3045  Q 2306 3072 2169 3072  Q 1681 3072 1420 2755  Q 1159 2438 1159 1844  L 1159 0  L 581 0  L 581 3500  L 1159 3500  L 1159 2956  Q 1341 3275 1631 3429  Q 1922 3584 2338 3584  Q 2397 3584 2469 3576  Q 2541 3569 2628 3553  L 2631 2963  z "
               transform="scale(0.015625)" />
            <path
               id="DejaVuSans-75"
               d="M 544 1381  L 544 3500  L 1119 3500  L 1119 1403  Q 1119 906 1312 657  Q 1506 409 1894 409  Q 2359 409 2629 706  Q 2900 1003 2900 1516  L 2900 3500  L 3475 3500  L 3475 0  L 2900 0  L 2900 538  Q 2691 219 2414 64  Q 2138 -91 1772 -91  Q 1169 -91 856 284  Q 544 659 544 1381  z M 1991 3584  L 1991 3584  z "
               transform="scale(0.015625)" />
            <path
               id="DejaVuSans-63"
               d="M 3122 3366  L 3122 2828  Q 2878 2963 2633 3030  Q 2388 3097 2138 3097  Q 1578 3097 1268 2742  Q 959 2388 959 1747  Q 959 1106 1268 751  Q 1578 397 2138 397  Q 2388 397 2633 464  Q 2878 531 3122 666  L 3122 134  Q 2881 22 2623 -34  Q 2366 -91 2075 -91  Q 1284 -91 818 406  Q 353 903 353 1747  Q 353 2603 823 3093  Q 1294 3584 2113 3584  Q 2378 3584 2631 3529  Q 2884 3475 3122 3366  z "
               transform="scale(0.015625)" />
            <path
               id="DejaVuSans-6c"
               d="M 603 4863  L 1178 4863  L 1178 0  L 603 0  L 603 4863  z "
               transform="scale(0.015625)" />
          </defs>
          <use
             xlink:href="#DejaVuSans-64"
             id="use246" />
          <use
             xlink:href="#DejaVuSans-74"
             x="63.476562"
             id="use248" />
          <use
             xlink:href="#DejaVuSans-68"
             x="102.685547"
             id="use250" />
          <use
             xlink:href="#DejaVuSans-65"
             x="166.064453"
             id="use252" />
          <use
             xlink:href="#DejaVuSans-74"
             x="227.587891"
             id="use254" />
          <use
             xlink:href="#DejaVuSans-61"
             x="266.796875"
             id="use256" />
          <use
             xlink:href="#DejaVuSans-5f"
             x="328.076172"
             id="use258" />
          <use
             xlink:href="#DejaVuSans-67"
             x="378.076172"
             id="use260" />
          <use
             xlink:href="#DejaVuSans-72"
             x="441.552734"
             id="use262" />
          <use
             xlink:href="#DejaVuSans-61"
             x="482.666016"
             id="use264" />
          <use
             xlink:href="#DejaVuSans-64"
             x="543.945312"
             id="use266" />
          <use
             xlink:href="#DejaVuSans-5f"
             x="607.421875"
             id="use268" />
          <use
             xlink:href="#DejaVuSans-65"
             x="657.421875"
             id="use270" />
          <use
             xlink:href="#DejaVuSans-75"
             x="718.945312"
             id="use272" />
          <use
             xlink:href="#DejaVuSans-63"
             x="782.324219"
             id="use274" />
          <use
             xlink:href="#DejaVuSans-6c"
             x="837.304688"
             id="use276" />
          <use
             xlink:href="#DejaVuSans-69"
             x="865.087891"
             id="use278" />
          <use
             xlink:href="#DejaVuSans-64"
             x="892.871094"
             id="use280" />
          <use
             xlink:href="#DejaVuSans-65"
             x="956.347656"
             id="use282" />
          <use
             xlink:href="#DejaVuSans-61"
             x="1017.871094"
             id="use284" />
          <use
             xlink:href="#DejaVuSans-6e"
             x="1079.150391"
             id="use286" />
          <use
             xlink:href="#DejaVuSans-5f"
             x="1142.529297"
             id="use288" />
          <use
             xlink:href="#DejaVuSans-61"
             x="1192.529297"
             id="use290" />
          <use
             xlink:href="#DejaVuSans-76"
             x="1253.808594"
             id="use292" />
          <use
             xlink:href="#DejaVuSans-65"
             x="1312.988281"
             id="use294" />
          <use
             xlink:href="#DejaVuSans-72"
             x="1374.511719"
             id="use296" />
          <use
             xlink:href="#DejaVuSans-61"
             x="1415.625"
             id="use298" />
          <use
             xlink:href="#DejaVuSans-67"
             x="1476.904297"
             id="use300" />
          <use
             xlink:href="#DejaVuSans-65"
             x="1540.380859"
             id="use302" />
          <use
             xlink:href="#DejaVuSans-5f"
             x="1601.904297"
             id="use304" />
          <use
             xlink:href="#DejaVuSans-31"
             x="1651.904297"
             id="use306" />
          <use
             xlink:href="#DejaVuSans-31"
             x="1715.527344"
             id="use308" />
        </g>
      </g>
    </g>
  </g>
  <defs
     id="defs318">
    <clipPath
       id="pc4b48c163d">
      <rect
         x="68.74"
         y="26.88"
         width="381.26"
         height="197.87"
         id="rect315" />
    </clipPath>
  </defs>
  <rect
     style="fill:none;stroke:#0000ff;stroke-width:9.99998;stroke-linecap:butt;stroke-linejoin:round;stroke-miterlimit:4;stroke-dasharray:none;stroke-opacity:1"
     id="rect3483-3"
     width="156.45462"
     height="145.86301"
     x="185.46152"
     y="194.73697"
     ry="18.487801" />
</svg>
