<?xml version="1.0" encoding="utf-8" standalone="no"?>
<!DOCTYPE svg PUBLIC "-//W3C//DTD SVG 1.1//EN"
  "http://www.w3.org/Graphics/SVG/1.1/DTD/svg11.dtd">
<svg xmlns:xlink="http://www.w3.org/1999/xlink" width="460.8pt" height="345.6pt" viewBox="0 0 460.8 345.6" xmlns="http://www.w3.org/2000/svg" version="1.1">
 <metadata>
  <rdf:RDF xmlns:dc="http://purl.org/dc/elements/1.1/" xmlns:cc="http://creativecommons.org/ns#" xmlns:rdf="http://www.w3.org/1999/02/22-rdf-syntax-ns#">
   <cc:Work>
    <dc:type rdf:resource="http://purl.org/dc/dcmitype/StillImage"/>
    <dc:date>2024-03-08T18:33:21.477185</dc:date>
    <dc:format>image/svg+xml</dc:format>
    <dc:creator>
     <cc:Agent>
      <dc:title>Matplotlib v3.7.5, https://matplotlib.org/</dc:title>
     </cc:Agent>
    </dc:creator>
   </cc:Work>
  </rdf:RDF>
 </metadata>
 <defs>
  <style type="text/css">*{stroke-linejoin: round; stroke-linecap: butt}</style>
 </defs>
 <g id="figure_1">
  <g id="patch_1">
   <path d="M 0 345.6 
L 460.8 345.6 
L 460.8 0 
L 0 0 
z
" style="fill: #ffffff"/>
  </g>
  <g id="axes_1">
   <g id="patch_2">
    <path d="M 62.53 257.15 
L 450 257.15 
L 450 10.8 
L 62.53 10.8 
z
" style="fill: #ffffff"/>
   </g>
   <g id="patch_3">
    <path d="M 104.435063 257.15 
L 80.142273 257.15 
L 80.142273 54.296794 
L 104.435063 54.296794 
z
" clip-path="url(#pcf3f3ae36e)" style="fill: #1f77b4"/>
   </g>
   <g id="patch_4">
    <path d="M 165.167038 257.15 
L 140.874248 257.15 
L 140.874248 54.296794 
L 165.167038 54.296794 
z
" clip-path="url(#pcf3f3ae36e)" style="fill: #1f77b4"/>
   </g>
   <g id="patch_5">
    <path d="M 225.899013 257.15 
L 201.606223 257.15 
L 201.606223 63.997929 
L 225.899013 63.997929 
z
" clip-path="url(#pcf3f3ae36e)" style="fill: #1f77b4"/>
   </g>
   <g id="patch_6">
    <path d="M 286.630987 257.15 
L 262.338197 257.15 
L 262.338197 63.997929 
L 286.630987 63.997929 
z
" clip-path="url(#pcf3f3ae36e)" style="fill: #1f77b4"/>
   </g>
   <g id="patch_7">
    <path d="M 347.362962 257.15 
L 323.070172 257.15 
L 323.070172 79.841112 
L 347.362962 79.841112 
z
" clip-path="url(#pcf3f3ae36e)" style="fill: #1f77b4"/>
   </g>
   <g id="patch_8">
    <path d="M 408.094937 257.15 
L 383.802147 257.15 
L 383.802147 79.841112 
L 408.094937 79.841112 
z
" clip-path="url(#pcf3f3ae36e)" style="fill: #1f77b4"/>
   </g>
   <g id="patch_9">
    <path d="M 104.435063 257.15 
L 128.727853 257.15 
L 128.727853 40.059929 
L 104.435063 40.059929 
z
" clip-path="url(#pcf3f3ae36e)" style="fill: #ff7f0e"/>
   </g>
   <g id="patch_10">
    <path d="M 165.167038 257.15 
L 189.459828 257.15 
L 189.459828 64.810182 
L 165.167038 64.810182 
z
" clip-path="url(#pcf3f3ae36e)" style="fill: #ff7f0e"/>
   </g>
   <g id="patch_11">
    <path d="M 225.899013 257.15 
L 250.191803 257.15 
L 250.191803 43.886329 
L 225.899013 43.886329 
z
" clip-path="url(#pcf3f3ae36e)" style="fill: #ff7f0e"/>
   </g>
   <g id="patch_12">
    <path d="M 286.630987 257.15 
L 310.923777 257.15 
L 310.923777 63.997929 
L 286.630987 63.997929 
z
" clip-path="url(#pcf3f3ae36e)" style="fill: #ff7f0e"/>
   </g>
   <g id="patch_13">
    <path d="M 347.362962 257.15 
L 371.655752 257.15 
L 371.655752 79.841112 
L 347.362962 79.841112 
z
" clip-path="url(#pcf3f3ae36e)" style="fill: #ff7f0e"/>
   </g>
   <g id="patch_14">
    <path d="M 408.094937 257.15 
L 432.387727 257.15 
L 432.387727 79.841112 
L 408.094937 79.841112 
z
" clip-path="url(#pcf3f3ae36e)" style="fill: #ff7f0e"/>
   </g>
   <g id="matplotlib.axis_1">
    <g id="xtick_1">
     <g id="line2d_1">
      <defs>
       <path id="m3cc4ae02e9" d="M 0 0 
L 0 3.5 
" style="stroke: #000000; stroke-width: 0.8"/>
      </defs>
      <g>
       <use xlink:href="#m3cc4ae02e9" x="104.435063" y="257.15" style="stroke: #000000; stroke-width: 0.8"/>
      </g>
     </g>
     <g id="text_1">
      <!-- dθ -->
      <g transform="translate(98.916313 264.15) rotate(-270) scale(0.2 -0.2)">
       <defs>
        <path id="DejaVuSans-64" d="M 2906 2969 
L 2906 4863 
L 3481 4863 
L 3481 0 
L 2906 0 
L 2906 525 
Q 2725 213 2448 61 
Q 2172 -91 1784 -91 
Q 1150 -91 751 415 
Q 353 922 353 1747 
Q 353 2572 751 3078 
Q 1150 3584 1784 3584 
Q 2172 3584 2448 3432 
Q 2725 3281 2906 2969 
z
M 947 1747 
Q 947 1113 1208 752 
Q 1469 391 1925 391 
Q 2381 391 2643 752 
Q 2906 1113 2906 1747 
Q 2906 2381 2643 2742 
Q 2381 3103 1925 3103 
Q 1469 3103 1208 2742 
Q 947 2381 947 1747 
z
" transform="scale(0.015625)"/>
        <path id="DejaVuSans-3b8" d="M 2953 2219 
L 963 2219 
Q 1009 1284 1225 888 
Q 1494 400 1959 400 
Q 2428 400 2688 891 
Q 2916 1322 2953 2219 
z
M 2944 2750 
Q 2856 3638 2688 3950 
Q 2419 4444 1959 4444 
Q 1481 4444 1228 3956 
Q 1028 3563 969 2750 
L 2944 2750 
z
M 1959 4913 
Q 2709 4913 3138 4250 
Q 3566 3591 3566 2422 
Q 3566 1256 3138 594 
Q 2709 -72 1959 -72 
Q 1206 -72 781 594 
Q 353 1256 353 2422 
Q 353 3591 781 4250 
Q 1206 4913 1959 4913 
z
" transform="scale(0.015625)"/>
       </defs>
       <use xlink:href="#DejaVuSans-64"/>
       <use xlink:href="#DejaVuSans-3b8" x="63.476562"/>
      </g>
     </g>
    </g>
    <g id="xtick_2">
     <g id="line2d_2">
      <g>
       <use xlink:href="#m3cc4ae02e9" x="165.167038" y="257.15" style="stroke: #000000; stroke-width: 0.8"/>
      </g>
     </g>
     <g id="text_2">
      <!-- dθ_sug -->
      <g transform="translate(159.848288 264.15) rotate(-270) scale(0.2 -0.2)">
       <defs>
        <path id="DejaVuSans-5f" d="M 3263 -1063 
L 3263 -1509 
L -63 -1509 
L -63 -1063 
L 3263 -1063 
z
" transform="scale(0.015625)"/>
        <path id="DejaVuSans-73" d="M 2834 3397 
L 2834 2853 
Q 2591 2978 2328 3040 
Q 2066 3103 1784 3103 
Q 1356 3103 1142 2972 
Q 928 2841 928 2578 
Q 928 2378 1081 2264 
Q 1234 2150 1697 2047 
L 1894 2003 
Q 2506 1872 2764 1633 
Q 3022 1394 3022 966 
Q 3022 478 2636 193 
Q 2250 -91 1575 -91 
Q 1294 -91 989 -36 
Q 684 19 347 128 
L 347 722 
Q 666 556 975 473 
Q 1284 391 1588 391 
Q 1994 391 2212 530 
Q 2431 669 2431 922 
Q 2431 1156 2273 1281 
Q 2116 1406 1581 1522 
L 1381 1569 
Q 847 1681 609 1914 
Q 372 2147 372 2553 
Q 372 3047 722 3315 
Q 1072 3584 1716 3584 
Q 2034 3584 2315 3537 
Q 2597 3491 2834 3397 
z
" transform="scale(0.015625)"/>
        <path id="DejaVuSans-75" d="M 544 1381 
L 544 3500 
L 1119 3500 
L 1119 1403 
Q 1119 906 1312 657 
Q 1506 409 1894 409 
Q 2359 409 2629 706 
Q 2900 1003 2900 1516 
L 2900 3500 
L 3475 3500 
L 3475 0 
L 2900 0 
L 2900 538 
Q 2691 219 2414 64 
Q 2138 -91 1772 -91 
Q 1169 -91 856 284 
Q 544 659 544 1381 
z
M 1991 3584 
L 1991 3584 
z
" transform="scale(0.015625)"/>
        <path id="DejaVuSans-67" d="M 2906 1791 
Q 2906 2416 2648 2759 
Q 2391 3103 1925 3103 
Q 1463 3103 1205 2759 
Q 947 2416 947 1791 
Q 947 1169 1205 825 
Q 1463 481 1925 481 
Q 2391 481 2648 825 
Q 2906 1169 2906 1791 
z
M 3481 434 
Q 3481 -459 3084 -895 
Q 2688 -1331 1869 -1331 
Q 1566 -1331 1297 -1286 
Q 1028 -1241 775 -1147 
L 775 -588 
Q 1028 -725 1275 -790 
Q 1522 -856 1778 -856 
Q 2344 -856 2625 -561 
Q 2906 -266 2906 331 
L 2906 616 
Q 2728 306 2450 153 
Q 2172 0 1784 0 
Q 1141 0 747 490 
Q 353 981 353 1791 
Q 353 2603 747 3093 
Q 1141 3584 1784 3584 
Q 2172 3584 2450 3431 
Q 2728 3278 2906 2969 
L 2906 3500 
L 3481 3500 
L 3481 434 
z
" transform="scale(0.015625)"/>
       </defs>
       <use xlink:href="#DejaVuSans-64"/>
       <use xlink:href="#DejaVuSans-3b8" x="63.476562"/>
       <use xlink:href="#DejaVuSans-5f" x="124.658203"/>
       <use xlink:href="#DejaVuSans-73" x="174.658203"/>
       <use xlink:href="#DejaVuSans-75" x="226.757812"/>
       <use xlink:href="#DejaVuSans-67" x="290.136719"/>
      </g>
     </g>
    </g>
    <g id="xtick_3">
     <g id="line2d_3">
      <g>
       <use xlink:href="#m3cc4ae02e9" x="225.899013" y="257.15" style="stroke: #000000; stroke-width: 0.8"/>
      </g>
     </g>
     <g id="text_3">
      <!-- dr -->
      <g transform="translate(220.380263 264.15) rotate(-270) scale(0.2 -0.2)">
       <defs>
        <path id="DejaVuSans-72" d="M 2631 2963 
Q 2534 3019 2420 3045 
Q 2306 3072 2169 3072 
Q 1681 3072 1420 2755 
Q 1159 2438 1159 1844 
L 1159 0 
L 581 0 
L 581 3500 
L 1159 3500 
L 1159 2956 
Q 1341 3275 1631 3429 
Q 1922 3584 2338 3584 
Q 2397 3584 2469 3576 
Q 2541 3569 2628 3553 
L 2631 2963 
z
" transform="scale(0.015625)"/>
       </defs>
       <use xlink:href="#DejaVuSans-64"/>
       <use xlink:href="#DejaVuSans-72" x="63.476562"/>
      </g>
     </g>
    </g>
    <g id="xtick_4">
     <g id="line2d_4">
      <g>
       <use xlink:href="#m3cc4ae02e9" x="286.630987" y="257.15" style="stroke: #000000; stroke-width: 0.8"/>
      </g>
     </g>
     <g id="text_4">
      <!-- dr_sug -->
      <g transform="translate(281.390362 264.15) rotate(-270) scale(0.2 -0.2)">
       <use xlink:href="#DejaVuSans-64"/>
       <use xlink:href="#DejaVuSans-72" x="63.476562"/>
       <use xlink:href="#DejaVuSans-5f" x="104.589844"/>
       <use xlink:href="#DejaVuSans-73" x="154.589844"/>
       <use xlink:href="#DejaVuSans-75" x="206.689453"/>
       <use xlink:href="#DejaVuSans-67" x="270.068359"/>
      </g>
     </g>
    </g>
    <g id="xtick_5">
     <g id="line2d_5">
      <g>
       <use xlink:href="#m3cc4ae02e9" x="347.362962" y="257.15" style="stroke: #000000; stroke-width: 0.8"/>
      </g>
     </g>
     <g id="text_5">
      <!-- θ_i -->
      <g transform="translate(342.044212 264.15) rotate(-270) scale(0.2 -0.2)">
       <defs>
        <path id="DejaVuSans-69" d="M 603 3500 
L 1178 3500 
L 1178 0 
L 603 0 
L 603 3500 
z
M 603 4863 
L 1178 4863 
L 1178 4134 
L 603 4134 
L 603 4863 
z
" transform="scale(0.015625)"/>
       </defs>
       <use xlink:href="#DejaVuSans-3b8"/>
       <use xlink:href="#DejaVuSans-5f" x="61.181641"/>
       <use xlink:href="#DejaVuSans-69" x="111.181641"/>
      </g>
     </g>
    </g>
    <g id="xtick_6">
     <g id="line2d_6">
      <g>
       <use xlink:href="#m3cc4ae02e9" x="408.094937" y="257.15" style="stroke: #000000; stroke-width: 0.8"/>
      </g>
     </g>
     <g id="text_6">
      <!-- θ_diff -->
      <g transform="translate(402.776187 264.15) rotate(-270) scale(0.2 -0.2)">
       <defs>
        <path id="DejaVuSans-66" d="M 2375 4863 
L 2375 4384 
L 1825 4384 
Q 1516 4384 1395 4259 
Q 1275 4134 1275 3809 
L 1275 3500 
L 2222 3500 
L 2222 3053 
L 1275 3053 
L 1275 0 
L 697 0 
L 697 3053 
L 147 3053 
L 147 3500 
L 697 3500 
L 697 3744 
Q 697 4328 969 4595 
Q 1241 4863 1831 4863 
L 2375 4863 
z
" transform="scale(0.015625)"/>
       </defs>
       <use xlink:href="#DejaVuSans-3b8"/>
       <use xlink:href="#DejaVuSans-5f" x="61.181641"/>
       <use xlink:href="#DejaVuSans-64" x="111.181641"/>
       <use xlink:href="#DejaVuSans-69" x="174.658203"/>
       <use xlink:href="#DejaVuSans-66" x="202.441406"/>
       <use xlink:href="#DejaVuSans-66" x="237.646484"/>
      </g>
     </g>
    </g>
   </g>
   <g id="matplotlib.axis_2">
    <g id="ytick_1">
     <g id="line2d_7">
      <defs>
       <path id="m5dcdba6236" d="M 0 0 
L -3.5 0 
" style="stroke: #000000; stroke-width: 0.8"/>
      </defs>
      <g>
       <use xlink:href="#m5dcdba6236" x="62.53" y="257.15" style="stroke: #000000; stroke-width: 0.8"/>
      </g>
     </g>
     <g id="text_7">
      <!-- 0.00 -->
      <g transform="translate(10.99875 264.748437) scale(0.2 -0.2)">
       <defs>
        <path id="DejaVuSans-30" d="M 2034 4250 
Q 1547 4250 1301 3770 
Q 1056 3291 1056 2328 
Q 1056 1369 1301 889 
Q 1547 409 2034 409 
Q 2525 409 2770 889 
Q 3016 1369 3016 2328 
Q 3016 3291 2770 3770 
Q 2525 4250 2034 4250 
z
M 2034 4750 
Q 2819 4750 3233 4129 
Q 3647 3509 3647 2328 
Q 3647 1150 3233 529 
Q 2819 -91 2034 -91 
Q 1250 -91 836 529 
Q 422 1150 422 2328 
Q 422 3509 836 4129 
Q 1250 4750 2034 4750 
z
" transform="scale(0.015625)"/>
        <path id="DejaVuSans-2e" d="M 684 794 
L 1344 794 
L 1344 0 
L 684 0 
L 684 794 
z
" transform="scale(0.015625)"/>
       </defs>
       <use xlink:href="#DejaVuSans-30"/>
       <use xlink:href="#DejaVuSans-2e" x="63.623047"/>
       <use xlink:href="#DejaVuSans-30" x="95.410156"/>
       <use xlink:href="#DejaVuSans-30" x="159.033203"/>
      </g>
     </g>
    </g>
    <g id="ytick_2">
     <g id="line2d_8">
      <g>
       <use xlink:href="#m5dcdba6236" x="62.53" y="210.115773" style="stroke: #000000; stroke-width: 0.8"/>
      </g>
     </g>
     <g id="text_8">
      <!-- 0.02 -->
      <g transform="translate(10.99875 217.714211) scale(0.2 -0.2)">
       <defs>
        <path id="DejaVuSans-32" d="M 1228 531 
L 3431 531 
L 3431 0 
L 469 0 
L 469 531 
Q 828 903 1448 1529 
Q 2069 2156 2228 2338 
Q 2531 2678 2651 2914 
Q 2772 3150 2772 3378 
Q 2772 3750 2511 3984 
Q 2250 4219 1831 4219 
Q 1534 4219 1204 4116 
Q 875 4013 500 3803 
L 500 4441 
Q 881 4594 1212 4672 
Q 1544 4750 1819 4750 
Q 2544 4750 2975 4387 
Q 3406 4025 3406 3419 
Q 3406 3131 3298 2873 
Q 3191 2616 2906 2266 
Q 2828 2175 2409 1742 
Q 1991 1309 1228 531 
z
" transform="scale(0.015625)"/>
       </defs>
       <use xlink:href="#DejaVuSans-30"/>
       <use xlink:href="#DejaVuSans-2e" x="63.623047"/>
       <use xlink:href="#DejaVuSans-30" x="95.410156"/>
       <use xlink:href="#DejaVuSans-32" x="159.033203"/>
      </g>
     </g>
    </g>
    <g id="ytick_3">
     <g id="line2d_9">
      <g>
       <use xlink:href="#m5dcdba6236" x="62.53" y="163.081546" style="stroke: #000000; stroke-width: 0.8"/>
      </g>
     </g>
     <g id="text_9">
      <!-- 0.04 -->
      <g transform="translate(10.99875 170.679984) scale(0.2 -0.2)">
       <defs>
        <path id="DejaVuSans-34" d="M 2419 4116 
L 825 1625 
L 2419 1625 
L 2419 4116 
z
M 2253 4666 
L 3047 4666 
L 3047 1625 
L 3713 1625 
L 3713 1100 
L 3047 1100 
L 3047 0 
L 2419 0 
L 2419 1100 
L 313 1100 
L 313 1709 
L 2253 4666 
z
" transform="scale(0.015625)"/>
       </defs>
       <use xlink:href="#DejaVuSans-30"/>
       <use xlink:href="#DejaVuSans-2e" x="63.623047"/>
       <use xlink:href="#DejaVuSans-30" x="95.410156"/>
       <use xlink:href="#DejaVuSans-34" x="159.033203"/>
      </g>
     </g>
    </g>
    <g id="ytick_4">
     <g id="line2d_10">
      <g>
       <use xlink:href="#m5dcdba6236" x="62.53" y="116.047319" style="stroke: #000000; stroke-width: 0.8"/>
      </g>
     </g>
     <g id="text_10">
      <!-- 0.06 -->
      <g transform="translate(10.99875 123.645757) scale(0.2 -0.2)">
       <defs>
        <path id="DejaVuSans-36" d="M 2113 2584 
Q 1688 2584 1439 2293 
Q 1191 2003 1191 1497 
Q 1191 994 1439 701 
Q 1688 409 2113 409 
Q 2538 409 2786 701 
Q 3034 994 3034 1497 
Q 3034 2003 2786 2293 
Q 2538 2584 2113 2584 
z
M 3366 4563 
L 3366 3988 
Q 3128 4100 2886 4159 
Q 2644 4219 2406 4219 
Q 1781 4219 1451 3797 
Q 1122 3375 1075 2522 
Q 1259 2794 1537 2939 
Q 1816 3084 2150 3084 
Q 2853 3084 3261 2657 
Q 3669 2231 3669 1497 
Q 3669 778 3244 343 
Q 2819 -91 2113 -91 
Q 1303 -91 875 529 
Q 447 1150 447 2328 
Q 447 3434 972 4092 
Q 1497 4750 2381 4750 
Q 2619 4750 2861 4703 
Q 3103 4656 3366 4563 
z
" transform="scale(0.015625)"/>
       </defs>
       <use xlink:href="#DejaVuSans-30"/>
       <use xlink:href="#DejaVuSans-2e" x="63.623047"/>
       <use xlink:href="#DejaVuSans-30" x="95.410156"/>
       <use xlink:href="#DejaVuSans-36" x="159.033203"/>
      </g>
     </g>
    </g>
    <g id="ytick_5">
     <g id="line2d_11">
      <g>
       <use xlink:href="#m5dcdba6236" x="62.53" y="69.013092" style="stroke: #000000; stroke-width: 0.8"/>
      </g>
     </g>
     <g id="text_11">
      <!-- 0.08 -->
      <g transform="translate(10.99875 76.61153) scale(0.2 -0.2)">
       <defs>
        <path id="DejaVuSans-38" d="M 2034 2216 
Q 1584 2216 1326 1975 
Q 1069 1734 1069 1313 
Q 1069 891 1326 650 
Q 1584 409 2034 409 
Q 2484 409 2743 651 
Q 3003 894 3003 1313 
Q 3003 1734 2745 1975 
Q 2488 2216 2034 2216 
z
M 1403 2484 
Q 997 2584 770 2862 
Q 544 3141 544 3541 
Q 544 4100 942 4425 
Q 1341 4750 2034 4750 
Q 2731 4750 3128 4425 
Q 3525 4100 3525 3541 
Q 3525 3141 3298 2862 
Q 3072 2584 2669 2484 
Q 3125 2378 3379 2068 
Q 3634 1759 3634 1313 
Q 3634 634 3220 271 
Q 2806 -91 2034 -91 
Q 1263 -91 848 271 
Q 434 634 434 1313 
Q 434 1759 690 2068 
Q 947 2378 1403 2484 
z
M 1172 3481 
Q 1172 3119 1398 2916 
Q 1625 2713 2034 2713 
Q 2441 2713 2670 2916 
Q 2900 3119 2900 3481 
Q 2900 3844 2670 4047 
Q 2441 4250 2034 4250 
Q 1625 4250 1398 4047 
Q 1172 3844 1172 3481 
z
" transform="scale(0.015625)"/>
       </defs>
       <use xlink:href="#DejaVuSans-30"/>
       <use xlink:href="#DejaVuSans-2e" x="63.623047"/>
       <use xlink:href="#DejaVuSans-30" x="95.410156"/>
       <use xlink:href="#DejaVuSans-38" x="159.033203"/>
      </g>
     </g>
    </g>
    <g id="ytick_6">
     <g id="line2d_12">
      <g>
       <use xlink:href="#m5dcdba6236" x="62.53" y="21.978866" style="stroke: #000000; stroke-width: 0.8"/>
      </g>
     </g>
     <g id="text_12">
      <!-- 0.10 -->
      <g transform="translate(10.99875 29.577303) scale(0.2 -0.2)">
       <defs>
        <path id="DejaVuSans-31" d="M 794 531 
L 1825 531 
L 1825 4091 
L 703 3866 
L 703 4441 
L 1819 4666 
L 2450 4666 
L 2450 531 
L 3481 531 
L 3481 0 
L 794 0 
L 794 531 
z
" transform="scale(0.015625)"/>
       </defs>
       <use xlink:href="#DejaVuSans-30"/>
       <use xlink:href="#DejaVuSans-2e" x="63.623047"/>
       <use xlink:href="#DejaVuSans-31" x="95.410156"/>
       <use xlink:href="#DejaVuSans-30" x="159.033203"/>
      </g>
     </g>
    </g>
   </g>
   <g id="LineCollection_1">
    <path d="M 92.288668 65.880399 
L 92.288668 42.71319 
" clip-path="url(#pcf3f3ae36e)" style="fill: none; stroke: #000000; stroke-width: 1.5"/>
    <path d="M 153.020643 65.880399 
L 153.020643 42.71319 
" clip-path="url(#pcf3f3ae36e)" style="fill: none; stroke: #000000; stroke-width: 1.5"/>
    <path d="M 213.752618 75.043754 
L 213.752618 52.952105 
" clip-path="url(#pcf3f3ae36e)" style="fill: none; stroke: #000000; stroke-width: 1.5"/>
    <path d="M 274.484592 75.043754 
L 274.484592 52.952105 
" clip-path="url(#pcf3f3ae36e)" style="fill: none; stroke: #000000; stroke-width: 1.5"/>
    <path d="M 335.216567 91.510412 
L 335.216567 68.171813 
" clip-path="url(#pcf3f3ae36e)" style="fill: none; stroke: #000000; stroke-width: 1.5"/>
    <path d="M 395.948542 91.510412 
L 395.948542 68.171813 
" clip-path="url(#pcf3f3ae36e)" style="fill: none; stroke: #000000; stroke-width: 1.5"/>
   </g>
   <g id="line2d_13">
    <defs>
     <path id="md8b0b01824" d="M 8 0 
L -8 -0 
" style="stroke: #000000"/>
    </defs>
    <g clip-path="url(#pcf3f3ae36e)">
     <use xlink:href="#md8b0b01824" x="92.288668" y="65.880399" style="stroke: #000000"/>
     <use xlink:href="#md8b0b01824" x="153.020643" y="65.880399" style="stroke: #000000"/>
     <use xlink:href="#md8b0b01824" x="213.752618" y="75.043754" style="stroke: #000000"/>
     <use xlink:href="#md8b0b01824" x="274.484592" y="75.043754" style="stroke: #000000"/>
     <use xlink:href="#md8b0b01824" x="335.216567" y="91.510412" style="stroke: #000000"/>
     <use xlink:href="#md8b0b01824" x="395.948542" y="91.510412" style="stroke: #000000"/>
    </g>
   </g>
   <g id="line2d_14">
    <g clip-path="url(#pcf3f3ae36e)">
     <use xlink:href="#md8b0b01824" x="92.288668" y="42.71319" style="stroke: #000000"/>
     <use xlink:href="#md8b0b01824" x="153.020643" y="42.71319" style="stroke: #000000"/>
     <use xlink:href="#md8b0b01824" x="213.752618" y="52.952105" style="stroke: #000000"/>
     <use xlink:href="#md8b0b01824" x="274.484592" y="52.952105" style="stroke: #000000"/>
     <use xlink:href="#md8b0b01824" x="335.216567" y="68.171813" style="stroke: #000000"/>
     <use xlink:href="#md8b0b01824" x="395.948542" y="68.171813" style="stroke: #000000"/>
    </g>
   </g>
   <g id="LineCollection_2">
    <path d="M 116.581458 57.588905 
L 116.581458 22.530952 
" clip-path="url(#pcf3f3ae36e)" style="fill: none; stroke: #000000; stroke-width: 1.5"/>
    <path d="M 177.313433 73.765048 
L 177.313433 55.855316 
" clip-path="url(#pcf3f3ae36e)" style="fill: none; stroke: #000000; stroke-width: 1.5"/>
    <path d="M 238.045408 56.02958 
L 238.045408 31.743078 
" clip-path="url(#pcf3f3ae36e)" style="fill: none; stroke: #000000; stroke-width: 1.5"/>
    <path d="M 298.777382 75.043754 
L 298.777382 52.952105 
" clip-path="url(#pcf3f3ae36e)" style="fill: none; stroke: #000000; stroke-width: 1.5"/>
    <path d="M 359.509357 91.510412 
L 359.509357 68.171813 
" clip-path="url(#pcf3f3ae36e)" style="fill: none; stroke: #000000; stroke-width: 1.5"/>
    <path d="M 420.241332 91.510412 
L 420.241332 68.171813 
" clip-path="url(#pcf3f3ae36e)" style="fill: none; stroke: #000000; stroke-width: 1.5"/>
   </g>
   <g id="line2d_15">
    <g clip-path="url(#pcf3f3ae36e)">
     <use xlink:href="#md8b0b01824" x="116.581458" y="57.588905" style="stroke: #000000"/>
     <use xlink:href="#md8b0b01824" x="177.313433" y="73.765048" style="stroke: #000000"/>
     <use xlink:href="#md8b0b01824" x="238.045408" y="56.02958" style="stroke: #000000"/>
     <use xlink:href="#md8b0b01824" x="298.777382" y="75.043754" style="stroke: #000000"/>
     <use xlink:href="#md8b0b01824" x="359.509357" y="91.510412" style="stroke: #000000"/>
     <use xlink:href="#md8b0b01824" x="420.241332" y="91.510412" style="stroke: #000000"/>
    </g>
   </g>
   <g id="line2d_16">
    <g clip-path="url(#pcf3f3ae36e)">
     <use xlink:href="#md8b0b01824" x="116.581458" y="22.530952" style="stroke: #000000"/>
     <use xlink:href="#md8b0b01824" x="177.313433" y="55.855316" style="stroke: #000000"/>
     <use xlink:href="#md8b0b01824" x="238.045408" y="31.743078" style="stroke: #000000"/>
     <use xlink:href="#md8b0b01824" x="298.777382" y="52.952105" style="stroke: #000000"/>
     <use xlink:href="#md8b0b01824" x="359.509357" y="68.171813" style="stroke: #000000"/>
     <use xlink:href="#md8b0b01824" x="420.241332" y="68.171813" style="stroke: #000000"/>
    </g>
   </g>
   <g id="patch_15">
    <path d="M 62.53 257.15 
L 62.53 10.8 
" style="fill: none; stroke: #000000; stroke-width: 0.8; stroke-linejoin: miter; stroke-linecap: square"/>
   </g>
   <g id="patch_16">
    <path d="M 450 257.15 
L 450 10.8 
" style="fill: none; stroke: #000000; stroke-width: 0.8; stroke-linejoin: miter; stroke-linecap: square"/>
   </g>
   <g id="patch_17">
    <path d="M 62.53 257.15 
L 450 257.15 
" style="fill: none; stroke: #000000; stroke-width: 0.8; stroke-linejoin: miter; stroke-linecap: square"/>
   </g>
   <g id="patch_18">
    <path d="M 62.53 10.8 
L 450 10.8 
" style="fill: none; stroke: #000000; stroke-width: 0.8; stroke-linejoin: miter; stroke-linecap: square"/>
   </g>
   <g id="legend_1">
    <g id="patch_19">
     <path d="M 75.13 248.15 
L 165.110312 248.15 
Q 168.710312 248.15 168.710312 244.55 
L 168.710312 193.50875 
Q 168.710312 189.90875 165.110312 189.90875 
L 75.13 189.90875 
Q 71.53 189.90875 71.53 193.50875 
L 71.53 244.55 
Q 71.53 248.15 75.13 248.15 
z
" style="fill: #ffffff; opacity: 0.8; stroke: #cccccc; stroke-linejoin: miter"/>
    </g>
    <g id="patch_20">
     <path d="M 78.73 210.785937 
L 114.73 210.785937 
L 114.73 198.185937 
L 78.73 198.185937 
z
" style="fill: #1f77b4"/>
    </g>
    <g id="text_13">
     <!-- cos -->
     <g transform="translate(129.13 210.785937) scale(0.18 -0.18)">
      <defs>
       <path id="DejaVuSans-63" d="M 3122 3366 
L 3122 2828 
Q 2878 2963 2633 3030 
Q 2388 3097 2138 3097 
Q 1578 3097 1268 2742 
Q 959 2388 959 1747 
Q 959 1106 1268 751 
Q 1578 397 2138 397 
Q 2388 397 2633 464 
Q 2878 531 3122 666 
L 3122 134 
Q 2881 22 2623 -34 
Q 2366 -91 2075 -91 
Q 1284 -91 818 406 
Q 353 903 353 1747 
Q 353 2603 823 3093 
Q 1294 3584 2113 3584 
Q 2378 3584 2631 3529 
Q 2884 3475 3122 3366 
z
" transform="scale(0.015625)"/>
       <path id="DejaVuSans-6f" d="M 1959 3097 
Q 1497 3097 1228 2736 
Q 959 2375 959 1747 
Q 959 1119 1226 758 
Q 1494 397 1959 397 
Q 2419 397 2687 759 
Q 2956 1122 2956 1747 
Q 2956 2369 2687 2733 
Q 2419 3097 1959 3097 
z
M 1959 3584 
Q 2709 3584 3137 3096 
Q 3566 2609 3566 1747 
Q 3566 888 3137 398 
Q 2709 -91 1959 -91 
Q 1206 -91 779 398 
Q 353 888 353 1747 
Q 353 2609 779 3096 
Q 1206 3584 1959 3584 
z
" transform="scale(0.015625)"/>
      </defs>
      <use xlink:href="#DejaVuSans-63"/>
      <use xlink:href="#DejaVuSans-6f" x="54.980469"/>
      <use xlink:href="#DejaVuSans-73" x="116.162109"/>
     </g>
    </g>
    <g id="patch_21">
     <path d="M 78.73 237.206562 
L 114.73 237.206562 
L 114.73 224.606562 
L 78.73 224.606562 
z
" style="fill: #ff7f0e"/>
    </g>
    <g id="text_14">
     <!-- euc -->
     <g transform="translate(129.13 237.206562) scale(0.18 -0.18)">
      <defs>
       <path id="DejaVuSans-65" d="M 3597 1894 
L 3597 1613 
L 953 1613 
Q 991 1019 1311 708 
Q 1631 397 2203 397 
Q 2534 397 2845 478 
Q 3156 559 3463 722 
L 3463 178 
Q 3153 47 2828 -22 
Q 2503 -91 2169 -91 
Q 1331 -91 842 396 
Q 353 884 353 1716 
Q 353 2575 817 3079 
Q 1281 3584 2069 3584 
Q 2775 3584 3186 3129 
Q 3597 2675 3597 1894 
z
M 3022 2063 
Q 3016 2534 2758 2815 
Q 2500 3097 2075 3097 
Q 1594 3097 1305 2825 
Q 1016 2553 972 2059 
L 3022 2063 
z
" transform="scale(0.015625)"/>
      </defs>
      <use xlink:href="#DejaVuSans-65"/>
      <use xlink:href="#DejaVuSans-75" x="61.523438"/>
      <use xlink:href="#DejaVuSans-63" x="124.902344"/>
     </g>
    </g>
   </g>
  </g>
 </g>
 <defs>
  <clipPath id="pcf3f3ae36e">
   <rect x="62.53" y="10.8" width="387.47" height="246.35"/>
  </clipPath>
 </defs>
</svg>
