<?xml version="1.0" encoding="UTF-8" standalone="no"?>
<!-- Created with Inkscape (http://www.inkscape.org/) -->

<svg
   width="79.625038mm"
   height="75.947502mm"
   viewBox="0 0 79.625037 75.947502"
   version="1.1"
   id="svg9179"
   inkscape:version="1.1.2 (0a00cf5339, 2022-02-04)"
   sodipodi:docname="grad_normed.svg"
   xmlns:inkscape="http://www.inkscape.org/namespaces/inkscape"
   xmlns:sodipodi="http://sodipodi.sourceforge.net/DTD/sodipodi-0.dtd"
   xmlns:xlink="http://www.w3.org/1999/xlink"
   xmlns="http://www.w3.org/2000/svg"
   xmlns:svg="http://www.w3.org/2000/svg">
  <sodipodi:namedview
     id="namedview9181"
     pagecolor="#ffffff"
     bordercolor="#999999"
     borderopacity="1"
     inkscape:pageshadow="0"
     inkscape:pageopacity="0"
     inkscape:pagecheckerboard="0"
     inkscape:document-units="mm"
     showgrid="false"
     inkscape:zoom="3.2453902"
     inkscape:cx="117.08916"
     inkscape:cy="178.25283"
     inkscape:window-width="1920"
     inkscape:window-height="1007"
     inkscape:window-x="0"
     inkscape:window-y="0"
     inkscape:window-maximized="1"
     inkscape:current-layer="layer1" />
  <defs
     id="defs9176">
    <rect
       x="449.82929"
       y="424.69832"
       width="104.88457"
       height="56.301839"
       id="rect11939" />
    <marker
       style="overflow:visible"
       id="Arrow1Mend-9"
       refX="0"
       refY="0"
       orient="auto"
       inkscape:stockid="Arrow1Mend"
       inkscape:isstock="true">
      <path
         transform="matrix(-0.4,0,0,-0.4,-4,0)"
         style="fill:context-stroke;fill-rule:evenodd;stroke:context-stroke;stroke-width:1pt"
         d="M 0,0 5,-5 -12.5,0 5,5 Z"
         id="path9589-3" />
    </marker>
    <marker
       style="overflow:visible"
       id="Arrow1Mend-9-9"
       refX="0"
       refY="0"
       orient="auto"
       inkscape:stockid="Arrow1Mend"
       inkscape:isstock="true">
      <path
         transform="matrix(-0.4,0,0,-0.4,-4,0)"
         style="fill:context-stroke;fill-rule:evenodd;stroke:context-stroke;stroke-width:1pt"
         d="M 0,0 5,-5 -12.5,0 5,5 Z"
         id="path9589-3-4" />
    </marker>
    <g
       id="g4640">
      <symbol
         overflow="visible"
         id="symbol8934">
        <path
           style="stroke:none"
           d=""
           id="path6884" />
      </symbol>
      <symbol
         overflow="visible"
         id="symbol1446">
        <path
           style="stroke:none"
           d="m 7.375,-4.34375 c 0,-1.609375 -1.0625,-2.6875 -2.546875,-2.6875 -2.140625,0 -4.34375,2.265625 -4.34375,4.59375 0,1.65625 1.125,2.65625 2.5625,2.65625 2.109375,0 4.328125,-2.1875 4.328125,-4.5625 z m -4.28125,4.296875 c -0.984375,0 -1.671875,-0.796875 -1.671875,-2.109375 0,-0.453125 0.140625,-1.90625 0.90625,-3.0625 0.6875,-1.046875 1.65625,-1.5625 2.453125,-1.5625 0.8125,0 1.703125,0.5625 1.703125,2.046875 0,0.71875 -0.265625,2.265625 -1.25,3.5 C 4.75,-0.625 3.9375,-0.046875 3.09375,-0.046875 Z m 0,0"
           id="path1156" />
      </symbol>
    </g>
    <g
       id="g1605">
      <symbol
         overflow="visible"
         id="symbol8689">
        <path
           style="stroke:none"
           d=""
           id="path2217" />
      </symbol>
      <symbol
         overflow="visible"
         id="symbol8616">
        <path
           style="stroke:none"
           d="m 7.1875,-3.375 c 0,-2.03125 -1.5,-3.65625 -3.3125,-3.65625 -1.796875,0 -3.3125,1.59375 -3.3125,3.65625 0,2.046875 1.53125,3.59375 3.3125,3.59375 1.8125,0 3.3125,-1.578125 3.3125,-3.59375 z M 3.875,-0.046875 c -0.953125,0 -2.296875,-0.875 -2.296875,-3.46875 0,-2.578125 1.46875,-3.265625 2.296875,-3.265625 0.859375,0 2.28125,0.703125 2.28125,3.265625 0,2.640625 -1.359375,3.46875 -2.28125,3.46875 z m 0,0"
           id="path3447" />
      </symbol>
    </g>
    <marker
       style="overflow:visible"
       refX="0"
       refY="0"
       orient="auto"
       inkscape:stockid="Arrow1Mend-9-95350"
       inkscape:isstock="true"
       id="Arrow1Mend-9-95350">
      <path
         transform="matrix(-0.4,0,0,-0.4,-4,0)"
         style="fill:#1f38c5;fill-rule:evenodd;stroke:#1f38c5;stroke-width:1pt"
         d="M 0,0 5,-5 -12.5,0 5,5 Z"
         id="path1090" />
    </marker>
    <marker
       style="overflow:visible"
       refX="0"
       refY="0"
       orient="auto"
       inkscape:stockid="Arrow1Mend-9-953508609"
       inkscape:isstock="true"
       id="Arrow1Mend-9-953508609">
      <path
         transform="matrix(-0.4,0,0,-0.4,-4,0)"
         style="fill:#1f38c5;fill-rule:evenodd;stroke:#1f38c5;stroke-width:1pt"
         d="M 0,0 5,-5 -12.5,0 5,5 Z"
         id="path1216" />
    </marker>
    <marker
       style="overflow:visible"
       refX="0"
       refY="0"
       orient="auto"
       inkscape:stockid="Arrow1Mend-9-9535086095715"
       inkscape:isstock="true"
       id="Arrow1Mend-9-9535086095715">
      <path
         transform="matrix(-0.4,0,0,-0.4,-4,0)"
         style="fill:#1f38c5;fill-rule:evenodd;stroke:#1f38c5;stroke-width:1pt"
         d="M 0,0 5,-5 -12.5,0 5,5 Z"
         id="path1346" />
    </marker>
    <g
       id="g6538">
      <symbol
         overflow="visible"
         id="symbol1918">
        <path
           style="stroke:none"
           d=""
           id="path4277" />
      </symbol>
      <symbol
         overflow="visible"
         id="symbol4713">
        <path
           style="stroke:none"
           d="M 4.84375,-6.1875 H 6.5 c 1.3125,0 1.8125,-0.765625 1.8125,-0.890625 0,-0.046875 -0.03125,-0.0625 -0.09375,-0.0625 -0.109375,0 -0.359375,0.09375 -0.609375,0.265625 C 7.53125,-6.8125 7.5,-6.8125 7.3125,-6.8125 H 2.953125 c -1.234375,0 -2.609375,1.078125 -2.609375,1.890625 0,0.0625 0,0.109375 0.078125,0.109375 0.234375,0 0.859375,-0.328125 0.890625,-0.5625 0,-0.171875 0.015625,-0.359375 0.21875,-0.609375 0.109375,-0.125 0.1875,-0.203125 0.625,-0.203125 h 1.984375 c -0.171875,0.109375 -0.21875,0.25 -0.234375,0.359375 L 2.765625,-1.3125 C 2.65625,-0.828125 2.4375,-0.203125 2.15625,0.453125 2.09375,0.5625 2.09375,0.59375 2.09375,0.609375 c 0,0.0625 0.046875,0.0625 0.09375,0.0625 0.1875,0 0.6875,-0.265625 0.828125,-0.46875 0.0625,-0.109375 0.5,-1.125 0.71875,-1.953125 z m 0,0"
           id="path8263" />
      </symbol>
      <symbol
         overflow="visible"
         id="symbol9546">
        <path
           style="stroke:none"
           d=""
           id="path9027" />
      </symbol>
      <symbol
         overflow="visible"
         id="symbol5292">
        <path
           style="stroke:none"
           d="m 2.265625,-4.359375 c 0,-0.109375 -0.09375,-0.265625 -0.28125,-0.265625 -0.1875,0 -0.390625,0.1875 -0.390625,0.390625 0,0.109375 0.078125,0.265625 0.28125,0.265625 0.1875,0 0.390625,-0.203125 0.390625,-0.390625 z M 0.84375,-0.8125 c -0.03125,0.09375 -0.0625,0.171875 -0.0625,0.296875 0,0.328125 0.265625,0.578125 0.65625,0.578125 0.6875,0 1,-0.953125 1,-1.0625 0,-0.09375 -0.09375,-0.09375 -0.109375,-0.09375 -0.09375,0 -0.109375,0.046875 -0.140625,0.125 -0.15625,0.5625 -0.453125,0.84375 -0.734375,0.84375 -0.140625,0 -0.171875,-0.09375 -0.171875,-0.25 0,-0.15625 0.046875,-0.28125 0.109375,-0.4375 C 1.46875,-1 1.546875,-1.1875 1.609375,-1.375 1.671875,-1.546875 1.9375,-2.171875 1.953125,-2.265625 1.984375,-2.328125 2,-2.40625 2,-2.484375 2,-2.8125 1.71875,-3.078125 1.34375,-3.078125 0.640625,-3.078125 0.328125,-2.125 0.328125,-2 c 0,0.078125 0.09375,0.078125 0.125,0.078125 0.09375,0 0.09375,-0.03125 0.125,-0.109375 C 0.75,-2.625 1.0625,-2.875 1.3125,-2.875 c 0.109375,0 0.171875,0.046875 0.171875,0.234375 0,0.171875 -0.03125,0.265625 -0.203125,0.703125 z m 0,0"
           id="path6201" />
      </symbol>
    </g>
    <g
       id="g2109">
      <symbol
         overflow="visible"
         id="symbol1054">
        <path
           style="stroke:none"
           d=""
           id="path8767" />
      </symbol>
      <symbol
         overflow="visible"
         id="symbol5262">
        <path
           style="stroke:none"
           d="m 4.53125,-4.984375 c 0,-0.65625 -0.171875,-2.046875 -1.1875,-2.046875 -1.390625,0 -2.921875,2.8125 -2.921875,5.09375 0,0.9375 0.28125,2.046875 1.1875,2.046875 1.40625,0 2.921875,-2.859375 2.921875,-5.09375 z M 1.46875,-3.625 C 1.640625,-4.25 1.84375,-5.046875 2.25,-5.765625 2.515625,-6.25 2.875,-6.8125 3.328125,-6.8125 c 0.484375,0 0.546875,0.640625 0.546875,1.203125 0,0.5 -0.078125,1 -0.3125,1.984375 z m 2,0.328125 C 3.359375,-2.84375 3.15625,-2 2.765625,-1.28125 c -0.34375,0.6875 -0.71875,1.171875 -1.15625,1.171875 -0.328125,0 -0.53125,-0.296875 -0.53125,-1.21875 0,-0.421875 0.0625,-1 0.3125,-1.96875 z m 0,0"
           id="path8234" />
      </symbol>
      <symbol
         overflow="visible"
         id="symbol1928">
        <path
           style="stroke:none"
           d=""
           id="path9551" />
      </symbol>
      <symbol
         overflow="visible"
         id="symbol5811">
        <path
           style="stroke:none"
           d="m 3.65625,-2 c 0.125,-0.0625 0.125,-0.09375 0.125,-0.125 0,-0.0625 -0.0625,-0.09375 -0.09375,-0.09375 C 3.65625,-2.21875 2.5,-2 2.3125,-1.953125 L 2.140625,-3.234375 C 2.125,-3.34375 2.125,-3.421875 2.03125,-3.421875 c -0.0625,0 -0.09375,0.0625 -0.109375,0.171875 l -0.15625,1.296875 -1.28125,-0.25 C 0.40625,-2.21875 0.390625,-2.21875 0.390625,-2.21875 c -0.046875,0 -0.109375,0.03125 -0.109375,0.09375 0,0.03125 0.015625,0.046875 0.046875,0.078125 0.015625,0.015625 1.125,0.53125 1.28125,0.59375 L 0.96875,-0.296875 C 0.921875,-0.203125 0.921875,-0.1875 0.921875,-0.1875 c 0,0.0625 0.046875,0.109375 0.09375,0.109375 0.0625,0 0.203125,-0.171875 0.46875,-0.484375 0.1875,-0.1875 0.375,-0.375 0.546875,-0.5625 0.34375,0.34375 0.84375,0.890625 0.921875,0.96875 0.0625,0.0625 0.0625,0.078125 0.109375,0.078125 0.046875,0 0.09375,-0.046875 0.09375,-0.109375 0,-0.015625 -0.09375,-0.171875 -0.140625,-0.265625 L 2.46875,-1.4375 Z m 0,0"
           id="path149" />
      </symbol>
      <symbol
         overflow="visible"
         id="symbol1820">
        <path
           style="stroke:none"
           d="m 2.265625,-4.359375 c 0,-0.109375 -0.09375,-0.265625 -0.28125,-0.265625 -0.1875,0 -0.390625,0.1875 -0.390625,0.390625 0,0.109375 0.078125,0.265625 0.28125,0.265625 0.1875,0 0.390625,-0.203125 0.390625,-0.390625 z M 0.84375,-0.8125 c -0.03125,0.09375 -0.0625,0.171875 -0.0625,0.296875 0,0.328125 0.265625,0.578125 0.65625,0.578125 0.6875,0 1,-0.953125 1,-1.0625 0,-0.09375 -0.09375,-0.09375 -0.109375,-0.09375 -0.09375,0 -0.109375,0.046875 -0.140625,0.125 -0.15625,0.5625 -0.453125,0.84375 -0.734375,0.84375 -0.140625,0 -0.171875,-0.09375 -0.171875,-0.25 0,-0.15625 0.046875,-0.28125 0.109375,-0.4375 C 1.46875,-1 1.546875,-1.1875 1.609375,-1.375 1.671875,-1.546875 1.9375,-2.171875 1.953125,-2.265625 1.984375,-2.328125 2,-2.40625 2,-2.484375 2,-2.8125 1.71875,-3.078125 1.34375,-3.078125 0.640625,-3.078125 0.328125,-2.125 0.328125,-2 c 0,0.078125 0.09375,0.078125 0.125,0.078125 0.09375,0 0.09375,-0.03125 0.125,-0.109375 C 0.75,-2.625 1.0625,-2.875 1.3125,-2.875 c 0.109375,0 0.171875,0.046875 0.171875,0.234375 0,0.171875 -0.03125,0.265625 -0.203125,0.703125 z m 0,0"
           id="path9840" />
      </symbol>
    </g>
    <marker
       style="overflow:visible"
       id="Arrow1Mend-9-91"
       refX="0"
       refY="0"
       orient="auto"
       inkscape:stockid="Arrow1Mend"
       inkscape:isstock="true">
      <path
         transform="matrix(-0.4,0,0,-0.4,-4,0)"
         style="fill:context-stroke;fill-rule:evenodd;stroke:context-stroke;stroke-width:1pt"
         d="M 0,0 5,-5 -12.5,0 5,5 Z"
         id="path9589-3-2" />
    </marker>
    <marker
       style="overflow:visible"
       id="Arrow1Mend-9-91-0"
       refX="0"
       refY="0"
       orient="auto"
       inkscape:stockid="Arrow1Mend"
       inkscape:isstock="true">
      <path
         transform="matrix(-0.4,0,0,-0.4,-4,0)"
         style="fill:context-stroke;fill-rule:evenodd;stroke:context-stroke;stroke-width:1pt"
         d="M 0,0 5,-5 -12.5,0 5,5 Z"
         id="path9589-3-2-9" />
    </marker>
    <g
       id="g7478">
      <symbol
         overflow="visible"
         id="symbol5512">
        <path
           style="stroke:none"
           d=""
           id="path6784" />
      </symbol>
      <symbol
         overflow="visible"
         id="symbol7957">
        <path
           style="stroke:none"
           d="m 4.53125,-4.984375 c 0,-0.65625 -0.171875,-2.046875 -1.1875,-2.046875 -1.390625,0 -2.921875,2.8125 -2.921875,5.09375 0,0.9375 0.28125,2.046875 1.1875,2.046875 1.40625,0 2.921875,-2.859375 2.921875,-5.09375 z M 1.46875,-3.625 C 1.640625,-4.25 1.84375,-5.046875 2.25,-5.765625 2.515625,-6.25 2.875,-6.8125 3.328125,-6.8125 c 0.484375,0 0.546875,0.640625 0.546875,1.203125 0,0.5 -0.078125,1 -0.3125,1.984375 z m 2,0.328125 C 3.359375,-2.84375 3.15625,-2 2.765625,-1.28125 c -0.34375,0.6875 -0.71875,1.171875 -1.15625,1.171875 -0.328125,0 -0.53125,-0.296875 -0.53125,-1.21875 0,-0.421875 0.0625,-1 0.3125,-1.96875 z m 0,0"
           id="path1602" />
      </symbol>
      <symbol
         overflow="visible"
         id="symbol476">
        <path
           style="stroke:none"
           d=""
           id="path6798" />
      </symbol>
      <symbol
         overflow="visible"
         id="symbol366">
        <path
           style="stroke:none"
           d="m 2.265625,-4.359375 c 0,-0.109375 -0.09375,-0.265625 -0.28125,-0.265625 -0.1875,0 -0.390625,0.1875 -0.390625,0.390625 0,0.109375 0.078125,0.265625 0.28125,0.265625 0.1875,0 0.390625,-0.203125 0.390625,-0.390625 z M 0.84375,-0.8125 c -0.03125,0.09375 -0.0625,0.171875 -0.0625,0.296875 0,0.328125 0.265625,0.578125 0.65625,0.578125 0.6875,0 1,-0.953125 1,-1.0625 0,-0.09375 -0.09375,-0.09375 -0.109375,-0.09375 -0.09375,0 -0.109375,0.046875 -0.140625,0.125 -0.15625,0.5625 -0.453125,0.84375 -0.734375,0.84375 -0.140625,0 -0.171875,-0.09375 -0.171875,-0.25 0,-0.15625 0.046875,-0.28125 0.109375,-0.4375 C 1.46875,-1 1.546875,-1.1875 1.609375,-1.375 1.671875,-1.546875 1.9375,-2.171875 1.953125,-2.265625 1.984375,-2.328125 2,-2.40625 2,-2.484375 2,-2.8125 1.71875,-3.078125 1.34375,-3.078125 0.640625,-3.078125 0.328125,-2.125 0.328125,-2 c 0,0.078125 0.09375,0.078125 0.125,0.078125 0.09375,0 0.09375,-0.03125 0.125,-0.109375 C 0.75,-2.625 1.0625,-2.875 1.3125,-2.875 c 0.109375,0 0.171875,0.046875 0.171875,0.234375 0,0.171875 -0.03125,0.265625 -0.203125,0.703125 z m 0,0"
           id="path6448" />
      </symbol>
      <symbol
         overflow="visible"
         id="symbol6915">
        <path
           style="stroke:none"
           d=""
           id="path9962" />
      </symbol>
      <symbol
         overflow="visible"
         id="symbol1690">
        <path
           style="stroke:none"
           d="m 6.5625,-2.296875 c 0.171875,0 0.359375,0 0.359375,-0.203125 0,-0.1875 -0.1875,-0.1875 -0.359375,-0.1875 H 1.171875 c -0.171875,0 -0.34375,0 -0.34375,0.1875 0,0.203125 0.171875,0.203125 0.34375,0.203125 z m 0,0"
           id="path1491" />
      </symbol>
    </g>
    <marker
       style="overflow:visible"
       refX="0"
       refY="0"
       orient="auto"
       inkscape:stockid="Arrow1Mend-9-95350860957153428"
       inkscape:isstock="true"
       id="Arrow1Mend-9-95350860957153428">
      <path
         transform="matrix(-0.4,0,0,-0.4,-4,0)"
         style="fill:#004a00;fill-rule:evenodd;stroke:#004a00;stroke-width:1pt"
         d="M 0,0 5,-5 -12.5,0 5,5 Z"
         id="path1867" />
    </marker>
    <marker
       style="overflow:visible"
       id="Arrow1Mend-9-3"
       refX="0"
       refY="0"
       orient="auto"
       inkscape:stockid="Arrow1Mend"
       inkscape:isstock="true">
      <path
         transform="matrix(-0.4,0,0,-0.4,-4,0)"
         style="fill:context-stroke;fill-rule:evenodd;stroke:context-stroke;stroke-width:1pt"
         d="M 0,0 5,-5 -12.5,0 5,5 Z"
         id="path9589-3-6" />
    </marker>
    <g
       id="g956">
      <symbol
         overflow="visible"
         id="symbol8850">
        <path
           style="stroke:none;"
           d=""
           id="path4918" />
      </symbol>
      <symbol
         overflow="visible"
         id="symbol2656">
        <path
           style="stroke:none;"
           d="M 1.796875 -0.921875 C 2.328125 -1.765625 2.5 -2.40625 2.625 -2.9375 C 2.984375 -4.3125 3.359375 -5.5 3.984375 -6.1875 C 4.09375 -6.3125 4.171875 -6.40625 4.5 -6.40625 C 5.1875 -6.40625 5.203125 -5.71875 5.203125 -5.578125 C 5.203125 -5.40625 5.15625 -5.265625 5.15625 -5.21875 C 5.15625 -5.140625 5.21875 -5.140625 5.21875 -5.140625 C 5.390625 -5.140625 5.65625 -5.25 5.90625 -5.4375 C 6.078125 -5.578125 6.171875 -5.671875 6.171875 -6.078125 C 6.171875 -6.625 5.890625 -7.03125 5.328125 -7.03125 C 5.015625 -7.03125 4.140625 -6.953125 3.15625 -5.96875 C 2.359375 -5.140625 1.890625 -3.34375 1.703125 -2.609375 C 1.53125 -1.90625 1.453125 -1.609375 1.140625 -1 C 1.078125 -0.890625 0.8125 -0.453125 0.671875 -0.3125 C 0.40625 -0.0625 0.3125 0.109375 0.3125 0.15625 C 0.3125 0.171875 0.328125 0.21875 0.40625 0.21875 C 0.4375 0.21875 0.640625 0.171875 0.90625 0.015625 C 1.078125 -0.09375 1.09375 -0.109375 1.328125 -0.34375 C 1.828125 -0.34375 2.171875 -0.25 2.796875 -0.0625 C 3.3125 0.0625 3.8125 0.21875 4.328125 0.21875 C 5.140625 0.21875 5.953125 -0.390625 6.265625 -0.828125 C 6.46875 -1.09375 6.53125 -1.34375 6.53125 -1.375 C 6.53125 -1.453125 6.46875 -1.453125 6.453125 -1.453125 C 6.296875 -1.453125 6.0625 -1.328125 5.890625 -1.21875 C 5.625 -1.046875 5.609375 -0.984375 5.546875 -0.8125 C 5.5 -0.65625 5.4375 -0.578125 5.390625 -0.515625 C 5.3125 -0.40625 5.296875 -0.40625 5.15625 -0.40625 C 4.671875 -0.40625 4.171875 -0.546875 3.515625 -0.734375 C 3.234375 -0.8125 2.6875 -0.96875 2.1875 -0.96875 C 2.0625 -0.96875 1.921875 -0.953125 1.796875 -0.921875 Z M 1.796875 -0.921875 "
           id="path4135" />
      </symbol>
      <symbol
         overflow="visible"
         id="symbol2608">
        <path
           style="stroke:none;"
           d=""
           id="path7425" />
      </symbol>
      <symbol
         overflow="visible"
         id="symbol4167">
        <path
           style="stroke:none;"
           d="M 2.265625 -4.359375 C 2.265625 -4.46875 2.171875 -4.625 1.984375 -4.625 C 1.796875 -4.625 1.59375 -4.4375 1.59375 -4.234375 C 1.59375 -4.125 1.671875 -3.96875 1.875 -3.96875 C 2.0625 -3.96875 2.265625 -4.171875 2.265625 -4.359375 Z M 0.84375 -0.8125 C 0.8125 -0.71875 0.78125 -0.640625 0.78125 -0.515625 C 0.78125 -0.1875 1.046875 0.0625 1.4375 0.0625 C 2.125 0.0625 2.4375 -0.890625 2.4375 -1 C 2.4375 -1.09375 2.34375 -1.09375 2.328125 -1.09375 C 2.234375 -1.09375 2.21875 -1.046875 2.1875 -0.96875 C 2.03125 -0.40625 1.734375 -0.125 1.453125 -0.125 C 1.3125 -0.125 1.28125 -0.21875 1.28125 -0.375 C 1.28125 -0.53125 1.328125 -0.65625 1.390625 -0.8125 C 1.46875 -1 1.546875 -1.1875 1.609375 -1.375 C 1.671875 -1.546875 1.9375 -2.171875 1.953125 -2.265625 C 1.984375 -2.328125 2 -2.40625 2 -2.484375 C 2 -2.8125 1.71875 -3.078125 1.34375 -3.078125 C 0.640625 -3.078125 0.328125 -2.125 0.328125 -2 C 0.328125 -1.921875 0.421875 -1.921875 0.453125 -1.921875 C 0.546875 -1.921875 0.546875 -1.953125 0.578125 -2.03125 C 0.75 -2.625 1.0625 -2.875 1.3125 -2.875 C 1.421875 -2.875 1.484375 -2.828125 1.484375 -2.640625 C 1.484375 -2.46875 1.453125 -2.375 1.28125 -1.9375 Z M 0.84375 -0.8125 "
           id="path6003" />
      </symbol>
    </g>
    <g
       id="g2342">
      <symbol
         overflow="visible"
         id="symbol530">
        <path
           style="stroke:none;"
           d=""
           id="path6543" />
      </symbol>
      <symbol
         overflow="visible"
         id="symbol238">
        <path
           style="stroke:none;"
           d="M 7.78125 -6.59375 C 7.796875 -6.625 7.828125 -6.6875 7.828125 -6.734375 C 7.828125 -6.796875 7.8125 -6.8125 7.59375 -6.8125 L 0.703125 -6.8125 C 0.484375 -6.8125 0.46875 -6.796875 0.46875 -6.734375 C 0.46875 -6.6875 0.5 -6.625 0.515625 -6.59375 L 3.875 0.140625 C 3.953125 0.265625 3.984375 0.328125 4.140625 0.328125 C 4.3125 0.328125 4.34375 0.265625 4.421875 0.140625 Z M 1.703125 -6.09375 L 7.171875 -6.09375 L 4.453125 -0.609375 Z M 1.703125 -6.09375 "
           id="path1441" />
      </symbol>
      <symbol
         overflow="visible"
         id="symbol2687">
        <path
           style="stroke:none;"
           d="M 1.796875 -0.921875 C 2.328125 -1.765625 2.5 -2.40625 2.625 -2.9375 C 2.984375 -4.3125 3.359375 -5.5 3.984375 -6.1875 C 4.09375 -6.3125 4.171875 -6.40625 4.5 -6.40625 C 5.1875 -6.40625 5.203125 -5.71875 5.203125 -5.578125 C 5.203125 -5.40625 5.15625 -5.265625 5.15625 -5.21875 C 5.15625 -5.140625 5.21875 -5.140625 5.21875 -5.140625 C 5.390625 -5.140625 5.65625 -5.25 5.90625 -5.4375 C 6.078125 -5.578125 6.171875 -5.671875 6.171875 -6.078125 C 6.171875 -6.625 5.890625 -7.03125 5.328125 -7.03125 C 5.015625 -7.03125 4.140625 -6.953125 3.15625 -5.96875 C 2.359375 -5.140625 1.890625 -3.34375 1.703125 -2.609375 C 1.53125 -1.90625 1.453125 -1.609375 1.140625 -1 C 1.078125 -0.890625 0.8125 -0.453125 0.671875 -0.3125 C 0.40625 -0.0625 0.3125 0.109375 0.3125 0.15625 C 0.3125 0.171875 0.328125 0.21875 0.40625 0.21875 C 0.4375 0.21875 0.640625 0.171875 0.90625 0.015625 C 1.078125 -0.09375 1.09375 -0.109375 1.328125 -0.34375 C 1.828125 -0.34375 2.171875 -0.25 2.796875 -0.0625 C 3.3125 0.0625 3.8125 0.21875 4.328125 0.21875 C 5.140625 0.21875 5.953125 -0.390625 6.265625 -0.828125 C 6.46875 -1.09375 6.53125 -1.34375 6.53125 -1.375 C 6.53125 -1.453125 6.46875 -1.453125 6.453125 -1.453125 C 6.296875 -1.453125 6.0625 -1.328125 5.890625 -1.21875 C 5.625 -1.046875 5.609375 -0.984375 5.546875 -0.8125 C 5.5 -0.65625 5.4375 -0.578125 5.390625 -0.515625 C 5.3125 -0.40625 5.296875 -0.40625 5.15625 -0.40625 C 4.671875 -0.40625 4.171875 -0.546875 3.515625 -0.734375 C 3.234375 -0.8125 2.6875 -0.96875 2.1875 -0.96875 C 2.0625 -0.96875 1.921875 -0.953125 1.796875 -0.921875 Z M 1.796875 -0.921875 "
           id="path6746" />
      </symbol>
      <symbol
         overflow="visible"
         id="symbol397">
        <path
           style="stroke:none;"
           d=""
           id="path6442" />
      </symbol>
      <symbol
         overflow="visible"
         id="symbol6785">
        <path
           style="stroke:none;"
           d="M 2.265625 -4.359375 C 2.265625 -4.46875 2.171875 -4.625 1.984375 -4.625 C 1.796875 -4.625 1.59375 -4.4375 1.59375 -4.234375 C 1.59375 -4.125 1.671875 -3.96875 1.875 -3.96875 C 2.0625 -3.96875 2.265625 -4.171875 2.265625 -4.359375 Z M 0.84375 -0.8125 C 0.8125 -0.71875 0.78125 -0.640625 0.78125 -0.515625 C 0.78125 -0.1875 1.046875 0.0625 1.4375 0.0625 C 2.125 0.0625 2.4375 -0.890625 2.4375 -1 C 2.4375 -1.09375 2.34375 -1.09375 2.328125 -1.09375 C 2.234375 -1.09375 2.21875 -1.046875 2.1875 -0.96875 C 2.03125 -0.40625 1.734375 -0.125 1.453125 -0.125 C 1.3125 -0.125 1.28125 -0.21875 1.28125 -0.375 C 1.28125 -0.53125 1.328125 -0.65625 1.390625 -0.8125 C 1.46875 -1 1.546875 -1.1875 1.609375 -1.375 C 1.671875 -1.546875 1.9375 -2.171875 1.953125 -2.265625 C 1.984375 -2.328125 2 -2.40625 2 -2.484375 C 2 -2.8125 1.71875 -3.078125 1.34375 -3.078125 C 0.640625 -3.078125 0.328125 -2.125 0.328125 -2 C 0.328125 -1.921875 0.421875 -1.921875 0.453125 -1.921875 C 0.546875 -1.921875 0.546875 -1.953125 0.578125 -2.03125 C 0.75 -2.625 1.0625 -2.875 1.3125 -2.875 C 1.421875 -2.875 1.484375 -2.828125 1.484375 -2.640625 C 1.484375 -2.46875 1.453125 -2.375 1.28125 -1.9375 Z M 0.84375 -0.8125 "
           id="path3059" />
      </symbol>
    </g>
    <g
       id="g9436">
      <symbol
         overflow="visible"
         id="symbol5141">
        <path
           style="stroke:none;"
           d=""
           id="path1573" />
      </symbol>
      <symbol
         overflow="visible"
         id="symbol252">
        <path
           style="stroke:none;"
           d="M 1.796875 -0.921875 C 2.328125 -1.765625 2.5 -2.40625 2.625 -2.9375 C 2.984375 -4.3125 3.359375 -5.5 3.984375 -6.1875 C 4.09375 -6.3125 4.171875 -6.40625 4.5 -6.40625 C 5.1875 -6.40625 5.203125 -5.71875 5.203125 -5.578125 C 5.203125 -5.40625 5.15625 -5.265625 5.15625 -5.21875 C 5.15625 -5.140625 5.21875 -5.140625 5.21875 -5.140625 C 5.390625 -5.140625 5.65625 -5.25 5.90625 -5.4375 C 6.078125 -5.578125 6.171875 -5.671875 6.171875 -6.078125 C 6.171875 -6.625 5.890625 -7.03125 5.328125 -7.03125 C 5.015625 -7.03125 4.140625 -6.953125 3.15625 -5.96875 C 2.359375 -5.140625 1.890625 -3.34375 1.703125 -2.609375 C 1.53125 -1.90625 1.453125 -1.609375 1.140625 -1 C 1.078125 -0.890625 0.8125 -0.453125 0.671875 -0.3125 C 0.40625 -0.0625 0.3125 0.109375 0.3125 0.15625 C 0.3125 0.171875 0.328125 0.21875 0.40625 0.21875 C 0.4375 0.21875 0.640625 0.171875 0.90625 0.015625 C 1.078125 -0.09375 1.09375 -0.109375 1.328125 -0.34375 C 1.828125 -0.34375 2.171875 -0.25 2.796875 -0.0625 C 3.3125 0.0625 3.8125 0.21875 4.328125 0.21875 C 5.140625 0.21875 5.953125 -0.390625 6.265625 -0.828125 C 6.46875 -1.09375 6.53125 -1.34375 6.53125 -1.375 C 6.53125 -1.453125 6.46875 -1.453125 6.453125 -1.453125 C 6.296875 -1.453125 6.0625 -1.328125 5.890625 -1.21875 C 5.625 -1.046875 5.609375 -0.984375 5.546875 -0.8125 C 5.5 -0.65625 5.4375 -0.578125 5.390625 -0.515625 C 5.3125 -0.40625 5.296875 -0.40625 5.15625 -0.40625 C 4.671875 -0.40625 4.171875 -0.546875 3.515625 -0.734375 C 3.234375 -0.8125 2.6875 -0.96875 2.1875 -0.96875 C 2.0625 -0.96875 1.921875 -0.953125 1.796875 -0.921875 Z M 1.796875 -0.921875 "
           id="path7246" />
      </symbol>
      <symbol
         overflow="visible"
         id="symbol7138">
        <path
           style="stroke:none;"
           d="M 1.71875 -7.140625 C 1.71875 -7.296875 1.71875 -7.484375 1.515625 -7.484375 C 1.3125 -7.484375 1.3125 -7.25 1.3125 -7.109375 L 1.3125 2.125 C 1.3125 2.28125 1.3125 2.5 1.515625 2.5 C 1.71875 2.5 1.71875 2.3125 1.71875 2.15625 Z M 3.65625 -7.109375 C 3.65625 -7.265625 3.65625 -7.484375 3.453125 -7.484375 C 3.265625 -7.484375 3.265625 -7.296875 3.265625 -7.140625 L 3.265625 2.15625 C 3.265625 2.3125 3.265625 2.5 3.453125 2.5 C 3.65625 2.5 3.65625 2.265625 3.65625 2.125 Z M 3.65625 -7.109375 "
           id="path6894" />
      </symbol>
      <symbol
         overflow="visible"
         id="symbol6623">
        <path
           style="stroke:none;"
           d="M 7.78125 -6.59375 C 7.796875 -6.625 7.828125 -6.6875 7.828125 -6.734375 C 7.828125 -6.796875 7.8125 -6.8125 7.59375 -6.8125 L 0.703125 -6.8125 C 0.484375 -6.8125 0.46875 -6.796875 0.46875 -6.734375 C 0.46875 -6.6875 0.5 -6.625 0.515625 -6.59375 L 3.875 0.140625 C 3.953125 0.265625 3.984375 0.328125 4.140625 0.328125 C 4.3125 0.328125 4.34375 0.265625 4.421875 0.140625 Z M 1.703125 -6.09375 L 7.171875 -6.09375 L 4.453125 -0.609375 Z M 1.703125 -6.09375 "
           id="path8650" />
      </symbol>
      <symbol
         overflow="visible"
         id="symbol2191">
        <path
           style="stroke:none;"
           d=""
           id="path9490" />
      </symbol>
      <symbol
         overflow="visible"
         id="symbol3039">
        <path
           style="stroke:none;"
           d="M 2.265625 -4.359375 C 2.265625 -4.46875 2.171875 -4.625 1.984375 -4.625 C 1.796875 -4.625 1.59375 -4.4375 1.59375 -4.234375 C 1.59375 -4.125 1.671875 -3.96875 1.875 -3.96875 C 2.0625 -3.96875 2.265625 -4.171875 2.265625 -4.359375 Z M 0.84375 -0.8125 C 0.8125 -0.71875 0.78125 -0.640625 0.78125 -0.515625 C 0.78125 -0.1875 1.046875 0.0625 1.4375 0.0625 C 2.125 0.0625 2.4375 -0.890625 2.4375 -1 C 2.4375 -1.09375 2.34375 -1.09375 2.328125 -1.09375 C 2.234375 -1.09375 2.21875 -1.046875 2.1875 -0.96875 C 2.03125 -0.40625 1.734375 -0.125 1.453125 -0.125 C 1.3125 -0.125 1.28125 -0.21875 1.28125 -0.375 C 1.28125 -0.53125 1.328125 -0.65625 1.390625 -0.8125 C 1.46875 -1 1.546875 -1.1875 1.609375 -1.375 C 1.671875 -1.546875 1.9375 -2.171875 1.953125 -2.265625 C 1.984375 -2.328125 2 -2.40625 2 -2.484375 C 2 -2.8125 1.71875 -3.078125 1.34375 -3.078125 C 0.640625 -3.078125 0.328125 -2.125 0.328125 -2 C 0.328125 -1.921875 0.421875 -1.921875 0.453125 -1.921875 C 0.546875 -1.921875 0.546875 -1.953125 0.578125 -2.03125 C 0.75 -2.625 1.0625 -2.875 1.3125 -2.875 C 1.421875 -2.875 1.484375 -2.828125 1.484375 -2.640625 C 1.484375 -2.46875 1.453125 -2.375 1.28125 -1.9375 Z M 0.84375 -0.8125 "
           id="path3315" />
      </symbol>
    </g>
    <marker
       style="overflow:visible"
       refX="0"
       refY="0"
       orient="auto"
       inkscape:stockid="Arrow1Mend-96663"
       inkscape:isstock="true"
       id="Arrow1Mend-96663">
      <path
         transform="matrix(-0.4,0,0,-0.4,-4,0)"
         style="fill:#ffff00;fill-rule:evenodd;stroke:#ffff00;stroke-width:1pt"
         d="M 0,0 5,-5 -12.5,0 5,5 Z"
         id="path16350" />
    </marker>
    <marker
       style="overflow:visible"
       refX="0"
       refY="0"
       orient="auto"
       inkscape:stockid="Arrow1Mend-966635238"
       inkscape:isstock="true"
       id="Arrow1Mend-966635238">
      <path
         transform="matrix(-0.4,0,0,-0.4,-4,0)"
         style="fill:#ff9f00;fill-rule:evenodd;stroke:#ffff00;stroke-width:1pt"
         d="M 0,0 5,-5 -12.5,0 5,5 Z"
         id="path17234" />
    </marker>
    <marker
       style="overflow:visible"
       refX="0"
       refY="0"
       orient="auto"
       inkscape:stockid="Arrow1Mend-9666352384833"
       inkscape:isstock="true"
       id="Arrow1Mend-9666352384833">
      <path
         transform="matrix(-0.4,0,0,-0.4,-4,0)"
         style="fill:#ff9f00;fill-rule:evenodd;stroke:#ff9f00;stroke-width:1pt"
         d="M 0,0 5,-5 -12.5,0 5,5 Z"
         id="path17582" />
    </marker>
    <marker
       style="overflow:visible"
       refX="0"
       refY="0"
       orient="auto"
       inkscape:stockid="Arrow1Mend-9-36303"
       inkscape:isstock="true"
       id="Arrow1Mend-9-36303">
      <path
         transform="matrix(-0.4,0,0,-0.4,-4,0)"
         style="fill:#1f38c5;fill-rule:evenodd;stroke:#1f38c5;stroke-width:1pt"
         d="M 0,0 5,-5 -12.5,0 5,5 Z"
         id="path1313" />
    </marker>
  </defs>
  <g
     inkscape:label="Layer 1"
     inkscape:groupmode="layer"
     id="layer1"
     transform="translate(-35.4056, -67.6355)">
    <circle
       style="fill:#000000;fill-opacity:1;stroke-width:2"
       id="path874-9"
       cx="39.679256"
       cy="112.41261"
       r="4.2737002" />
    <circle
       style="fill:#000000;fill-opacity:1;stroke-width:2"
       id="path874-9-36"
       cx="108.4349"
       cy="135.38457"
       r="4.2737002" />
    <circle
       style="fill:#000000;fill-opacity:1;stroke-width:2"
       id="path874-1"
       cx="76.280602"
       cy="71.909248"
       r="4.2737002" />
    <circle
       style="fill:#ff0000;fill-opacity:1;stroke-width:2"
       id="path874-7-5"
       cx="71.625313"
       cy="102.75769"
       r="4.2737002" />
    <path
       style="fill:none;stroke:#1f38c5;stroke-width:1;stroke-linecap:butt;stroke-linejoin:miter;stroke-miterlimit:4;stroke-dasharray:none;stroke-opacity:1;marker-end:url(#Arrow1Mend-9-36303)"
       d="m 71.705754,102.79413 19.508264,38.48345"
       id="path9498-6-7"
       sodipodi:nodetypes="cc" />
    <path
       style="fill:none;fill-opacity:1;stroke:#004a00;stroke-width:1;stroke-linecap:butt;stroke-linejoin:miter;stroke-miterlimit:4;stroke-dasharray:none;stroke-opacity:1"
       d="m 71.705754,102.79413 36.944476,32.72014"
       id="path9498-6-8"
       sodipodi:nodetypes="cc" />
    <g
       inkscape:label=""
       transform="translate(4.029385,11.113025)"
       id="g2022"
       style="fill:#ff0000;fill-opacity:1">
      <g
         id="g9312"
         style="fill:#ff0000;fill-opacity:1">
        <g
           style="fill:#ff0000;fill-opacity:1"
           id="g935">
          <g
             id="use8885"
             style="fill:#ff0000;fill-opacity:1"
             transform="translate(91.925003,81.962997)">
            <path
               style="stroke:none"
               d="m 4.53125,-4.984375 c 0,-0.65625 -0.171875,-2.046875 -1.1875,-2.046875 -1.390625,0 -2.921875,2.8125 -2.921875,5.09375 0,0.9375 0.28125,2.046875 1.1875,2.046875 1.40625,0 2.921875,-2.859375 2.921875,-5.09375 z M 1.46875,-3.625 C 1.640625,-4.25 1.84375,-5.046875 2.25,-5.765625 2.515625,-6.25 2.875,-6.8125 3.328125,-6.8125 c 0.484375,0 0.546875,0.640625 0.546875,1.203125 0,0.5 -0.078125,1 -0.3125,1.984375 z m 2,0.328125 C 3.359375,-2.84375 3.15625,-2 2.765625,-1.28125 c -0.34375,0.6875 -0.71875,1.171875 -1.15625,1.171875 -0.328125,0 -0.53125,-0.296875 -0.53125,-1.21875 0,-0.421875 0.0625,-1 0.3125,-1.96875 z m 0,0"
               id="path9498" />
          </g>
        </g>
      </g>
    </g>
    <text
       xml:space="preserve"
       style="font-size:7.05556px;line-height:1.25;font-family:'Noto Sans CJK JP';-inkscape-font-specification:'Noto Sans CJK JP';stroke-width:0.264583"
       x="45.782143"
       y="91.743462"
       id="text4400"><tspan
         sodipodi:role="line"
         id="tspan4398"
         style="fill:#ff0000;fill-opacity:1;stroke-width:0.264583"
         x="45.782143"
         y="91.743462">共通パラメータ</tspan></text>
    <g
       inkscape:label=""
       transform="translate(14.370346,45.9015)"
       id="g1166">
      <g
         id="g1141">
        <g
           style="fill:#000000;fill-opacity:1"
           id="g9249">
          <use
             xlink:href="#symbol5262"
             x="91.925003"
             y="81.962997"
             id="use9283"
             width="100%"
             height="100%" />
        </g>
        <g
           style="fill:#000000;fill-opacity:1"
           id="g6565">
          <use
             xlink:href="#symbol5811"
             x="96.878998"
             y="77.848999"
             id="use9070"
             width="100%"
             height="100%" />
        </g>
        <g
           style="fill:#000000;fill-opacity:1"
           id="g2516">
          <use
             xlink:href="#symbol1820"
             x="96.601997"
             y="84.426003"
             id="use8156"
             width="100%"
             height="100%" />
        </g>
      </g>
    </g>
    <g
       inkscape:label=""
       transform="translate(-1.0758759,32.74537)"
       id="g7509"
       style="fill:#004a00;fill-opacity:1">
      <g
         id="g9735"
         style="fill:#004a00;fill-opacity:1">
        <g
           style="fill:#004a00;fill-opacity:1"
           id="g6945">
          <use
             xlink:href="#symbol2656"
             x="91.925003"
             y="81.962997"
             id="use4174"
             width="100%"
             height="100%"
             style="fill:#004a00;fill-opacity:1" />
        </g>
        <g
           style="fill:#004a00;fill-opacity:1"
           id="g9534">
          <use
             xlink:href="#symbol4167"
             x="98.796997"
             y="83.457001"
             id="use1266"
             width="100%"
             height="100%"
             style="fill:#004a00;fill-opacity:1" />
        </g>
      </g>
    </g>
    <g
       inkscape:label=""
       transform="translate(-35.49889,32.379677)"
       id="g7798"
       style="stroke-width:1;stroke-miterlimit:4;stroke-dasharray:none;fill:#ff9f00;fill-opacity:1">
      <g
         id="g3505"
         style="stroke-width:1;stroke-miterlimit:4;stroke-dasharray:none;fill:#ff9f00;fill-opacity:1">
        <g
           style="fill:#ff9f00;fill-opacity:1;stroke-width:1;stroke-miterlimit:4;stroke-dasharray:none"
           id="g9474">
          <use
             xlink:href="#symbol238"
             x="91.925003"
             y="81.962997"
             id="use301"
             width="100%"
             height="100%"
             style="stroke-width:1;stroke-miterlimit:4;stroke-dasharray:none;fill:#ff9f00;fill-opacity:1" />
          <use
             xlink:href="#symbol2687"
             x="100.22684"
             y="81.962997"
             id="use9294"
             width="100%"
             height="100%"
             style="stroke-width:1;stroke-miterlimit:4;stroke-dasharray:none;fill:#ff9f00;fill-opacity:1" />
        </g>
        <g
           style="fill:#ff9f00;fill-opacity:1;stroke-width:1;stroke-miterlimit:4;stroke-dasharray:none"
           id="g5604">
          <use
             xlink:href="#symbol6785"
             x="107.099"
             y="83.457001"
             id="use2035"
             width="100%"
             height="100%"
             style="stroke-width:1;stroke-miterlimit:4;stroke-dasharray:none;fill:#ff9f00;fill-opacity:1" />
        </g>
      </g>
    </g>
    <g
       inkscape:label=""
       transform="translate(-56.265223,47.230467)"
       id="g9634"
       style="fill:#1f38c5;fill-opacity:1;stroke:#1f38c5;stroke-opacity:1">
      <g
         id="g4908"
         style="fill:#1f38c5;fill-opacity:1;stroke:#1f38c5;stroke-opacity:1">
        <g
           style="fill:#1f38c5;fill-opacity:1;stroke:#1f38c5;stroke-opacity:1"
           id="g5308">
          <use
             xlink:href="#symbol252"
             x="102.253"
             y="78.807999"
             id="use7175"
             width="100%"
             height="100%"
             style="fill:#1f38c5;fill-opacity:1;stroke:#1f38c5;stroke-opacity:1" />
        </g>
        <g
           style="fill:#1f38c5;fill-opacity:1;stroke:#1f38c5;stroke-opacity:1"
           id="g7797">
          <use
             xlink:href="#symbol3039"
             x="109.125"
             y="80.302002"
             id="use3879"
             width="100%"
             height="100%"
             style="fill:#1f38c5;fill-opacity:1;stroke:#1f38c5;stroke-opacity:1" />
        </g>
        <path
           style="fill:#1f38c5;stroke:#1f38c5;stroke-width:0.398;stroke-linecap:butt;stroke-linejoin:miter;stroke-miterlimit:10;stroke-opacity:1;fill-opacity:1"
           d="M 9.375e-5,-0.00159375 H 28.453219"
           transform="matrix(1,0,0,-1,93.121,83.057)"
           id="path5296" />
        <g
           style="fill:#1f38c5;fill-opacity:1;stroke:#1f38c5;stroke-opacity:1"
           id="g3338">
          <use
             xlink:href="#symbol7138"
             x="93.121002"
             y="92.382004"
             id="use6095"
             width="100%"
             height="100%"
             style="fill:#1f38c5;fill-opacity:1;stroke:#1f38c5;stroke-opacity:1" />
          <use
             xlink:href="#symbol6623"
             x="98.102303"
             y="92.382004"
             id="use1942"
             width="100%"
             height="100%"
             style="fill:#1f38c5;fill-opacity:1;stroke:#1f38c5;stroke-opacity:1" />
          <use
             xlink:href="#symbol252"
             x="106.40414"
             y="92.382004"
             id="use3586"
             width="100%"
             height="100%"
             style="fill:#1f38c5;fill-opacity:1;stroke:#1f38c5;stroke-opacity:1" />
        </g>
        <g
           style="fill:#1f38c5;fill-opacity:1;stroke:#1f38c5;stroke-opacity:1"
           id="g1451">
          <use
             xlink:href="#symbol3039"
             x="113.276"
             y="93.875999"
             id="use2528"
             width="100%"
             height="100%"
             style="fill:#1f38c5;fill-opacity:1;stroke:#1f38c5;stroke-opacity:1" />
        </g>
        <g
           style="fill:#1f38c5;fill-opacity:1;stroke:#1f38c5;stroke-opacity:1"
           id="g2309">
          <use
             xlink:href="#symbol7138"
             x="116.593"
             y="92.382004"
             id="use3998"
             width="100%"
             height="100%"
             style="fill:#1f38c5;fill-opacity:1;stroke:#1f38c5;stroke-opacity:1" />
        </g>
        <g
           style="fill:#1f38c5;fill-opacity:1;stroke:#1f38c5;stroke-opacity:1"
           id="g8509">
          <use
             xlink:href="#symbol6623"
             x="122.77"
             y="85.547997"
             id="use513"
             width="100%"
             height="100%"
             style="fill:#1f38c5;fill-opacity:1;stroke:#1f38c5;stroke-opacity:1" />
          <use
             xlink:href="#symbol252"
             x="131.07184"
             y="85.547997"
             id="use868"
             width="100%"
             height="100%"
             style="fill:#1f38c5;fill-opacity:1;stroke:#1f38c5;stroke-opacity:1" />
        </g>
        <g
           style="fill:#1f38c5;fill-opacity:1;stroke:#1f38c5;stroke-opacity:1"
           id="g6732">
          <use
             xlink:href="#symbol3039"
             x="137.94299"
             y="87.042"
             id="use7197"
             width="100%"
             height="100%"
             style="fill:#1f38c5;fill-opacity:1;stroke:#1f38c5;stroke-opacity:1" />
        </g>
      </g>
    </g>
    <text
       xml:space="preserve"
       transform="matrix(0.26458333,0,0,0.26458333,35.4056,67.6355)"
       id="text11937"
       style="line-height:1.25;font-family:'Noto Sans CJK JP';font-size:26.66666667px;-inkscape-font-specification:'Noto Sans CJK JP';white-space:pre;shape-inside:url(#rect11939)" />
    <path
       style="fill:none;stroke:#ff9f00;stroke-width:1;stroke-linecap:butt;stroke-linejoin:miter;stroke-miterlimit:4;stroke-dasharray:none;stroke-opacity:1;marker-end:url(#Arrow1Mend-9666352384833)"
       d="m 71.705754,102.79413 4.999364,9.76917"
       id="path9498-6"
       sodipodi:nodetypes="cc" />
  </g>
</svg>
