<?xml version="1.0" encoding="UTF-8" standalone="no"?>
<!-- Created with Inkscape (http://www.inkscape.org/) -->

<svg
   width="59.021038mm"
   height="34.803581mm"
   viewBox="0 0 59.021038 34.803581"
   version="1.1"
   id="svg23087"
   inkscape:version="1.1.2 (0a00cf5339, 2022-02-04)"
   sodipodi:docname="MAML.svg"
   xmlns:inkscape="http://www.inkscape.org/namespaces/inkscape"
   xmlns:sodipodi="http://sodipodi.sourceforge.net/DTD/sodipodi-0.dtd"
   xmlns="http://www.w3.org/2000/svg"
   xmlns:svg="http://www.w3.org/2000/svg">
  <sodipodi:namedview
     id="namedview23089"
     pagecolor="#ffffff"
     bordercolor="#999999"
     borderopacity="1"
     inkscape:pageshadow="0"
     inkscape:pageopacity="0"
     inkscape:pagecheckerboard="0"
     inkscape:document-units="mm"
     showgrid="false"
     inkscape:zoom="2.2948373"
     inkscape:cx="-7.4079327"
     inkscape:cy="64.710471"
     inkscape:window-width="1920"
     inkscape:window-height="1007"
     inkscape:window-x="0"
     inkscape:window-y="0"
     inkscape:window-maximized="1"
     inkscape:current-layer="layer1" />
  <defs
     id="defs23084">
    <clipPath
       id="clip1">
      <rect
         x="0"
         y="0"
         width="177"
         height="116"
         id="rect730" />
    </clipPath>
    <clipPath
       id="clip2">
      <path
         d="M 0.691406,10 H 115 V 93 H 0.691406 Z m 0,0"
         id="path724" />
    </clipPath>
    <clipPath
       id="clip3">
      <path
         d="m 57,0.835938 h 55 V 28 H 57 Z m 0,0"
         id="path727" />
    </clipPath>
    <clipPath
       id="clipPath22892">
      <rect
         x="0"
         y="0"
         width="177"
         height="116"
         id="rect22890" />
    </clipPath>
    <clipPath
       id="clipPath22896">
      <path
         d="M 0.691406,10 H 115 V 93 H 0.691406 Z m 0,0"
         id="path22894" />
    </clipPath>
    <clipPath
       id="clipPath22900">
      <path
         d="m 57,0.835938 h 55 V 28 H 57 Z m 0,0"
         id="path22898" />
    </clipPath>
  </defs>
  <g
     inkscape:label="Layer 1"
     inkscape:groupmode="layer"
     id="layer1"
     transform="translate(-304.38389,-131.55939)">
    <g
       id="use6740"
       clip-path="url(#clip1)"
       transform="matrix(0.35277777,0,0,0.35277777,302.03311,130.50805)">
      <path
         style="fill:#575454;fill-opacity:1;fill-rule:nonzero;stroke:none"
         d="m 77.796875,94.179688 c 0.351563,0.679687 0.09375,1.511718 -0.570313,1.851562 -0.664062,0.34375 -1.488281,0.06641 -1.839843,-0.613281 -0.347657,-0.679688 -0.09375,-1.511719 0.574219,-1.851563 0.664062,-0.34375 1.488281,-0.06641 1.835937,0.613282"
         id="path23570" />
      <path
         style="fill:none;stroke:#575454;stroke-width:1;stroke-linecap:butt;stroke-linejoin:miter;stroke-miterlimit:10;stroke-opacity:1"
         d="M 0.00187282,-5.64053e-4 7.392297,16.742854"
         transform="matrix(0.9514,0,0,-0.9514,61.591968,61.499463)"
         id="path23572" />
      <path
         style="fill:#575454;fill-opacity:1;fill-rule:nonzero;stroke:none"
         d="m 65.875,58.164062 -0.582031,-0.558593 -3.667969,3.820312 0.351562,-5.285156 -0.804687,-0.05469 -0.503906,7.503906 z m 0,0"
         id="path23574" />
      <g
         style="fill:#211e1e;fill-opacity:1"
         id="g23612">
        <g
           id="g23578"
           transform="translate(94.710869,9.7301741)">
          <path
             style="stroke:none"
             d="m 0.6875,0 h 0.828125 v -2.78125 c 0,-0.140625 0.015625,-0.28125 0.0625,-0.40625 0.140625,-0.421875 0.515625,-0.84375 1.03125,-0.84375 0.640625,0 0.96875,0.53125 0.96875,1.265625 V 0 h 0.8125 v -2.84375 c 0,-0.15625 0.03125,-0.3125 0.078125,-0.421875 0.140625,-0.40625 0.515625,-0.765625 0.984375,-0.765625 0.671875,0 1,0.53125 1,1.421875 V 0 h 0.8125 v -2.71875 c 0,-1.59375 -0.90625,-1.984375 -1.515625,-1.984375 -0.4375,0 -0.734375,0.109375 -1.015625,0.3125 C 4.546875,-4.25 4.375,-4.046875 4.21875,-3.78125 H 4.203125 C 4,-4.328125 3.53125,-4.703125 2.90625,-4.703125 c -0.765625,0 -1.1875,0.40625 -1.453125,0.84375 h -0.03125 l -0.03125,-0.75 H 0.65625 c 0.03125,0.390625 0.03125,0.78125 0.03125,1.25 z m 0,0"
             id="path23576" />
        </g>
        <g
           id="g23582"
           transform="translate(102.64555,9.7301741)">
          <path
             style="stroke:none"
             d="m 4.390625,-2.15625 c 0.015625,-0.078125 0.03125,-0.21875 0.03125,-0.390625 0,-0.84375 -0.390625,-2.15625 -1.90625,-2.15625 -1.328125,0 -2.15625,1.09375 -2.15625,2.46875 0,1.390625 0.84375,2.328125 2.265625,2.328125 0.734375,0 1.234375,-0.15625 1.53125,-0.28125 L 4.015625,-0.796875 c -0.3125,0.140625 -0.671875,0.25 -1.28125,0.25 -0.828125,0 -1.546875,-0.46875 -1.578125,-1.609375 z M 1.171875,-2.75 c 0.0625,-0.578125 0.4375,-1.359375 1.28125,-1.359375 0.9375,0 1.171875,0.828125 1.15625,1.359375 z m 0,0"
             id="path23580" />
        </g>
        <g
           id="g23586"
           transform="translate(107.41206,9.7301741)">
          <path
             style="stroke:none"
             d="m 0.890625,-5.703125 v 1.09375 h -0.71875 v 0.640625 h 0.71875 v 2.515625 c 0,0.546875 0.078125,0.953125 0.3125,1.203125 0.203125,0.21875 0.515625,0.34375 0.90625,0.34375 0.328125,0 0.578125,-0.046875 0.75,-0.109375 L 2.8125,-0.640625 C 2.71875,-0.625 2.546875,-0.59375 2.328125,-0.59375 c -0.46875,0 -0.625,-0.3125 -0.625,-0.890625 V -3.96875 H 2.90625 V -4.609375 H 1.703125 v -1.3125 z m 0,0"
             id="path23584" />
        </g>
        <g
           id="g23590"
           transform="translate(110.5612,9.7301741)">
          <path
             style="stroke:none"
             d="M 4,0 C 3.953125,-0.3125 3.9375,-0.703125 3.9375,-1.109375 v -1.71875 c 0,-0.921875 -0.34375,-1.875 -1.765625,-1.875 -0.578125,0 -1.125,0.15625 -1.5,0.40625 L 0.859375,-3.75 C 1.1875,-3.953125 1.625,-4.09375 2.0625,-4.09375 c 0.9375,0 1.046875,0.6875 1.046875,1.0625 v 0.09375 c -1.78125,0 -2.78125,0.609375 -2.78125,1.71875 0,0.671875 0.484375,1.328125 1.40625,1.328125 0.65625,0 1.15625,-0.328125 1.421875,-0.6875 H 3.171875 L 3.25,0 Z M 3.125,-1.546875 c 0,0.078125 -0.015625,0.171875 -0.046875,0.265625 -0.140625,0.390625 -0.515625,0.765625 -1.125,0.765625 -0.421875,0 -0.78125,-0.25 -0.78125,-0.796875 0,-0.890625 1.03125,-1.0625 1.953125,-1.03125 z m 0,0"
             id="path23588" />
        </g>
        <g
           id="g23594"
           transform="translate(115.14694,9.7301741)">
          <path
             style="stroke:none"
             d="m 0.28125,-2.890625 v 0.625 h 2.359375 v -0.625 z m 0,0"
             id="path23592" />
        </g>
        <g
           id="g23598"
           transform="translate(118.06774,9.7301741)">
          <path
             style="stroke:none"
             d="M 0.6875,0 H 1.53125 V -6.75 H 0.6875 Z m 0,0"
             id="path23596" />
        </g>
        <g
           id="g23602"
           transform="translate(120.31304,9.7301741)">
          <path
             style="stroke:none"
             d="m 4.390625,-2.15625 c 0.015625,-0.078125 0.03125,-0.21875 0.03125,-0.390625 0,-0.84375 -0.390625,-2.15625 -1.90625,-2.15625 -1.328125,0 -2.15625,1.09375 -2.15625,2.46875 0,1.390625 0.84375,2.328125 2.265625,2.328125 0.734375,0 1.234375,-0.15625 1.53125,-0.28125 L 4.015625,-0.796875 c -0.3125,0.140625 -0.671875,0.25 -1.28125,0.25 -0.828125,0 -1.546875,-0.46875 -1.578125,-1.609375 z M 1.171875,-2.75 c 0.0625,-0.578125 0.4375,-1.359375 1.28125,-1.359375 0.9375,0 1.171875,0.828125 1.15625,1.359375 z m 0,0"
             id="path23600" />
        </g>
        <g
           id="g23606"
           transform="translate(125.07956,9.7301741)">
          <path
             style="stroke:none"
             d="M 4,0 C 3.953125,-0.3125 3.9375,-0.703125 3.9375,-1.109375 v -1.71875 c 0,-0.921875 -0.34375,-1.875 -1.765625,-1.875 -0.578125,0 -1.125,0.15625 -1.5,0.40625 L 0.859375,-3.75 C 1.1875,-3.953125 1.625,-4.09375 2.0625,-4.09375 c 0.9375,0 1.046875,0.6875 1.046875,1.0625 v 0.09375 c -1.78125,0 -2.78125,0.609375 -2.78125,1.71875 0,0.671875 0.484375,1.328125 1.40625,1.328125 0.65625,0 1.15625,-0.328125 1.421875,-0.6875 H 3.171875 L 3.25,0 Z M 3.125,-1.546875 c 0,0.078125 -0.015625,0.171875 -0.046875,0.265625 -0.140625,0.390625 -0.515625,0.765625 -1.125,0.765625 -0.421875,0 -0.78125,-0.25 -0.78125,-0.796875 0,-0.890625 1.03125,-1.0625 1.953125,-1.03125 z m 0,0"
             id="path23604" />
        </g>
        <g
           id="g23610"
           transform="translate(129.6653,9.7301741)">
          <path
             style="stroke:none"
             d="m 0.6875,0 h 0.828125 v -2.453125 c 0,-0.140625 0.03125,-0.28125 0.046875,-0.390625 0.109375,-0.625 0.53125,-1.078125 1.125,-1.078125 0.109375,0 0.203125,0.015625 0.28125,0.03125 V -4.6875 C 2.890625,-4.703125 2.828125,-4.703125 2.734375,-4.703125 c -0.5625,0 -1.0625,0.390625 -1.28125,1 h -0.03125 l -0.03125,-0.90625 H 0.65625 c 0.03125,0.4375 0.03125,0.890625 0.03125,1.4375 z m 0,0"
             id="path23608" />
        </g>
      </g>
      <g
         style="fill:#211e1e;fill-opacity:1"
         id="g23630">
        <g
           id="g23616"
           transform="translate(132.81444,9.7301741)">
          <path
             style="stroke:none"
             d="m 0.6875,0 h 0.84375 v -2.765625 c 0,-0.140625 0.015625,-0.28125 0.0625,-0.390625 0.140625,-0.46875 0.5625,-0.859375 1.125,-0.859375 0.78125,0 1.0625,0.625 1.0625,1.359375 V 0 h 0.828125 v -2.75 c 0,-1.578125 -0.984375,-1.953125 -1.625,-1.953125 -0.75,0 -1.296875,0.421875 -1.515625,0.859375 H 1.453125 L 1.40625,-4.609375 h -0.75 c 0.03125,0.390625 0.03125,0.78125 0.03125,1.25 z m 0,0"
             id="path23614" />
        </g>
        <g
           id="g23620"
           transform="translate(138.09471,9.7301741)">
          <path
             style="stroke:none"
             d="M 1.53125,0 V -4.609375 H 0.6875 V 0 Z M 1.109375,-6.421875 c -0.296875,0 -0.515625,0.234375 -0.515625,0.515625 0,0.296875 0.203125,0.515625 0.5,0.515625 0.328125,0 0.546875,-0.21875 0.53125,-0.515625 0,-0.28125 -0.203125,-0.515625 -0.515625,-0.515625 z m 0,0"
             id="path23618" />
        </g>
        <g
           id="g23624"
           transform="translate(140.32098,9.7301741)">
          <path
             style="stroke:none"
             d="m 0.6875,0 h 0.84375 v -2.765625 c 0,-0.140625 0.015625,-0.28125 0.0625,-0.390625 0.140625,-0.46875 0.5625,-0.859375 1.125,-0.859375 0.78125,0 1.0625,0.625 1.0625,1.359375 V 0 h 0.828125 v -2.75 c 0,-1.578125 -0.984375,-1.953125 -1.625,-1.953125 -0.75,0 -1.296875,0.421875 -1.515625,0.859375 H 1.453125 L 1.40625,-4.609375 h -0.75 c 0.03125,0.390625 0.03125,0.78125 0.03125,1.25 z m 0,0"
             id="path23622" />
        </g>
        <g
           id="g23628"
           transform="translate(145.60126,9.7301741)">
          <path
             style="stroke:none"
             d="M 3.9375,-4.609375 3.890625,-3.90625 H 3.875 C 3.671875,-4.296875 3.234375,-4.703125 2.4375,-4.703125 c -1.0625,0 -2.078125,0.875 -2.078125,2.4375 0,1.28125 0.828125,2.25 1.96875,2.25 0.703125,0 1.203125,-0.34375 1.453125,-0.78125 H 3.8125 v 0.515625 c 0,1.171875 -0.640625,1.609375 -1.484375,1.609375 C 1.75,1.328125 1.28125,1.15625 0.96875,0.96875 L 0.765625,1.609375 c 0.359375,0.25 0.96875,0.375 1.53125,0.375 0.578125,0 1.21875,-0.125 1.671875,-0.546875 C 4.421875,1.03125 4.625,0.390625 4.625,-0.671875 V -3.34375 c 0,-0.5625 0.015625,-0.921875 0.03125,-1.265625 z m -0.140625,2.65625 c 0,0.140625 -0.015625,0.296875 -0.0625,0.4375 -0.1875,0.53125 -0.65625,0.859375 -1.171875,0.859375 -0.890625,0 -1.359375,-0.75 -1.359375,-1.65625 0,-1.0625 0.578125,-1.734375 1.375,-1.734375 0.609375,0 1.015625,0.390625 1.171875,0.875 0.03125,0.125 0.046875,0.234375 0.046875,0.390625 z m 0,0"
             id="path23626" />
        </g>
      </g>
      <g
         style="fill:#211e1e;fill-opacity:1"
         id="g23648">
        <g
           id="g23634"
           transform="translate(94.997528,19.790468)">
          <path
             style="stroke:none"
             d="M 0.6875,0 H 1.53125 V -6.75 H 0.6875 Z m 0,0"
             id="path23632" />
        </g>
        <g
           id="g23638"
           transform="translate(97.242828,19.790468)">
          <path
             style="stroke:none"
             d="m 4.390625,-2.15625 c 0.015625,-0.078125 0.03125,-0.21875 0.03125,-0.390625 0,-0.84375 -0.390625,-2.15625 -1.90625,-2.15625 -1.328125,0 -2.15625,1.09375 -2.15625,2.46875 0,1.390625 0.84375,2.328125 2.265625,2.328125 0.734375,0 1.234375,-0.15625 1.53125,-0.28125 L 4.015625,-0.796875 c -0.3125,0.140625 -0.671875,0.25 -1.28125,0.25 -0.828125,0 -1.546875,-0.46875 -1.578125,-1.609375 z M 1.171875,-2.75 c 0.0625,-0.578125 0.4375,-1.359375 1.28125,-1.359375 0.9375,0 1.171875,0.828125 1.15625,1.359375 z m 0,0"
             id="path23636" />
        </g>
        <g
           id="g23642"
           transform="translate(102.00935,19.790468)">
          <path
             style="stroke:none"
             d="M 4,0 C 3.953125,-0.3125 3.9375,-0.703125 3.9375,-1.109375 v -1.71875 c 0,-0.921875 -0.34375,-1.875 -1.765625,-1.875 -0.578125,0 -1.125,0.15625 -1.5,0.40625 L 0.859375,-3.75 C 1.1875,-3.953125 1.625,-4.09375 2.0625,-4.09375 c 0.9375,0 1.046875,0.6875 1.046875,1.0625 v 0.09375 c -1.78125,0 -2.78125,0.609375 -2.78125,1.71875 0,0.671875 0.484375,1.328125 1.40625,1.328125 0.65625,0 1.15625,-0.328125 1.421875,-0.6875 H 3.171875 L 3.25,0 Z M 3.125,-1.546875 c 0,0.078125 -0.015625,0.171875 -0.046875,0.265625 -0.140625,0.390625 -0.515625,0.765625 -1.125,0.765625 -0.421875,0 -0.78125,-0.25 -0.78125,-0.796875 0,-0.890625 1.03125,-1.0625 1.953125,-1.03125 z m 0,0"
             id="path23640" />
        </g>
        <g
           id="g23646"
           transform="translate(106.59509,19.790468)">
          <path
             style="stroke:none"
             d="m 0.6875,0 h 0.828125 v -2.453125 c 0,-0.140625 0.03125,-0.28125 0.046875,-0.390625 0.109375,-0.625 0.53125,-1.078125 1.125,-1.078125 0.109375,0 0.203125,0.015625 0.28125,0.03125 V -4.6875 C 2.890625,-4.703125 2.828125,-4.703125 2.734375,-4.703125 c -0.5625,0 -1.0625,0.390625 -1.28125,1 h -0.03125 l -0.03125,-0.90625 H 0.65625 c 0.03125,0.4375 0.03125,0.890625 0.03125,1.4375 z m 0,0"
             id="path23644" />
        </g>
      </g>
      <g
         style="fill:#211e1e;fill-opacity:1"
         id="g23694">
        <g
           id="g23652"
           transform="translate(109.74327,19.790468)">
          <path
             style="stroke:none"
             d="m 0.6875,0 h 0.84375 v -2.765625 c 0,-0.140625 0.015625,-0.28125 0.0625,-0.390625 0.140625,-0.46875 0.5625,-0.859375 1.125,-0.859375 0.78125,0 1.0625,0.625 1.0625,1.359375 V 0 h 0.828125 v -2.75 c 0,-1.578125 -0.984375,-1.953125 -1.625,-1.953125 -0.75,0 -1.296875,0.421875 -1.515625,0.859375 H 1.453125 L 1.40625,-4.609375 h -0.75 c 0.03125,0.390625 0.03125,0.78125 0.03125,1.25 z m 0,0"
             id="path23650" />
        </g>
        <g
           id="g23656"
           transform="translate(115.02354,19.790468)">
          <path
             style="stroke:none"
             d="M 1.53125,0 V -4.609375 H 0.6875 V 0 Z M 1.109375,-6.421875 c -0.296875,0 -0.515625,0.234375 -0.515625,0.515625 0,0.296875 0.203125,0.515625 0.5,0.515625 0.328125,0 0.546875,-0.21875 0.53125,-0.515625 0,-0.28125 -0.203125,-0.515625 -0.515625,-0.515625 z m 0,0"
             id="path23654" />
        </g>
        <g
           id="g23660"
           transform="translate(117.24982,19.790468)">
          <path
             style="stroke:none"
             d="m 0.6875,0 h 0.84375 v -2.765625 c 0,-0.140625 0.015625,-0.28125 0.0625,-0.390625 0.140625,-0.46875 0.5625,-0.859375 1.125,-0.859375 0.78125,0 1.0625,0.625 1.0625,1.359375 V 0 h 0.828125 v -2.75 c 0,-1.578125 -0.984375,-1.953125 -1.625,-1.953125 -0.75,0 -1.296875,0.421875 -1.515625,0.859375 H 1.453125 L 1.40625,-4.609375 h -0.75 c 0.03125,0.390625 0.03125,0.78125 0.03125,1.25 z m 0,0"
             id="path23658" />
        </g>
        <g
           id="g23664"
           transform="translate(122.53009,19.790468)">
          <path
             style="stroke:none"
             d="M 3.9375,-4.609375 3.890625,-3.90625 H 3.875 C 3.671875,-4.296875 3.234375,-4.703125 2.4375,-4.703125 c -1.0625,0 -2.078125,0.875 -2.078125,2.4375 0,1.28125 0.828125,2.25 1.96875,2.25 0.703125,0 1.203125,-0.34375 1.453125,-0.78125 H 3.8125 v 0.515625 c 0,1.171875 -0.640625,1.609375 -1.484375,1.609375 C 1.75,1.328125 1.28125,1.15625 0.96875,0.96875 L 0.765625,1.609375 c 0.359375,0.25 0.96875,0.375 1.53125,0.375 0.578125,0 1.21875,-0.125 1.671875,-0.546875 C 4.421875,1.03125 4.625,0.390625 4.625,-0.671875 V -3.34375 c 0,-0.5625 0.015625,-0.921875 0.03125,-1.265625 z m -0.140625,2.65625 c 0,0.140625 -0.015625,0.296875 -0.0625,0.4375 -0.1875,0.53125 -0.65625,0.859375 -1.171875,0.859375 -0.890625,0 -1.359375,-0.75 -1.359375,-1.65625 0,-1.0625 0.578125,-1.734375 1.375,-1.734375 0.609375,0 1.015625,0.390625 1.171875,0.875 0.03125,0.125 0.046875,0.234375 0.046875,0.390625 z m 0,0"
             id="path23662" />
        </g>
        <g
           id="g23668"
           transform="translate(127.84842,19.790468)">
          <path
             style="stroke:none"
             d="M 0.625,0.375 3.296875,-6.515625 H 2.640625 L -0.015625,0.375 Z m 0,0"
             id="path23666" />
        </g>
        <g
           id="g23672"
           transform="translate(131.11172,19.790468)">
          <path
             style="stroke:none"
             d="M 4,0 C 3.953125,-0.3125 3.9375,-0.703125 3.9375,-1.109375 v -1.71875 c 0,-0.921875 -0.34375,-1.875 -1.765625,-1.875 -0.578125,0 -1.125,0.15625 -1.5,0.40625 L 0.859375,-3.75 C 1.1875,-3.953125 1.625,-4.09375 2.0625,-4.09375 c 0.9375,0 1.046875,0.6875 1.046875,1.0625 v 0.09375 c -1.78125,0 -2.78125,0.609375 -2.78125,1.71875 0,0.671875 0.484375,1.328125 1.40625,1.328125 0.65625,0 1.15625,-0.328125 1.421875,-0.6875 H 3.171875 L 3.25,0 Z M 3.125,-1.546875 c 0,0.078125 -0.015625,0.171875 -0.046875,0.265625 -0.140625,0.390625 -0.515625,0.765625 -1.125,0.765625 -0.421875,0 -0.78125,-0.25 -0.78125,-0.796875 0,-0.890625 1.03125,-1.0625 1.953125,-1.03125 z m 0,0"
             id="path23670" />
        </g>
        <g
           id="g23676"
           transform="translate(135.69746,19.790468)">
          <path
             style="stroke:none"
             d="M 3.828125,-6.75 V -4 H 3.8125 C 3.609375,-4.375 3.125,-4.703125 2.421875,-4.703125 c -1.125,0 -2.0625,0.9375 -2.0625,2.46875 0,1.390625 0.859375,2.34375 1.96875,2.34375 0.75,0 1.3125,-0.390625 1.578125,-0.90625 H 3.921875 L 3.953125,0 h 0.75 C 4.6875,-0.3125 4.671875,-0.78125 4.671875,-1.1875 V -6.75 Z m 0,4.8125 c 0,0.140625 0,0.25 -0.03125,0.375 -0.15625,0.625 -0.671875,0.984375 -1.234375,0.984375 -0.890625,0 -1.359375,-0.765625 -1.359375,-1.703125 0,-1.015625 0.515625,-1.765625 1.390625,-1.765625 0.625,0 1.078125,0.4375 1.203125,0.96875 0.03125,0.09375 0.03125,0.25 0.03125,0.34375 z m 0,0"
             id="path23674" />
        </g>
        <g
           id="g23680"
           transform="translate(141.06335,19.790468)">
          <path
             style="stroke:none"
             d="M 4,0 C 3.953125,-0.3125 3.9375,-0.703125 3.9375,-1.109375 v -1.71875 c 0,-0.921875 -0.34375,-1.875 -1.765625,-1.875 -0.578125,0 -1.125,0.15625 -1.5,0.40625 L 0.859375,-3.75 C 1.1875,-3.953125 1.625,-4.09375 2.0625,-4.09375 c 0.9375,0 1.046875,0.6875 1.046875,1.0625 v 0.09375 c -1.78125,0 -2.78125,0.609375 -2.78125,1.71875 0,0.671875 0.484375,1.328125 1.40625,1.328125 0.65625,0 1.15625,-0.328125 1.421875,-0.6875 H 3.171875 L 3.25,0 Z M 3.125,-1.546875 c 0,0.078125 -0.015625,0.171875 -0.046875,0.265625 -0.140625,0.390625 -0.515625,0.765625 -1.125,0.765625 -0.421875,0 -0.78125,-0.25 -0.78125,-0.796875 0,-0.890625 1.03125,-1.0625 1.953125,-1.03125 z m 0,0"
             id="path23678" />
        </g>
        <g
           id="g23684"
           transform="translate(145.64911,19.790468)">
          <path
             style="stroke:none"
             d="M 0.6875,1.890625 H 1.515625 V -0.625 h 0.03125 c 0.265625,0.46875 0.796875,0.734375 1.40625,0.734375 1.09375,0 2.09375,-0.828125 2.09375,-2.484375 0,-1.390625 -0.828125,-2.328125 -1.9375,-2.328125 C 2.34375,-4.703125 1.8125,-4.375 1.46875,-3.8125 H 1.453125 L 1.40625,-4.609375 h -0.75 c 0.015625,0.4375 0.03125,0.921875 0.03125,1.5 z m 0.828125,-4.5625 c 0,-0.109375 0.03125,-0.234375 0.0625,-0.328125 0.15625,-0.640625 0.703125,-1.046875 1.265625,-1.046875 0.890625,0 1.375,0.796875 1.375,1.71875 0,1.046875 -0.515625,1.78125 -1.40625,1.78125 -0.59375,0 -1.09375,-0.40625 -1.25,-0.984375 C 1.546875,-1.640625 1.515625,-1.75 1.515625,-1.875 Z m 0,0"
             id="path23682" />
        </g>
        <g
           id="g23688"
           transform="translate(151.06258,19.790468)">
          <path
             style="stroke:none"
             d="m 0.890625,-5.703125 v 1.09375 h -0.71875 v 0.640625 h 0.71875 v 2.515625 c 0,0.546875 0.078125,0.953125 0.3125,1.203125 0.203125,0.21875 0.515625,0.34375 0.90625,0.34375 0.328125,0 0.578125,-0.046875 0.75,-0.109375 L 2.8125,-0.640625 C 2.71875,-0.625 2.546875,-0.59375 2.328125,-0.59375 c -0.46875,0 -0.625,-0.3125 -0.625,-0.890625 V -3.96875 H 2.90625 V -4.609375 H 1.703125 v -1.3125 z m 0,0"
             id="path23686" />
        </g>
        <g
           id="g23692"
           transform="translate(154.21172,19.790468)">
          <path
             style="stroke:none"
             d="M 4,0 C 3.953125,-0.3125 3.9375,-0.703125 3.9375,-1.109375 v -1.71875 c 0,-0.921875 -0.34375,-1.875 -1.765625,-1.875 -0.578125,0 -1.125,0.15625 -1.5,0.40625 L 0.859375,-3.75 C 1.1875,-3.953125 1.625,-4.09375 2.0625,-4.09375 c 0.9375,0 1.046875,0.6875 1.046875,1.0625 v 0.09375 c -1.78125,0 -2.78125,0.609375 -2.78125,1.71875 0,0.671875 0.484375,1.328125 1.40625,1.328125 0.65625,0 1.15625,-0.328125 1.421875,-0.6875 H 3.171875 L 3.25,0 Z M 3.125,-1.546875 c 0,0.078125 -0.015625,0.171875 -0.046875,0.265625 -0.140625,0.390625 -0.515625,0.765625 -1.125,0.765625 -0.421875,0 -0.78125,-0.25 -0.78125,-0.796875 0,-0.890625 1.03125,-1.0625 1.953125,-1.03125 z m 0,0"
             id="path23690" />
        </g>
      </g>
      <g
         style="fill:#211e1e;fill-opacity:1"
         id="g23712">
        <g
           id="g23698"
           transform="translate(158.7594,19.790468)">
          <path
             style="stroke:none"
             d="m 0.890625,-5.703125 v 1.09375 h -0.71875 v 0.640625 h 0.71875 v 2.515625 c 0,0.546875 0.078125,0.953125 0.3125,1.203125 0.203125,0.21875 0.515625,0.34375 0.90625,0.34375 0.328125,0 0.578125,-0.046875 0.75,-0.109375 L 2.8125,-0.640625 C 2.71875,-0.625 2.546875,-0.59375 2.328125,-0.59375 c -0.46875,0 -0.625,-0.3125 -0.625,-0.890625 V -3.96875 H 2.90625 V -4.609375 H 1.703125 v -1.3125 z m 0,0"
             id="path23696" />
        </g>
        <g
           id="g23702"
           transform="translate(161.90854,19.790468)">
          <path
             style="stroke:none"
             d="M 1.53125,0 V -4.609375 H 0.6875 V 0 Z M 1.109375,-6.421875 c -0.296875,0 -0.515625,0.234375 -0.515625,0.515625 0,0.296875 0.203125,0.515625 0.5,0.515625 0.328125,0 0.546875,-0.21875 0.53125,-0.515625 0,-0.28125 -0.203125,-0.515625 -0.515625,-0.515625 z m 0,0"
             id="path23700" />
        </g>
        <g
           id="g23706"
           transform="translate(164.13481,19.790468)">
          <path
             style="stroke:none"
             d="m 2.640625,-4.703125 c -1.265625,0 -2.28125,0.890625 -2.28125,2.4375 0,1.453125 0.96875,2.375 2.203125,2.375 1.125,0 2.296875,-0.75 2.296875,-2.453125 0,-1.40625 -0.890625,-2.359375 -2.21875,-2.359375 z m -0.015625,0.625 c 0.984375,0 1.375,0.984375 1.375,1.765625 0,1.03125 -0.59375,1.796875 -1.390625,1.796875 -0.828125,0 -1.40625,-0.765625 -1.40625,-1.78125 0,-0.875 0.4375,-1.78125 1.421875,-1.78125 z m 0,0"
             id="path23704" />
        </g>
        <g
           id="g23710"
           transform="translate(169.358,19.790468)">
          <path
             style="stroke:none"
             d="m 0.6875,0 h 0.84375 v -2.765625 c 0,-0.140625 0.015625,-0.28125 0.0625,-0.390625 0.140625,-0.46875 0.5625,-0.859375 1.125,-0.859375 0.78125,0 1.0625,0.625 1.0625,1.359375 V 0 h 0.828125 v -2.75 c 0,-1.578125 -0.984375,-1.953125 -1.625,-1.953125 -0.75,0 -1.296875,0.421875 -1.515625,0.859375 H 1.453125 L 1.40625,-4.609375 h -0.75 c 0.03125,0.390625 0.03125,0.78125 0.03125,1.25 z m 0,0"
             id="path23708" />
        </g>
      </g>
      <g
         clip-path="url(#clip2)"
         clip-rule="nonzero"
         id="g23716">
        <path
           style="fill:none;stroke:#383335;stroke-width:1.5;stroke-linecap:butt;stroke-linejoin:miter;stroke-miterlimit:10;stroke-opacity:1"
           d="M 0.00175549,-0.00165892 C -26.640725,36.946358 -67.177204,53.238139 -92.111676,36.429029"
           transform="matrix(0.9514,0,0,-0.9514,94.697549,72.084359)"
           id="path23714" />
      </g>
      <path
         style="fill:#383335;fill-opacity:1;fill-rule:nonzero;stroke:none"
         d="m 93.222656,62.671875 -1.367187,0.410156 2.664062,8.957031 -7.800781,-5.148437 -0.785156,1.191406 11.070312,7.308594 z m 0,0"
         id="path23718" />
      <path
         style="fill:none;stroke:#575454;stroke-width:1;stroke-linecap:butt;stroke-linejoin:miter;stroke-miterlimit:10;stroke-opacity:1"
         d="M -7.965e-4,-0.00161107 -13.517062,-13.312587"
         transform="matrix(0.9514,0,0,-0.9514,81.512477,32.932061)"
         id="path23720" />
      <path
         style="fill:#575454;fill-opacity:1;fill-rule:nonzero;stroke:none"
         d="m 76.300781,34.453125 0.335938,0.734375 4.820312,-2.199219 -2.277343,4.78125 0.730468,0.347657 3.230469,-6.789063 z m 0,0"
         id="path23722" />
      <path
         style="fill:none;stroke:#575454;stroke-width:1;stroke-linecap:butt;stroke-linejoin:miter;stroke-miterlimit:10;stroke-opacity:1"
         d="M -0.00124211,8.12298e-4 -18.333601,6.9396"
         transform="matrix(0.9514,0,0,-0.9514,86.001182,52.141398)"
         id="path23724" />
      <path
         style="fill:#575454;fill-opacity:1;fill-rule:nonzero;stroke:none"
         d="m 82.441406,48.042969 -0.527344,0.613281 4.011719,3.457031 -5.296875,-0.06641 -0.0078,0.808594 7.515625,0.09375 z m 0,0"
         id="path23726" />
      <path
         style="fill:none;stroke:#575454;stroke-width:1;stroke-linecap:butt;stroke-linejoin:miter;stroke-miterlimit:10;stroke-opacity:1"
         d="M 0.0015162,-9.19256e-4 -1.349289,-0.65374"
         transform="matrix(0.9514,0,0,-0.9514,122.93215,62.413188)"
         id="path23728" />
      <path
         style="fill:none;stroke:#575454;stroke-width:1;stroke-linecap:butt;stroke-linejoin:miter;stroke-miterlimit:10;stroke-dasharray:2.805, 0.935;stroke-opacity:1"
         d="M -7.64452e-5,-0.00141925 -23.136211,-11.222547"
         transform="matrix(0.9514,0,0,-0.9514,120.84773,63.424431)"
         id="path23730" />
      <path
         style="fill:none;stroke:#575454;stroke-width:1;stroke-linecap:butt;stroke-linejoin:miter;stroke-miterlimit:10;stroke-opacity:1"
         d="M -0.00110787,6.63107e-4 -1.351913,-0.656264"
         transform="matrix(0.9514,0,0,-0.9514,98.434648,74.297506)"
         id="path23732" />
      <path
         style="fill:none;stroke:#575454;stroke-width:1;stroke-linecap:butt;stroke-linejoin:miter;stroke-miterlimit:10;stroke-opacity:1"
         d="M 0.00175683,0.0012919 -0.958998,1.155019"
         transform="matrix(0.9514,0,0,-0.9514,113.8538,95.255135)"
         id="path23734" />
      <path
         style="fill:none;stroke:#575454;stroke-width:1;stroke-linecap:butt;stroke-linejoin:miter;stroke-miterlimit:10;stroke-dasharray:2.872, 0.957;stroke-opacity:1"
         d="M 3.87009e-5,1.5597e-4 -14.382549,17.301961"
         transform="matrix(0.9514,0,0,-0.9514,112.35934,93.45718)"
         id="path23736" />
      <path
         style="fill:none;stroke:#575454;stroke-width:1;stroke-linecap:butt;stroke-linejoin:miter;stroke-miterlimit:10;stroke-opacity:1"
         d="M 0.00162263,7.82436e-4 -0.959133,1.15451"
         transform="matrix(0.9514,0,0,-0.9514,98.385175,76.645276)"
         id="path23738" />
      <path
         style="fill:none;stroke:#575454;stroke-width:1;stroke-linecap:butt;stroke-linejoin:miter;stroke-miterlimit:10;stroke-opacity:1"
         d="M 6.12045e-4,0.0019695 1.076329,1.044841"
         transform="matrix(0.9514,0,0,-0.9514,76.593168,94.798749)"
         id="path23740" />
      <path
         style="fill:none;stroke:#575454;stroke-width:1;stroke-linecap:butt;stroke-linejoin:miter;stroke-miterlimit:10;stroke-dasharray:3.204, 1.068;stroke-opacity:1"
         d="M -0.00129338,0.00189458 17.994391,17.496672"
         transform="matrix(0.9514,0,0,-0.9514,78.344981,93.095553)"
         id="path23742" />
      <path
         style="fill:none;stroke:#575454;stroke-width:1;stroke-linecap:butt;stroke-linejoin:miter;stroke-miterlimit:10;stroke-opacity:1"
         d="M 0.00133501,0.00109903 1.077052,1.04397"
         transform="matrix(0.9514,0,0,-0.9514,95.830761,76.094796)"
         id="path23744" />
      <path
         style="fill:#0f0c0c;fill-opacity:1;fill-rule:nonzero;stroke:none"
         d="m 98.210938,74.773438 c 0.347656,0.679687 0.09375,1.511718 -0.574219,1.851562 -0.664063,0.34375 -1.488281,0.06641 -1.835938,-0.613281 -0.351562,-0.683594 -0.09375,-1.511719 0.570313,-1.851563 0.664062,-0.34375 1.488281,-0.06641 1.839844,0.613282"
         id="path23746" />
      <path
         style="fill:#575454;fill-opacity:1;fill-rule:nonzero;stroke:none"
         d="m 115.05859,94.636719 c 0.35157,0.679687 0.0937,1.511719 -0.57031,1.851562 -0.66797,0.34375 -1.48828,0.06641 -1.83984,-0.613281 -0.34766,-0.683594 -0.0937,-1.511719 0.57422,-1.851562 0.66406,-0.34375 1.48437,-0.07031 1.83593,0.613281"
         id="path23748" />
      <path
         style="fill:#575454;fill-opacity:1;fill-rule:nonzero;stroke:none"
         d="m 124.13672,61.792969 c 0.35156,0.683593 0.0937,1.511719 -0.57031,1.855469 -0.66407,0.339843 -1.48828,0.06641 -1.83985,-0.617188 -0.34765,-0.679688 -0.0937,-1.507812 0.57422,-1.851562 0.66406,-0.339844 1.48828,-0.06641 1.83594,0.613281"
         id="path23750" />
      <g
         clip-path="url(#clip3)"
         clip-rule="nonzero"
         id="g23754">
        <path
           style="fill:none;stroke:#0f0f0c;stroke-width:1.5;stroke-linecap:butt;stroke-linejoin:miter;stroke-miterlimit:10;stroke-opacity:1"
           d="M 0.00123468,0.00143616 -13.933822,0.00964774"
           transform="matrix(0.9514,0,0,-0.9514,91.041794,7.407616)"
           id="path23752" />
      </g>
      <path
         style="fill:none;stroke:#575454;stroke-width:1;stroke-linecap:butt;stroke-linejoin:miter;stroke-miterlimit:10;stroke-dasharray:3, 1;stroke-opacity:1"
         d="M 0.00103468,0.00195981 -13.934022,0.0101714"
         transform="matrix(0.9514,0,0,-0.9514,91.041984,16.76749)"
         id="path23756" />
    </g>
    <g
       id="use6742"
       style="fill:#000000;fill-opacity:1"
       transform="matrix(0.35277777,0,0,0.35277777,317.96138,140.96755)">
      <path
         style="stroke:none"
         d="m 9.15625,-10.390625 c 0,-2.109375 -0.671875,-4.15625 -2.359375,-4.15625 -2.890625,0 -5.96875,6.0625 -5.96875,10.59375 0,0.953125 0.203125,4.15625 2.375,4.15625 2.8125,0 5.953125,-5.90625 5.953125,-10.59375 z m -6.265625,2.90625 c 0.3125,-1.21875 0.75,-2.953125 1.578125,-4.40625 0.671875,-1.25 1.390625,-2.234375 2.3125,-2.234375 0.671875,0 1.125,0.578125 1.125,2.5625 0,0.734375 -0.0625,1.765625 -0.65625,4.078125 z m 4.21875,0.625 c -0.515625,2.03125 -0.953125,3.328125 -1.703125,4.625 -0.59375,1.0625 -1.3125,2.03125 -2.1875,2.03125 -0.640625,0 -1.15625,-0.5 -1.15625,-2.546875 0,-1.34375 0.328125,-2.75 0.671875,-4.109375 z m 0,0"
         id="path23454" />
    </g>
    <g
       id="use6746"
       style="fill:#000000;fill-opacity:1"
       transform="matrix(0.35277777,0,0,0.35277777,315.89763,154.58865)">
      <path
         style="stroke:none"
         d="m 9.328125,-7.90625 c 0.015625,-0.03125 0.0625,-0.109375 0.0625,-0.15625 0,-0.09375 -0.015625,-0.09375 -0.296875,-0.09375 h -8.25 c -0.265625,0 -0.28125,0 -0.28125,0.09375 0,0.046875 0.03125,0.125 0.0625,0.15625 l 4.03125,8.078125 c 0.078125,0.15625 0.109375,0.21875 0.3125,0.21875 0.203125,0 0.25,-0.0625 0.328125,-0.21875 z m -7.28125,0.609375 h 6.5625 l -3.28125,6.5625 z m 0,0"
         id="path23442" />
    </g>
    <g
       id="use6748"
       style="fill:#000000;fill-opacity:1"
       transform="matrix(0.35277777,0,0,0.35277777,319.4121,154.58865)">
      <path
         style="stroke:none"
         d="m 2.15625,-1.109375 c 0.640625,-1 0.84375,-1.765625 1,-2.40625 0.421875,-1.640625 0.875,-3.078125 1.609375,-3.90625 0.140625,-0.15625 0.25,-0.265625 0.625,-0.265625 0.828125,0 0.84375,0.828125 0.84375,1 0,0.203125 -0.046875,0.375 -0.046875,0.4375 0,0.078125 0.0625,0.078125 0.078125,0.078125 0.1875,0 0.515625,-0.125 0.8125,-0.34375 0.21875,-0.171875 0.328125,-0.28125 0.328125,-0.78125 0,-0.640625 -0.34375,-1.125 -1.015625,-1.125 -0.375,0 -1.4375,0.09375 -2.59375,1.28125 -0.96875,0.96875 -1.53125,3.125 -1.75,4.015625 C 1.828125,-2.296875 1.734375,-1.921875 1.375,-1.203125 1.296875,-1.0625 0.984375,-0.53125 0.8125,-0.375 0.484375,-0.078125 0.375,0.125 0.375,0.1875 c 0,0.03125 0.015625,0.078125 0.109375,0.078125 0.046875,0 0.296875,-0.046875 0.609375,-0.25 0.203125,-0.125 0.21875,-0.140625 0.5,-0.4375 0.59375,0.015625 1.015625,0.125 1.765625,0.34375 0.609375,0.15625 1.21875,0.34375 1.828125,0.34375 0.96875,0 1.953125,-0.734375 2.328125,-1.25 0.234375,-0.328125 0.3125,-0.625 0.3125,-0.671875 0,-0.078125 -0.078125,-0.078125 -0.078125,-0.078125 -0.203125,0 -0.484375,0.125 -0.6875,0.28125 C 6.734375,-1.25 6.71875,-1.1875 6.640625,-0.984375 6.59375,-0.78125 6.515625,-0.6875 6.46875,-0.625 6.375,-0.484375 6.359375,-0.484375 6.1875,-0.484375 5.609375,-0.484375 5.015625,-0.65625 4.21875,-0.875 3.890625,-0.96875 3.234375,-1.15625 2.625,-1.15625 c -0.15625,0 -0.3125,0.015625 -0.46875,0.046875 z m 0,0"
         id="path23430" />
    </g>
    <g
       id="use6752"
       style="fill:#000000;fill-opacity:1"
       transform="matrix(0.35277777,0,0,0.35277777,322.32101,155.22118)">
      <path
         style="stroke:none"
         d="m 2.5,-5.078125 c 0,-0.21875 -0.015625,-0.21875 -0.234375,-0.21875 -0.328125,0.3125 -0.75,0.5 -1.5,0.5 v 0.265625 c 0.21875,0 0.640625,0 1.109375,-0.203125 v 4.078125 c 0,0.296875 -0.03125,0.390625 -0.78125,0.390625 H 0.8125 V 0 c 0.328125,-0.03125 1.015625,-0.03125 1.375,-0.03125 0.359375,0 1.046875,0 1.375,0.03125 V -0.265625 H 3.28125 c -0.75,0 -0.78125,-0.09375 -0.78125,-0.390625 z m 0,0"
         id="path23422" />
    </g>
    <g
       id="use6756"
       style="fill:#000000;fill-opacity:1"
       transform="matrix(0.35277777,0,0,0.35277777,333.23278,150.46151)">
      <path
         style="stroke:none"
         d="m 9.328125,-7.90625 c 0.015625,-0.03125 0.0625,-0.109375 0.0625,-0.15625 0,-0.09375 -0.015625,-0.09375 -0.296875,-0.09375 h -8.25 c -0.265625,0 -0.28125,0 -0.28125,0.09375 0,0.046875 0.03125,0.125 0.0625,0.15625 l 4.03125,8.078125 c 0.078125,0.15625 0.109375,0.21875 0.3125,0.21875 0.203125,0 0.25,-0.0625 0.328125,-0.21875 z m -7.28125,0.609375 h 6.5625 l -3.28125,6.5625 z m 0,0"
         id="path23446" />
    </g>
    <g
       id="use6758"
       style="fill:#000000;fill-opacity:1"
       transform="matrix(0.35277777,0,0,0.35277777,336.74725,150.46151)">
      <path
         style="stroke:none"
         d="m 2.15625,-1.109375 c 0.640625,-1 0.84375,-1.765625 1,-2.40625 0.421875,-1.640625 0.875,-3.078125 1.609375,-3.90625 0.140625,-0.15625 0.25,-0.265625 0.625,-0.265625 0.828125,0 0.84375,0.828125 0.84375,1 0,0.203125 -0.046875,0.375 -0.046875,0.4375 0,0.078125 0.0625,0.078125 0.078125,0.078125 0.1875,0 0.515625,-0.125 0.8125,-0.34375 0.21875,-0.171875 0.328125,-0.28125 0.328125,-0.78125 0,-0.640625 -0.34375,-1.125 -1.015625,-1.125 -0.375,0 -1.4375,0.09375 -2.59375,1.28125 -0.96875,0.96875 -1.53125,3.125 -1.75,4.015625 C 1.828125,-2.296875 1.734375,-1.921875 1.375,-1.203125 1.296875,-1.0625 0.984375,-0.53125 0.8125,-0.375 0.484375,-0.078125 0.375,0.125 0.375,0.1875 c 0,0.03125 0.015625,0.078125 0.109375,0.078125 0.046875,0 0.296875,-0.046875 0.609375,-0.25 0.203125,-0.125 0.21875,-0.140625 0.5,-0.4375 0.59375,0.015625 1.015625,0.125 1.765625,0.34375 0.609375,0.15625 1.21875,0.34375 1.828125,0.34375 0.96875,0 1.953125,-0.734375 2.328125,-1.25 0.234375,-0.328125 0.3125,-0.625 0.3125,-0.671875 0,-0.078125 -0.078125,-0.078125 -0.078125,-0.078125 -0.203125,0 -0.484375,0.125 -0.6875,0.28125 C 6.734375,-1.25 6.71875,-1.1875 6.640625,-0.984375 6.59375,-0.78125 6.515625,-0.6875 6.46875,-0.625 6.375,-0.484375 6.359375,-0.484375 6.1875,-0.484375 5.609375,-0.484375 5.015625,-0.65625 4.21875,-0.875 3.890625,-0.96875 3.234375,-1.15625 2.625,-1.15625 c -0.15625,0 -0.3125,0.015625 -0.46875,0.046875 z m 0,0"
         id="path23434" />
    </g>
    <g
       id="use6762"
       style="fill:#000000;fill-opacity:1"
       transform="matrix(0.35277777,0,0,0.35277777,339.6565,151.09404)">
      <path
         style="stroke:none"
         d="m 2.25,-1.625 c 0.125,-0.125 0.453125,-0.390625 0.59375,-0.5 0.484375,-0.453125 0.953125,-0.890625 0.953125,-1.609375 0,-0.953125 -0.796875,-1.5625 -1.78125,-1.5625 -0.96875,0 -1.59375,0.71875 -1.59375,1.4375 0,0.390625 0.3125,0.4375 0.421875,0.4375 0.171875,0 0.421875,-0.109375 0.421875,-0.421875 0,-0.40625 -0.40625,-0.40625 -0.5,-0.40625 C 1,-4.84375 1.53125,-5.03125 1.921875,-5.03125 c 0.734375,0 1.125,0.625 1.125,1.296875 0,0.828125 -0.578125,1.4375 -1.53125,2.390625 l -1,1.046875 C 0.421875,-0.21875 0.421875,-0.203125 0.421875,0 H 3.5625 l 0.234375,-1.421875 h -0.25 C 3.53125,-1.265625 3.46875,-0.875 3.375,-0.71875 c -0.046875,0.0625 -0.65625,0.0625 -0.78125,0.0625 H 1.171875 Z m 0,0"
         id="path23414" />
    </g>
    <g
       id="use6766"
       style="fill:#000000;fill-opacity:1"
       transform="matrix(0.35277777,0,0,0.35277777,331.58213,144.26991)">
      <path
         style="stroke:none"
         d="m 9.328125,-7.90625 c 0.015625,-0.03125 0.0625,-0.109375 0.0625,-0.15625 0,-0.09375 -0.015625,-0.09375 -0.296875,-0.09375 h -8.25 c -0.265625,0 -0.28125,0 -0.28125,0.09375 0,0.046875 0.03125,0.125 0.0625,0.15625 l 4.03125,8.078125 c 0.078125,0.15625 0.109375,0.21875 0.3125,0.21875 0.203125,0 0.25,-0.0625 0.328125,-0.21875 z m -7.28125,0.609375 h 6.5625 l -3.28125,6.5625 z m 0,0"
         id="path23450" />
    </g>
    <g
       id="use6768"
       style="fill:#000000;fill-opacity:1"
       transform="matrix(0.35277777,0,0,0.35277777,335.0966,144.26991)">
      <path
         style="stroke:none"
         d="m 2.15625,-1.109375 c 0.640625,-1 0.84375,-1.765625 1,-2.40625 0.421875,-1.640625 0.875,-3.078125 1.609375,-3.90625 0.140625,-0.15625 0.25,-0.265625 0.625,-0.265625 0.828125,0 0.84375,0.828125 0.84375,1 0,0.203125 -0.046875,0.375 -0.046875,0.4375 0,0.078125 0.0625,0.078125 0.078125,0.078125 0.1875,0 0.515625,-0.125 0.8125,-0.34375 0.21875,-0.171875 0.328125,-0.28125 0.328125,-0.78125 0,-0.640625 -0.34375,-1.125 -1.015625,-1.125 -0.375,0 -1.4375,0.09375 -2.59375,1.28125 -0.96875,0.96875 -1.53125,3.125 -1.75,4.015625 C 1.828125,-2.296875 1.734375,-1.921875 1.375,-1.203125 1.296875,-1.0625 0.984375,-0.53125 0.8125,-0.375 0.484375,-0.078125 0.375,0.125 0.375,0.1875 c 0,0.03125 0.015625,0.078125 0.109375,0.078125 0.046875,0 0.296875,-0.046875 0.609375,-0.25 0.203125,-0.125 0.21875,-0.140625 0.5,-0.4375 0.59375,0.015625 1.015625,0.125 1.765625,0.34375 0.609375,0.15625 1.21875,0.34375 1.828125,0.34375 0.96875,0 1.953125,-0.734375 2.328125,-1.25 0.234375,-0.328125 0.3125,-0.625 0.3125,-0.671875 0,-0.078125 -0.078125,-0.078125 -0.078125,-0.078125 -0.203125,0 -0.484375,0.125 -0.6875,0.28125 C 6.734375,-1.25 6.71875,-1.1875 6.640625,-0.984375 6.59375,-0.78125 6.515625,-0.6875 6.46875,-0.625 6.375,-0.484375 6.359375,-0.484375 6.1875,-0.484375 5.609375,-0.484375 5.015625,-0.65625 4.21875,-0.875 3.890625,-0.96875 3.234375,-1.15625 2.625,-1.15625 c -0.15625,0 -0.3125,0.015625 -0.46875,0.046875 z m 0,0"
         id="path23438" />
    </g>
    <g
       id="use6772"
       style="fill:#000000;fill-opacity:1"
       transform="matrix(0.35277777,0,0,0.35277777,338.00586,144.90244)">
      <path
         style="stroke:none"
         d="m 2.015625,-2.65625 c 0.625,0 1.03125,0.453125 1.03125,1.296875 0,1 -0.5625,1.28125 -0.984375,1.28125 -0.4375,0 -1.046875,-0.15625 -1.328125,-0.578125 0.296875,0 0.5,-0.1875 0.5,-0.4375 0,-0.265625 -0.1875,-0.4375 -0.453125,-0.4375 -0.203125,0 -0.4375,0.125 -0.4375,0.453125 0,0.75 0.8125,1.25 1.734375,1.25 C 3.125,0.171875 3.875,-0.5625 3.875,-1.359375 3.875,-2.03125 3.34375,-2.625 2.53125,-2.8125 c 0.625,-0.21875 1.109375,-0.75 1.109375,-1.390625 0,-0.640625 -0.71875,-1.09375 -1.546875,-1.09375 -0.859375,0 -1.5,0.453125 -1.5,1.0625 0,0.296875 0.1875,0.421875 0.40625,0.421875 0.25,0 0.40625,-0.171875 0.40625,-0.40625 0,-0.296875 -0.265625,-0.40625 -0.4375,-0.40625 0.34375,-0.4375 0.953125,-0.46875 1.09375,-0.46875 0.203125,0 0.8125,0.0625 0.8125,0.890625 0,0.546875 -0.234375,0.890625 -0.34375,1.015625 -0.234375,0.25 -0.421875,0.265625 -0.90625,0.296875 -0.15625,0 -0.21875,0.015625 -0.21875,0.125 0,0.109375 0.078125,0.109375 0.21875,0.109375 z m 0,0"
         id="path23406" />
    </g>
    <g
       id="use6776"
       style="fill:#000000;fill-opacity:1"
       transform="matrix(0.35277777,0,0,0.35277777,324.97813,164.49466)">
      <path
         style="stroke:none"
         d="m 5.296875,-6.015625 c 0,-1.21875 -0.390625,-2.40625 -1.359375,-2.40625 -1.671875,0 -3.453125,3.515625 -3.453125,6.140625 0,0.546875 0.109375,2.40625 1.375,2.40625 1.625,0 3.4375,-3.421875 3.4375,-6.140625 z m -3.625,1.6875 c 0.1875,-0.703125 0.4375,-1.703125 0.90625,-2.5625 0.390625,-0.71875 0.8125,-1.28125 1.34375,-1.28125 0.390625,0 0.65625,0.328125 0.65625,1.484375 0,0.421875 -0.03125,1.015625 -0.375,2.359375 z m 2.4375,0.359375 C 3.8125,-2.796875 3.5625,-2.046875 3.125,-1.296875 2.78125,-0.6875 2.359375,-0.125 1.859375,-0.125 1.5,-0.125 1.1875,-0.40625 1.1875,-1.59375 c 0,-0.765625 0.203125,-1.578125 0.390625,-2.375 z m 0,0"
         id="path23394" />
    </g>
    <g
       id="use6780"
       style="fill:#000000;fill-opacity:1"
       transform="matrix(0.35277777,0,0,0.35277777,327.01719,162.96431)">
      <path
         style="stroke:none"
         d="M 3.296875,-1.046875 C 3.359375,-1 3.390625,-1 3.421875,-1 c 0.125,0 0.25,-0.109375 0.25,-0.25 0,-0.15625 -0.09375,-0.1875 -0.203125,-0.234375 -0.53125,-0.25 -0.734375,-0.34375 -1.125,-0.5 L 3.28125,-2.40625 C 3.34375,-2.4375 3.5,-2.5 3.5625,-2.53125 c 0.078125,-0.046875 0.109375,-0.125 0.109375,-0.1875 0,-0.109375 -0.046875,-0.25 -0.296875,-0.25 L 2.234375,-2.1875 2.34375,-3.375 c 0.015625,-0.125 0,-0.328125 -0.234375,-0.328125 -0.140625,0 -0.25,0.125 -0.234375,0.234375 V -3.375 L 1.984375,-2.1875 0.9375,-2.921875 C 0.859375,-2.96875 0.84375,-2.96875 0.796875,-2.96875 c -0.125,0 -0.234375,0.09375 -0.234375,0.25 0,0.140625 0.078125,0.171875 0.1875,0.234375 0.546875,0.25 0.734375,0.328125 1.125,0.5 L 0.9375,-1.5625 C 0.875,-1.546875 0.71875,-1.46875 0.65625,-1.453125 0.578125,-1.40625 0.5625,-1.328125 0.5625,-1.25 c 0,0.140625 0.109375,0.25 0.234375,0.25 0.0625,0 0.078125,0 0.28125,-0.140625 L 1.984375,-1.78125 1.875,-0.5 c 0,0.15625 0.140625,0.234375 0.234375,0.234375 0.109375,0 0.234375,-0.078125 0.234375,-0.234375 0,-0.078125 -0.03125,-0.34375 -0.03125,-0.4375 C 2.28125,-1.203125 2.25,-1.5 2.234375,-1.78125 Z m 0,0"
         id="path23382" />
    </g>
    <g
       id="use6784"
       style="fill:#000000;fill-opacity:1"
       transform="matrix(0.35277777,0,0,0.35277777,326.90253,165.53747)">
      <path
         style="stroke:none"
         d="m 2.5,-5.078125 c 0,-0.21875 -0.015625,-0.21875 -0.234375,-0.21875 -0.328125,0.3125 -0.75,0.5 -1.5,0.5 v 0.265625 c 0.21875,0 0.640625,0 1.109375,-0.203125 v 4.078125 c 0,0.296875 -0.03125,0.390625 -0.78125,0.390625 H 0.8125 V 0 c 0.328125,-0.03125 1.015625,-0.03125 1.375,-0.03125 0.359375,0 1.046875,0 1.375,0.03125 V -0.265625 H 3.28125 c -0.75,0 -0.78125,-0.09375 -0.78125,-0.390625 z m 0,0"
         id="path23426" />
    </g>
    <g
       id="use6788"
       style="fill:#000000;fill-opacity:1"
       transform="matrix(0.35277777,0,0,0.35277777,343.13913,165.32051)">
      <path
         style="stroke:none"
         d="m 5.296875,-6.015625 c 0,-1.21875 -0.390625,-2.40625 -1.359375,-2.40625 -1.671875,0 -3.453125,3.515625 -3.453125,6.140625 0,0.546875 0.109375,2.40625 1.375,2.40625 1.625,0 3.4375,-3.421875 3.4375,-6.140625 z m -3.625,1.6875 c 0.1875,-0.703125 0.4375,-1.703125 0.90625,-2.5625 0.390625,-0.71875 0.8125,-1.28125 1.34375,-1.28125 0.390625,0 0.65625,0.328125 0.65625,1.484375 0,0.421875 -0.03125,1.015625 -0.375,2.359375 z m 2.4375,0.359375 C 3.8125,-2.796875 3.5625,-2.046875 3.125,-1.296875 2.78125,-0.6875 2.359375,-0.125 1.859375,-0.125 1.5,-0.125 1.1875,-0.40625 1.1875,-1.59375 c 0,-0.765625 0.203125,-1.578125 0.390625,-2.375 z m 0,0"
         id="path23398" />
    </g>
    <g
       id="use6792"
       style="fill:#000000;fill-opacity:1"
       transform="matrix(0.35277777,0,0,0.35277777,345.17818,163.78981)">
      <path
         style="stroke:none"
         d="M 3.296875,-1.046875 C 3.359375,-1 3.390625,-1 3.421875,-1 c 0.125,0 0.25,-0.109375 0.25,-0.25 0,-0.15625 -0.09375,-0.1875 -0.203125,-0.234375 -0.53125,-0.25 -0.734375,-0.34375 -1.125,-0.5 L 3.28125,-2.40625 C 3.34375,-2.4375 3.5,-2.5 3.5625,-2.53125 c 0.078125,-0.046875 0.109375,-0.125 0.109375,-0.1875 0,-0.109375 -0.046875,-0.25 -0.296875,-0.25 L 2.234375,-2.1875 2.34375,-3.375 c 0.015625,-0.125 0,-0.328125 -0.234375,-0.328125 -0.140625,0 -0.25,0.125 -0.234375,0.234375 V -3.375 L 1.984375,-2.1875 0.9375,-2.921875 C 0.859375,-2.96875 0.84375,-2.96875 0.796875,-2.96875 c -0.125,0 -0.234375,0.09375 -0.234375,0.25 0,0.140625 0.078125,0.171875 0.1875,0.234375 0.546875,0.25 0.734375,0.328125 1.125,0.5 L 0.9375,-1.5625 C 0.875,-1.546875 0.71875,-1.46875 0.65625,-1.453125 0.578125,-1.40625 0.5625,-1.328125 0.5625,-1.25 c 0,0.140625 0.109375,0.25 0.234375,0.25 0.0625,0 0.078125,0 0.28125,-0.140625 L 1.984375,-1.78125 1.875,-0.5 c 0,0.15625 0.140625,0.234375 0.234375,0.234375 0.109375,0 0.234375,-0.078125 0.234375,-0.234375 0,-0.078125 -0.03125,-0.34375 -0.03125,-0.4375 C 2.28125,-1.203125 2.25,-1.5 2.234375,-1.78125 Z m 0,0"
         id="path23386" />
    </g>
    <g
       id="use6796"
       style="fill:#000000;fill-opacity:1"
       transform="matrix(0.35277777,0,0,0.35277777,345.06354,166.36297)">
      <path
         style="stroke:none"
         d="m 2.25,-1.625 c 0.125,-0.125 0.453125,-0.390625 0.59375,-0.5 0.484375,-0.453125 0.953125,-0.890625 0.953125,-1.609375 0,-0.953125 -0.796875,-1.5625 -1.78125,-1.5625 -0.96875,0 -1.59375,0.71875 -1.59375,1.4375 0,0.390625 0.3125,0.4375 0.421875,0.4375 0.171875,0 0.421875,-0.109375 0.421875,-0.421875 0,-0.40625 -0.40625,-0.40625 -0.5,-0.40625 C 1,-4.84375 1.53125,-5.03125 1.921875,-5.03125 c 0.734375,0 1.125,0.625 1.125,1.296875 0,0.828125 -0.578125,1.4375 -1.53125,2.390625 l -1,1.046875 C 0.421875,-0.21875 0.421875,-0.203125 0.421875,0 H 3.5625 l 0.234375,-1.421875 h -0.25 C 3.53125,-1.265625 3.46875,-0.875 3.375,-0.71875 c -0.046875,0.0625 -0.65625,0.0625 -0.78125,0.0625 H 1.171875 Z m 0,0"
         id="path23418" />
    </g>
    <g
       id="use6800"
       style="fill:#000000;fill-opacity:1"
       transform="matrix(0.35277777,0,0,0.35277777,346.44113,153.76281)">
      <path
         style="stroke:none"
         d="m 5.296875,-6.015625 c 0,-1.21875 -0.390625,-2.40625 -1.359375,-2.40625 -1.671875,0 -3.453125,3.515625 -3.453125,6.140625 0,0.546875 0.109375,2.40625 1.375,2.40625 1.625,0 3.4375,-3.421875 3.4375,-6.140625 z m -3.625,1.6875 c 0.1875,-0.703125 0.4375,-1.703125 0.90625,-2.5625 0.390625,-0.71875 0.8125,-1.28125 1.34375,-1.28125 0.390625,0 0.65625,0.328125 0.65625,1.484375 0,0.421875 -0.03125,1.015625 -0.375,2.359375 z m 2.4375,0.359375 C 3.8125,-2.796875 3.5625,-2.046875 3.125,-1.296875 2.78125,-0.6875 2.359375,-0.125 1.859375,-0.125 1.5,-0.125 1.1875,-0.40625 1.1875,-1.59375 c 0,-0.765625 0.203125,-1.578125 0.390625,-2.375 z m 0,0"
         id="path23402" />
    </g>
    <g
       id="use6804"
       style="fill:#000000;fill-opacity:1"
       transform="matrix(0.35277777,0,0,0.35277777,348.48053,152.23245)">
      <path
         style="stroke:none"
         d="M 3.296875,-1.046875 C 3.359375,-1 3.390625,-1 3.421875,-1 c 0.125,0 0.25,-0.109375 0.25,-0.25 0,-0.15625 -0.09375,-0.1875 -0.203125,-0.234375 -0.53125,-0.25 -0.734375,-0.34375 -1.125,-0.5 L 3.28125,-2.40625 C 3.34375,-2.4375 3.5,-2.5 3.5625,-2.53125 c 0.078125,-0.046875 0.109375,-0.125 0.109375,-0.1875 0,-0.109375 -0.046875,-0.25 -0.296875,-0.25 L 2.234375,-2.1875 2.34375,-3.375 c 0.015625,-0.125 0,-0.328125 -0.234375,-0.328125 -0.140625,0 -0.25,0.125 -0.234375,0.234375 V -3.375 L 1.984375,-2.1875 0.9375,-2.921875 C 0.859375,-2.96875 0.84375,-2.96875 0.796875,-2.96875 c -0.125,0 -0.234375,0.09375 -0.234375,0.25 0,0.140625 0.078125,0.171875 0.1875,0.234375 0.546875,0.25 0.734375,0.328125 1.125,0.5 L 0.9375,-1.5625 C 0.875,-1.546875 0.71875,-1.46875 0.65625,-1.453125 0.578125,-1.40625 0.5625,-1.328125 0.5625,-1.25 c 0,0.140625 0.109375,0.25 0.234375,0.25 0.0625,0 0.078125,0 0.28125,-0.140625 L 1.984375,-1.78125 1.875,-0.5 c 0,0.15625 0.140625,0.234375 0.234375,0.234375 0.109375,0 0.234375,-0.078125 0.234375,-0.234375 0,-0.078125 -0.03125,-0.34375 -0.03125,-0.4375 C 2.28125,-1.203125 2.25,-1.5 2.234375,-1.78125 Z m 0,0"
         id="path23390" />
    </g>
    <g
       id="use6808"
       style="fill:#000000;fill-opacity:1"
       transform="matrix(0.35277777,0,0,0.35277777,348.36553,154.80562)">
      <path
         style="stroke:none"
         d="m 2.015625,-2.65625 c 0.625,0 1.03125,0.453125 1.03125,1.296875 0,1 -0.5625,1.28125 -0.984375,1.28125 -0.4375,0 -1.046875,-0.15625 -1.328125,-0.578125 0.296875,0 0.5,-0.1875 0.5,-0.4375 0,-0.265625 -0.1875,-0.4375 -0.453125,-0.4375 -0.203125,0 -0.4375,0.125 -0.4375,0.453125 0,0.75 0.8125,1.25 1.734375,1.25 C 3.125,0.171875 3.875,-0.5625 3.875,-1.359375 3.875,-2.03125 3.34375,-2.625 2.53125,-2.8125 c 0.625,-0.21875 1.109375,-0.75 1.109375,-1.390625 0,-0.640625 -0.71875,-1.09375 -1.546875,-1.09375 -0.859375,0 -1.5,0.453125 -1.5,1.0625 0,0.296875 0.1875,0.421875 0.40625,0.421875 0.25,0 0.40625,-0.171875 0.40625,-0.40625 0,-0.296875 -0.265625,-0.40625 -0.4375,-0.40625 0.34375,-0.4375 0.953125,-0.46875 1.09375,-0.46875 0.203125,0 0.8125,0.0625 0.8125,0.890625 0,0.546875 -0.234375,0.890625 -0.34375,1.015625 -0.234375,0.25 -0.421875,0.265625 -0.90625,0.296875 -0.15625,0 -0.21875,0.015625 -0.21875,0.125 0,0.109375 0.078125,0.109375 0.21875,0.109375 z m 0,0"
         id="path23410" />
    </g>
  </g>
</svg>
