<?xml version="1.0" encoding="UTF-8" standalone="no"?>
<!-- Created with Inkscape (http://www.inkscape.org/) -->

<svg
   width="204.71373mm"
   height="146.56335mm"
   viewBox="0 0 204.71373 146.56335"
   version="1.1"
   id="svg5"
   sodipodi:docname="method.svg"
   inkscape:version="1.1.2 (0a00cf5339, 2022-02-04)"
   xmlns:inkscape="http://www.inkscape.org/namespaces/inkscape"
   xmlns:sodipodi="http://sodipodi.sourceforge.net/DTD/sodipodi-0.dtd"
   xmlns:xlink="http://www.w3.org/1999/xlink"
   xmlns="http://www.w3.org/2000/svg"
   xmlns:svg="http://www.w3.org/2000/svg">
  <sodipodi:namedview
     id="namedview7"
     pagecolor="#ffffff"
     bordercolor="#999999"
     borderopacity="1"
     inkscape:pageshadow="0"
     inkscape:pageopacity="0"
     inkscape:pagecheckerboard="0"
     inkscape:document-units="mm"
     showgrid="false"
     inkscape:zoom="1.1474186"
     inkscape:cx="495.02421"
     inkscape:cy="328.99936"
     inkscape:window-width="1920"
     inkscape:window-height="1007"
     inkscape:window-x="1920"
     inkscape:window-y="0"
     inkscape:window-maximized="1"
     inkscape:current-layer="layer1" />
  <defs
     id="defs2">
    <linearGradient
       id="linearGradient19012"
       inkscape:swatch="solid">
      <stop
         style="stop-color:#000000;stop-opacity:1;"
         offset="0"
         id="stop19010" />
    </linearGradient>
    <g
       id="g3431">
      <symbol
         overflow="visible"
         id="symbol6143">
        <path
           style="stroke:none"
           d=""
           id="path2994" />
      </symbol>
      <symbol
         overflow="visible"
         id="symbol5358">
        <path
           style="stroke:none"
           d="m 3.734375,-6.125 c 0.0625,-0.234375 0.09375,-0.328125 0.28125,-0.359375 C 4.109375,-6.5 4.421875,-6.5 4.625,-6.5 c 0.703125,0 1.8125,0 1.8125,0.984375 0,0.34375 -0.15625,1.03125 -0.546875,1.421875 -0.265625,0.25 -0.78125,0.578125 -1.6875,0.578125 H 3.09375 Z m 1.4375,2.734375 c 1.015625,-0.21875 2.1875,-0.921875 2.1875,-1.921875 0,-0.859375 -0.890625,-1.5 -2.203125,-1.5 H 2.328125 c -0.203125,0 -0.296875,0 -0.296875,0.203125 C 2.03125,-6.5 2.125,-6.5 2.3125,-6.5 c 0.015625,0 0.203125,0 0.375,0.015625 0.1875,0.03125 0.265625,0.03125 0.265625,0.171875 0,0.03125 0,0.0625 -0.03125,0.1875 l -1.34375,5.34375 C 1.484375,-0.390625 1.46875,-0.3125 0.671875,-0.3125 0.5,-0.3125 0.40625,-0.3125 0.40625,-0.109375 0.40625,0 0.53125,0 0.546875,0 c 0.28125,0 0.984375,-0.03125 1.25,-0.03125 0.28125,0 1,0.03125 1.28125,0.03125 0.078125,0 0.1875,0 0.1875,-0.203125 0,-0.109375 -0.078125,-0.109375 -0.28125,-0.109375 -0.359375,0 -0.640625,0 -0.640625,-0.171875 0,-0.0625 0.015625,-0.109375 0.03125,-0.171875 l 0.65625,-2.640625 h 1.1875 c 0.90625,0 1.078125,0.5625 1.078125,0.90625 0,0.140625 -0.078125,0.453125 -0.140625,0.6875 C 5.09375,-1.421875 5,-1.0625 5,-0.859375 5,0.21875 6.203125,0.21875 6.328125,0.21875 c 0.84375,0 1.203125,-1 1.203125,-1.140625 0,-0.125 -0.109375,-0.125 -0.125,-0.125 -0.09375,0 -0.109375,0.0625 -0.125,0.140625 C 7.03125,-0.171875 6.59375,0 6.375,0 6.046875,0 5.96875,-0.21875 5.96875,-0.609375 c 0,-0.3125 0.0625,-0.8125 0.109375,-1.140625 0.015625,-0.140625 0.03125,-0.328125 0.03125,-0.46875 0,-0.765625 -0.671875,-1.078125 -0.9375,-1.171875 z m 0,0"
           id="path6118" />
      </symbol>
      <symbol
         overflow="visible"
         id="symbol3498">
        <path
           style="stroke:none"
           d="M 3.890625,-3.734375 C 3.625,-3.71875 3.421875,-3.5 3.421875,-3.28125 c 0,0.140625 0.09375,0.296875 0.3125,0.296875 0.21875,0 0.453125,-0.171875 0.453125,-0.5625 C 4.1875,-4 3.765625,-4.40625 3,-4.40625 c -1.3125,0 -1.6875,1.015625 -1.6875,1.453125 0,0.78125 0.734375,0.921875 1.03125,0.984375 0.515625,0.109375 1.03125,0.21875 1.03125,0.765625 0,0.25 -0.21875,1.09375 -1.421875,1.09375 -0.140625,0 -0.90625,0 -1.140625,-0.53125 0.390625,0.046875 0.640625,-0.25 0.640625,-0.53125 0,-0.21875 -0.171875,-0.34375 -0.375,-0.34375 -0.265625,0 -0.5625,0.203125 -0.5625,0.65625 0,0.5625 0.578125,0.96875 1.421875,0.96875 1.625,0 2.015625,-1.203125 2.015625,-1.65625 0,-0.359375 -0.1875,-0.609375 -0.3125,-0.71875 -0.265625,-0.28125 -0.5625,-0.34375 -1,-0.421875 -0.359375,-0.078125 -0.75,-0.15625 -0.75,-0.609375 C 1.890625,-3.578125 2.125,-4.1875 3,-4.1875 c 0.25,0 0.75,0.078125 0.890625,0.453125 z m 0,0"
           id="path8580" />
      </symbol>
      <symbol
         overflow="visible"
         id="symbol6702">
        <path
           style="stroke:none"
           d=""
           id="path4411" />
      </symbol>
      <symbol
         overflow="visible"
         id="symbol8160">
        <path
           style="stroke:none"
           d="m 3.296875,2.390625 c 0,-0.03125 0,-0.046875 -0.171875,-0.21875 C 1.890625,0.921875 1.5625,-0.96875 1.5625,-2.5 c 0,-1.734375 0.375,-3.46875 1.609375,-4.703125 0.125,-0.125 0.125,-0.140625 0.125,-0.171875 0,-0.078125 -0.03125,-0.109375 -0.09375,-0.109375 -0.109375,0 -1,0.6875 -1.59375,1.953125 -0.5,1.09375 -0.625,2.203125 -0.625,3.03125 0,0.78125 0.109375,1.984375 0.65625,3.125 C 2.25,1.84375 3.09375,2.5 3.203125,2.5 c 0.0625,0 0.09375,-0.03125 0.09375,-0.109375 z m 0,0"
           id="path49" />
      </symbol>
      <symbol
         overflow="visible"
         id="symbol9153">
        <path
           style="stroke:none"
           d="m 2.875,-2.5 c 0,-0.765625 -0.109375,-1.96875 -0.65625,-3.109375 -0.59375,-1.21875 -1.453125,-1.875 -1.546875,-1.875 -0.0625,0 -0.109375,0.046875 -0.109375,0.109375 0,0.03125 0,0.046875 0.1875,0.234375 0.984375,0.984375 1.546875,2.5625 1.546875,4.640625 0,1.71875 -0.359375,3.46875 -1.59375,4.71875 C 0.5625,2.34375 0.5625,2.359375 0.5625,2.390625 0.5625,2.453125 0.609375,2.5 0.671875,2.5 0.765625,2.5 1.671875,1.8125 2.25,0.546875 2.765625,-0.546875 2.875,-1.65625 2.875,-2.5 Z m 0,0"
           id="path876" />
      </symbol>
    </g>
    <g
       id="g1431">
      <symbol
         overflow="visible"
         id="symbol7056">
        <path
           style="stroke:none"
           d=""
           id="path4632" />
      </symbol>
      <symbol
         overflow="visible"
         id="symbol8429">
        <path
           style="stroke:none"
           d="m 2.640625,-3.71875 h 1.125 C 3.4375,-2.25 3.34375,-1.8125 3.34375,-1.140625 c 0,0.140625 0,0.40625 0.078125,0.75 0.109375,0.4375 0.21875,0.5 0.359375,0.5 0.203125,0 0.421875,-0.171875 0.421875,-0.375 0,-0.0625 0,-0.078125 -0.0625,-0.21875 -0.296875,-0.71875 -0.296875,-1.375 -0.296875,-1.65625 0,-0.515625 0.078125,-1.0625 0.1875,-1.578125 h 1.125 c 0.140625,0 0.5,0 0.5,-0.34375 0,-0.234375 -0.21875,-0.234375 -0.40625,-0.234375 H 1.90625 c -0.21875,0 -0.59375,0 -1.03125,0.46875 -0.34375,0.390625 -0.609375,0.84375 -0.609375,0.890625 0,0.015625 0,0.109375 0.125,0.109375 0.078125,0 0.09375,-0.046875 0.15625,-0.125 C 1.03125,-3.71875 1.609375,-3.71875 1.8125,-3.71875 H 2.375 C 2.0625,-2.515625 1.53125,-1.3125 1.109375,-0.40625 1.03125,-0.25 1.03125,-0.234375 1.03125,-0.15625 c 0,0.1875 0.15625,0.265625 0.28125,0.265625 0.296875,0 0.375,-0.28125 0.5,-0.640625 C 1.953125,-1 1.953125,-1.015625 2.078125,-1.515625 Z m 0,0"
           id="path1007" />
      </symbol>
      <symbol
         overflow="visible"
         id="symbol7515">
        <path
           style="stroke:none"
           d="M 3.71875,-3.765625 C 3.53125,-4.140625 3.25,-4.40625 2.796875,-4.40625 c -1.15625,0 -2.390625,1.46875 -2.390625,2.921875 0,0.9375 0.546875,1.59375 1.3125,1.59375 0.203125,0 0.703125,-0.046875 1.296875,-0.75 0.078125,0.421875 0.4375,0.75 0.90625,0.75 0.359375,0 0.578125,-0.234375 0.75,-0.546875 0.15625,-0.359375 0.296875,-0.96875 0.296875,-0.984375 0,-0.109375 -0.09375,-0.109375 -0.125,-0.109375 -0.09375,0 -0.109375,0.046875 -0.140625,0.1875 -0.171875,0.640625 -0.34375,1.234375 -0.75,1.234375 -0.28125,0 -0.296875,-0.265625 -0.296875,-0.453125 0,-0.21875 0.015625,-0.3125 0.125,-0.75 C 3.890625,-1.71875 3.90625,-1.828125 4,-2.203125 L 4.359375,-3.59375 c 0.0625,-0.28125 0.0625,-0.296875 0.0625,-0.34375 0,-0.171875 -0.109375,-0.265625 -0.28125,-0.265625 -0.25,0 -0.390625,0.21875 -0.421875,0.4375 z M 3.078125,-1.1875 C 3.015625,-1 3.015625,-0.984375 2.875,-0.8125 2.4375,-0.265625 2.03125,-0.109375 1.75,-0.109375 c -0.5,0 -0.640625,-0.546875 -0.640625,-0.9375 0,-0.5 0.3125,-1.71875 0.546875,-2.1875 0.3125,-0.578125 0.75,-0.953125 1.15625,-0.953125 0.640625,0 0.78125,0.8125 0.78125,0.875 0,0.0625 -0.015625,0.125 -0.03125,0.171875 z m 0,0"
           id="path7251" />
      </symbol>
      <symbol
         overflow="visible"
         id="symbol2935">
        <path
           style="stroke:none"
           d="M 3.890625,-3.734375 C 3.625,-3.71875 3.421875,-3.5 3.421875,-3.28125 c 0,0.140625 0.09375,0.296875 0.3125,0.296875 0.21875,0 0.453125,-0.171875 0.453125,-0.5625 C 4.1875,-4 3.765625,-4.40625 3,-4.40625 c -1.3125,0 -1.6875,1.015625 -1.6875,1.453125 0,0.78125 0.734375,0.921875 1.03125,0.984375 0.515625,0.109375 1.03125,0.21875 1.03125,0.765625 0,0.25 -0.21875,1.09375 -1.421875,1.09375 -0.140625,0 -0.90625,0 -1.140625,-0.53125 0.390625,0.046875 0.640625,-0.25 0.640625,-0.53125 0,-0.21875 -0.171875,-0.34375 -0.375,-0.34375 -0.265625,0 -0.5625,0.203125 -0.5625,0.65625 0,0.5625 0.578125,0.96875 1.421875,0.96875 1.625,0 2.015625,-1.203125 2.015625,-1.65625 0,-0.359375 -0.1875,-0.609375 -0.3125,-0.71875 -0.265625,-0.28125 -0.5625,-0.34375 -1,-0.421875 -0.359375,-0.078125 -0.75,-0.15625 -0.75,-0.609375 C 1.890625,-3.578125 2.125,-4.1875 3,-4.1875 c 0.25,0 0.75,0.078125 0.890625,0.453125 z m 0,0"
           id="path4075" />
      </symbol>
      <symbol
         overflow="visible"
         id="symbol3566">
        <path
           style="stroke:none"
           d=""
           id="path7438" />
      </symbol>
      <symbol
         overflow="visible"
         id="symbol1858">
        <path
           style="stroke:none"
           d="m 3.296875,2.390625 c 0,-0.03125 0,-0.046875 -0.171875,-0.21875 C 1.890625,0.921875 1.5625,-0.96875 1.5625,-2.5 c 0,-1.734375 0.375,-3.46875 1.609375,-4.703125 0.125,-0.125 0.125,-0.140625 0.125,-0.171875 0,-0.078125 -0.03125,-0.109375 -0.09375,-0.109375 -0.109375,0 -1,0.6875 -1.59375,1.953125 -0.5,1.09375 -0.625,2.203125 -0.625,3.03125 0,0.78125 0.109375,1.984375 0.65625,3.125 C 2.25,1.84375 3.09375,2.5 3.203125,2.5 c 0.0625,0 0.09375,-0.03125 0.09375,-0.109375 z m 0,0"
           id="path1521" />
      </symbol>
      <symbol
         overflow="visible"
         id="symbol9574">
        <path
           style="stroke:none"
           d="m 2.875,-2.5 c 0,-0.765625 -0.109375,-1.96875 -0.65625,-3.109375 -0.59375,-1.21875 -1.453125,-1.875 -1.546875,-1.875 -0.0625,0 -0.109375,0.046875 -0.109375,0.109375 0,0.03125 0,0.046875 0.1875,0.234375 0.984375,0.984375 1.546875,2.5625 1.546875,4.640625 0,1.71875 -0.359375,3.46875 -1.59375,4.71875 C 0.5625,2.34375 0.5625,2.359375 0.5625,2.390625 0.5625,2.453125 0.609375,2.5 0.671875,2.5 0.765625,2.5 1.671875,1.8125 2.25,0.546875 2.765625,-0.546875 2.875,-1.65625 2.875,-2.5 Z m 0,0"
           id="path5173" />
      </symbol>
      <symbol
         overflow="visible"
         id="symbol1063">
        <path
           style="stroke:none"
           d=""
           id="path5350" />
      </symbol>
      <symbol
         overflow="visible"
         id="symbol6833">
        <path
           style="stroke:none"
           d="m 1.578125,-7.125 c 0,-0.171875 0,-0.359375 -0.1875,-0.359375 -0.203125,0 -0.203125,0.1875 -0.203125,0.359375 v 9.265625 c 0,0.171875 0,0.359375 0.203125,0.359375 0.1875,0 0.1875,-0.1875 0.1875,-0.359375 z m 0,0"
           id="path5381" />
      </symbol>
    </g>
    <g
       id="g9846">
      <symbol
         overflow="visible"
         id="symbol4779">
        <path
           style="stroke:none"
           d=""
           id="path8001" />
      </symbol>
      <symbol
         overflow="visible"
         id="symbol6405">
        <path
           style="stroke:none"
           d="m 3.65625,-3.984375 h 0.859375 c 0.203125,0 0.296875,0 0.296875,-0.203125 0,-0.109375 -0.09375,-0.109375 -0.265625,-0.109375 H 3.71875 L 3.921875,-5.4375 c 0.046875,-0.203125 0.1875,-0.90625 0.25,-1.03125 0.078125,-0.1875 0.25,-0.34375 0.46875,-0.34375 0.03125,0 0.296875,0 0.484375,0.1875 -0.4375,0.03125 -0.546875,0.390625 -0.546875,0.53125 0,0.234375 0.1875,0.359375 0.375,0.359375 C 5.21875,-5.734375 5.5,-5.96875 5.5,-6.34375 c 0,-0.453125 -0.453125,-0.6875 -0.859375,-0.6875 -0.34375,0 -0.96875,0.1875 -1.265625,1.171875 -0.0625,0.203125 -0.09375,0.3125 -0.328125,1.5625 h -0.6875 c -0.203125,0 -0.3125,0 -0.3125,0.1875 0,0.125 0.09375,0.125 0.28125,0.125 h 0.65625 L 2.25,-0.046875 c -0.1875,0.96875 -0.359375,1.875 -0.875,1.875 -0.046875,0 -0.28125,0 -0.484375,-0.1875 C 1.359375,1.609375 1.453125,1.25 1.453125,1.109375 1.453125,0.875 1.265625,0.75 1.078125,0.75 0.8125,0.75 0.53125,0.984375 0.53125,1.359375 c 0,0.4375 0.4375,0.6875 0.84375,0.6875 0.546875,0 0.953125,-0.59375 1.125,-0.96875 0.328125,-0.625 0.546875,-1.828125 0.5625,-1.90625 z m 0,0"
           id="path9003" />
      </symbol>
      <symbol
         overflow="visible"
         id="symbol4345">
        <path
           style="stroke:none"
           d=""
           id="path2674" />
      </symbol>
      <symbol
         overflow="visible"
         id="symbol4902">
        <path
           style="stroke:none"
           d="M 2.5,-3.953125 C 2.640625,-3.8125 2.84375,-3.8125 2.96875,-3.8125 c 0.21875,0 0.703125,0 0.703125,-0.265625 0,-0.203125 -0.375,-0.21875 -0.625,-0.21875 -0.125,0 -0.28125,0 -0.46875,0.078125 0,-0.03125 -0.03125,-0.125 -0.03125,-0.25 0,-0.03125 0.015625,-0.171875 0.03125,-0.234375 0,-0.015625 0,-0.046875 0,-0.0625 C 2.578125,-4.8125 2.53125,-4.875 2.46875,-4.875 c -0.15625,0 -0.15625,0.265625 -0.15625,0.390625 0,0.078125 0,0.203125 0.078125,0.359375 -0.90625,0.453125 -1.9375,1.671875 -1.9375,2.921875 0,0.390625 0.109375,0.71875 0.390625,1.015625 0.234375,0.21875 0.40625,0.265625 1.296875,0.546875 0.25,0.0625 0.5,0.15625 0.5,0.453125 0,0.1875 -0.109375,0.40625 -0.34375,0.40625 -0.109375,0 -0.328125,-0.015625 -0.5625,-0.1875 C 1.6875,1 1.671875,0.984375 1.640625,0.984375 c -0.078125,0 -0.09375,0.0625 -0.09375,0.109375 0,0.09375 0.390625,0.328125 0.75,0.328125 0.484375,0 0.796875,-0.5 0.796875,-0.859375 0,-0.296875 -0.1875,-0.53125 -0.453125,-0.640625 -0.0625,-0.03125 -0.375,-0.125 -0.578125,-0.1875 -0.53125,-0.15625 -0.71875,-0.21875 -0.90625,-0.421875 -0.1875,-0.203125 -0.25,-0.4375 -0.25,-0.734375 0,-1.03125 0.859375,-2.140625 1.59375,-2.53125 z M 3.390625,-4.0625 c -0.09375,0.03125 -0.21875,0.046875 -0.40625,0.046875 -0.171875,0 -0.1875,0 -0.265625,-0.046875 0.125,-0.03125 0.21875,-0.03125 0.3125,-0.03125 0.203125,0 0.234375,0 0.359375,0.03125 z m 0,0"
           id="path5626" />
      </symbol>
    </g>
    <g
       id="g5819">
      <symbol
         overflow="visible"
         id="symbol8412">
        <path
           style="stroke:none"
           d=""
           id="path1268" />
      </symbol>
      <symbol
         overflow="visible"
         id="symbol7534">
        <path
           style="stroke:none"
           d="m 3.65625,-3.984375 h 0.859375 c 0.203125,0 0.296875,0 0.296875,-0.203125 0,-0.109375 -0.09375,-0.109375 -0.265625,-0.109375 H 3.71875 L 3.921875,-5.4375 c 0.046875,-0.203125 0.1875,-0.90625 0.25,-1.03125 0.078125,-0.1875 0.25,-0.34375 0.46875,-0.34375 0.03125,0 0.296875,0 0.484375,0.1875 -0.4375,0.03125 -0.546875,0.390625 -0.546875,0.53125 0,0.234375 0.1875,0.359375 0.375,0.359375 C 5.21875,-5.734375 5.5,-5.96875 5.5,-6.34375 c 0,-0.453125 -0.453125,-0.6875 -0.859375,-0.6875 -0.34375,0 -0.96875,0.1875 -1.265625,1.171875 -0.0625,0.203125 -0.09375,0.3125 -0.328125,1.5625 h -0.6875 c -0.203125,0 -0.3125,0 -0.3125,0.1875 0,0.125 0.09375,0.125 0.28125,0.125 h 0.65625 L 2.25,-0.046875 c -0.1875,0.96875 -0.359375,1.875 -0.875,1.875 -0.046875,0 -0.28125,0 -0.484375,-0.1875 C 1.359375,1.609375 1.453125,1.25 1.453125,1.109375 1.453125,0.875 1.265625,0.75 1.078125,0.75 0.8125,0.75 0.53125,0.984375 0.53125,1.359375 c 0,0.4375 0.4375,0.6875 0.84375,0.6875 0.546875,0 0.953125,-0.59375 1.125,-0.96875 0.328125,-0.625 0.546875,-1.828125 0.5625,-1.90625 z m 0,0"
           id="path303" />
      </symbol>
      <symbol
         overflow="visible"
         id="symbol8753">
        <path
           style="stroke:none"
           d=""
           id="path7923" />
      </symbol>
      <symbol
         overflow="visible"
         id="symbol1873">
        <path
           style="stroke:none"
           d="m 1.5625,-1.59375 c 0.1875,0 0.75,-0.015625 1.125,-0.140625 0.515625,-0.1875 0.609375,-0.515625 0.609375,-0.71875 0,-0.390625 -0.390625,-0.625 -0.859375,-0.625 -0.84375,0 -1.96875,0.640625 -1.96875,1.84375 0,0.703125 0.4375,1.296875 1.25,1.296875 1.1875,0 1.734375,-0.6875 1.734375,-0.78125 0,-0.046875 -0.0625,-0.125 -0.125,-0.125 -0.03125,0 -0.046875,0.015625 -0.109375,0.078125 C 2.671875,-0.125 1.859375,-0.125 1.734375,-0.125 1.3125,-0.125 1.03125,-0.40625 1.03125,-0.96875 c 0,-0.09375 0,-0.234375 0.09375,-0.625 z M 1.171875,-1.78125 C 1.46875,-2.796875 2.234375,-2.875 2.4375,-2.875 2.734375,-2.875 3,-2.71875 3,-2.453125 3,-1.78125 1.8125,-1.78125 1.515625,-1.78125 Z m 0,0"
           id="path4121" />
      </symbol>
      <symbol
         overflow="visible"
         id="symbol3818">
        <path
           style="stroke:none"
           d="M 2.5,-3.953125 C 2.640625,-3.8125 2.84375,-3.8125 2.96875,-3.8125 c 0.21875,0 0.703125,0 0.703125,-0.265625 0,-0.203125 -0.375,-0.21875 -0.625,-0.21875 -0.125,0 -0.28125,0 -0.46875,0.078125 0,-0.03125 -0.03125,-0.125 -0.03125,-0.25 0,-0.03125 0.015625,-0.171875 0.03125,-0.234375 0,-0.015625 0,-0.046875 0,-0.0625 C 2.578125,-4.8125 2.53125,-4.875 2.46875,-4.875 c -0.15625,0 -0.15625,0.265625 -0.15625,0.390625 0,0.078125 0,0.203125 0.078125,0.359375 -0.90625,0.453125 -1.9375,1.671875 -1.9375,2.921875 0,0.390625 0.109375,0.71875 0.390625,1.015625 0.234375,0.21875 0.40625,0.265625 1.296875,0.546875 0.25,0.0625 0.5,0.15625 0.5,0.453125 0,0.1875 -0.109375,0.40625 -0.34375,0.40625 -0.109375,0 -0.328125,-0.015625 -0.5625,-0.1875 C 1.6875,1 1.671875,0.984375 1.640625,0.984375 c -0.078125,0 -0.09375,0.0625 -0.09375,0.109375 0,0.09375 0.390625,0.328125 0.75,0.328125 0.484375,0 0.796875,-0.5 0.796875,-0.859375 0,-0.296875 -0.1875,-0.53125 -0.453125,-0.640625 -0.0625,-0.03125 -0.375,-0.125 -0.578125,-0.1875 -0.53125,-0.15625 -0.71875,-0.21875 -0.90625,-0.421875 -0.1875,-0.203125 -0.25,-0.4375 -0.25,-0.734375 0,-1.03125 0.859375,-2.140625 1.59375,-2.53125 z M 3.390625,-4.0625 c -0.09375,0.03125 -0.21875,0.046875 -0.40625,0.046875 -0.171875,0 -0.1875,0 -0.265625,-0.046875 0.125,-0.03125 0.21875,-0.03125 0.3125,-0.03125 0.203125,0 0.234375,0 0.359375,0.03125 z m 0,0"
           id="path8306" />
      </symbol>
    </g>
    <marker
       style="overflow:visible"
       refX="0"
       refY="0"
       orient="auto-start-reverse"
       inkscape:stockid="Triangle835271255709"
       markerWidth="0.5"
       markerHeight="0.5"
       viewBox="0 0 1 1"
       inkscape:isstock="true"
       inkscape:collect="always"
       preserveAspectRatio="xMidYMid"
       id="Triangle835271255709">
      <path
         transform="scale(0.5)"
         style="fill:#0000ff;fill-rule:evenodd;stroke:#0000ff;stroke-width:1pt"
         d="M 5.77,0 -2.88,5 V -5 Z"
         id="path920" />
    </marker>
    <marker
       style="overflow:visible"
       refX="0"
       refY="0"
       orient="auto-start-reverse"
       inkscape:stockid="Triangle835271255709"
       markerWidth="0.5"
       markerHeight="0.5"
       viewBox="0 0 1 1"
       inkscape:isstock="true"
       inkscape:collect="always"
       preserveAspectRatio="xMidYMid"
       id="Triangle835271255709-5">
      <path
         transform="scale(0.5)"
         style="fill:#0000ff;fill-rule:evenodd;stroke:#0000ff;stroke-width:1pt"
         d="M 5.77,0 -2.88,5 V -5 Z"
         id="path920-3" />
    </marker>
    <marker
       style="overflow:visible"
       refX="0"
       refY="0"
       orient="auto-start-reverse"
       inkscape:stockid="Triangle835271255709"
       markerWidth="0.5"
       markerHeight="0.5"
       viewBox="0 0 1 1"
       inkscape:isstock="true"
       inkscape:collect="always"
       preserveAspectRatio="xMidYMid"
       id="Triangle835271255709-6">
      <path
         transform="scale(0.5)"
         style="fill:#0000ff;fill-rule:evenodd;stroke:#0000ff;stroke-width:1pt"
         d="M 5.77,0 -2.88,5 V -5 Z"
         id="path920-2" />
    </marker>
    <marker
       style="overflow:visible"
       refX="0"
       refY="0"
       orient="auto-start-reverse"
       inkscape:stockid="Triangle8352712557094918"
       markerWidth="0.5"
       markerHeight="0.5"
       viewBox="0 0 1 1"
       inkscape:isstock="true"
       inkscape:collect="always"
       preserveAspectRatio="xMidYMid"
       id="Triangle8352712557094918">
      <path
         transform="scale(0.5)"
         style="fill:#ff0000;fill-rule:evenodd;stroke:#ff0000;stroke-width:1pt"
         d="M 5.77,0 -2.88,5 V -5 Z"
         id="path20295" />
    </marker>
    <marker
       style="overflow:visible"
       refX="0"
       refY="0"
       orient="auto-start-reverse"
       inkscape:stockid="Triangle835271255709-6-1569665388945"
       markerWidth="0.5"
       markerHeight="0.5"
       viewBox="0 0 1 1"
       inkscape:isstock="true"
       inkscape:collect="always"
       preserveAspectRatio="xMidYMid"
       id="Triangle835271255709-6-1569665388945">
      <path
         transform="scale(0.5)"
         style="fill:#ff0000;fill-rule:evenodd;stroke:#ff0000;stroke-width:1pt"
         d="M 5.77,0 -2.88,5 V -5 Z"
         id="path20298" />
    </marker>
  </defs>
  <g
     inkscape:label="Layer 1"
     inkscape:groupmode="layer"
     id="layer1"
     transform="translate(-7.4268755,-34.932347)">
    <g
       id="g13980">
      <text
         xml:space="preserve"
         style="font-size:7.05556px;line-height:1.25;font-family:sans-serif;stroke-width:0.264583"
         x="31.821426"
         y="68.254654"
         id="text1706"><tspan
           sodipodi:role="line"
           id="tspan1704"
           style="font-size:7.05556px;stroke-width:0.264583"
           x="31.821426"
           y="68.254654">報酬関数</tspan></text>
      <g
         inkscape:label=""
         transform="translate(-55.683767,-2.0757205)"
         id="g13202">
        <g
           id="g6421">
          <g
             style="fill:#000000;fill-opacity:1"
             id="g5711">
            <use
               xlink:href="#symbol5358"
               x="91.925003"
               y="81.962997"
               id="use6143"
               width="100%"
               height="100%" />
          </g>
          <g
             style="fill:#000000;fill-opacity:1"
             id="g5832">
            <use
               xlink:href="#symbol8160"
               x="99.567001"
               y="81.962997"
               id="use4079"
               width="100%"
               height="100%" />
          </g>
          <g
             style="fill:#000000;fill-opacity:1"
             id="g3116">
            <use
               xlink:href="#symbol3498"
               x="103.441"
               y="81.962997"
               id="use5767"
               width="100%"
               height="100%" />
          </g>
          <g
             style="fill:#000000;fill-opacity:1"
             id="g6426">
            <use
               xlink:href="#symbol9153"
               x="108.111"
               y="81.962997"
               id="use6824"
               width="100%"
               height="100%" />
          </g>
        </g>
      </g>
    </g>
    <g
       id="g13886"
       transform="translate(-3.5445371,9.2236025)">
      <text
         xml:space="preserve"
         style="font-size:7.05556px;line-height:1.25;font-family:sans-serif;stroke-width:0.264583"
         x="42.428566"
         y="103.30434"
         id="text4800"><tspan
           sodipodi:role="line"
           id="tspan4798"
           style="font-size:7.05556px;stroke-width:0.264583"
           x="42.428566"
           y="103.30434">方策</tspan></text>
      <g
         inkscape:label=""
         transform="translate(-55.283417,31.129249)"
         id="g13351">
        <g
           id="g2410">
          <g
             style="fill:#000000;fill-opacity:1"
             id="g9112">
            <use
               xlink:href="#symbol8429"
               x="91.925003"
               y="81.962997"
               id="use3509"
               width="100%"
               height="100%" />
          </g>
          <g
             style="fill:#000000;fill-opacity:1"
             id="g3897">
            <use
               xlink:href="#symbol1858"
               x="97.961998"
               y="81.962997"
               id="use4877"
               width="100%"
               height="100%" />
          </g>
          <g
             style="fill:#000000;fill-opacity:1"
             id="g7458">
            <use
               xlink:href="#symbol7515"
               x="101.836"
               y="81.962997"
               id="use6884"
               width="100%"
               height="100%" />
          </g>
          <g
             style="fill:#000000;fill-opacity:1"
             id="g8835">
            <use
               xlink:href="#symbol6833"
               x="107.102"
               y="81.962997"
               id="use337"
               width="100%"
               height="100%" />
          </g>
          <g
             style="fill:#000000;fill-opacity:1"
             id="g8821">
            <use
               xlink:href="#symbol2935"
               x="109.87"
               y="81.962997"
               id="use5038"
               width="100%"
               height="100%" />
          </g>
          <g
             style="fill:#000000;fill-opacity:1"
             id="g1462">
            <use
               xlink:href="#symbol9574"
               x="114.54"
               y="81.962997"
               id="use8079"
               width="100%"
               height="100%" />
          </g>
        </g>
      </g>
    </g>
    <g
       id="g20423">
      <text
         xml:space="preserve"
         style="font-size:7.05556px;line-height:1.25;font-family:sans-serif;stroke-width:0.264583"
         x="46.055992"
         y="157.7236"
         id="text7444"><tspan
           sodipodi:role="line"
           id="tspan7442"
           style="text-align:center;text-anchor:middle;stroke-width:0.264583"
           x="46.055992"
           y="157.7236">獲得方策による</tspan><tspan
           sodipodi:role="line"
           style="text-align:center;text-anchor:middle;stroke-width:0.264583"
           x="46.055992"
           y="166.54305"
           id="tspan7446">行動系列の特徴ベクトル</tspan></text>
      <g
         inkscape:label=""
         transform="translate(-50.490704,96.616825)"
         id="g13558">
        <g
           id="g3091">
          <g
             style="fill:#000000;fill-opacity:1"
             id="g1558">
            <use
               xlink:href="#symbol6405"
               x="91.925003"
               y="81.962997"
               id="use8388"
               width="100%"
               height="100%" />
          </g>
          <g
             style="fill:#000000;fill-opacity:1"
             id="g2345">
            <use
               xlink:href="#symbol4902"
               x="96.803001"
               y="83.457001"
               id="use4078"
               width="100%"
               height="100%" />
          </g>
        </g>
      </g>
    </g>
    <g
       id="g13954">
      <text
         xml:space="preserve"
         style="font-size:7.05556px;line-height:1.25;font-family:sans-serif;stroke-width:0.264583"
         x="173.67375"
         y="157.7236"
         id="text11486"><tspan
           sodipodi:role="line"
           id="tspan11484"
           style="text-align:center;text-anchor:middle;stroke-width:0.264583"
           x="173.67375"
           y="157.7236">エキスパートによる</tspan><tspan
           sodipodi:role="line"
           style="text-align:center;text-anchor:middle;stroke-width:0.264583"
           x="173.67375"
           y="166.54305"
           id="tspan11488">行動系列の特徴ベクトル</tspan></text>
      <g
         inkscape:label=""
         transform="translate(76.700433,95.647823)"
         id="g13781">
        <g
           id="g8270">
          <g
             style="fill:#000000;fill-opacity:1"
             id="g6247">
            <use
               xlink:href="#symbol7534"
               x="91.925003"
               y="81.962997"
               id="use1766"
               width="100%"
               height="100%" />
          </g>
          <g
             style="fill:#000000;fill-opacity:1"
             id="g5098">
            <use
               xlink:href="#symbol1873"
               x="97.875"
               y="77.848999"
               id="use6241"
               width="100%"
               height="100%" />
          </g>
          <g
             style="fill:#000000;fill-opacity:1"
             id="g2632">
            <use
               xlink:href="#symbol3818"
               x="96.803001"
               y="84.426003"
               id="use9612"
               width="100%"
               height="100%" />
          </g>
        </g>
      </g>
    </g>
    <text
       xml:space="preserve"
       style="font-size:7.05556px;line-height:1.25;font-family:sans-serif;stroke-width:0.264583"
       x="17.967861"
       y="40.583851"
       id="text14732"><tspan
         sodipodi:role="line"
         id="tspan14730"
         style="stroke-width:0.264583"
         x="17.967861"
         y="40.583851">ニューラルネット</tspan></text>
    <path
       style="fill:#000000;fill-opacity:1;stroke:#0000ff;stroke-width:3.00497;stroke-dasharray:none;stroke-opacity:1;marker-end:url(#Triangle835271255709)"
       d="m 45.974861,44.421485 v 9.550657"
       id="path1" />
    <path
       style="fill:#000000;fill-opacity:1;stroke:#0000ff;stroke-width:3.00497;stroke-dasharray:none;stroke-opacity:1;marker-end:url(#Triangle835271255709-5)"
       d="m 45.974861,86.779258 v 9.550657"
       id="path1-5" />
    <path
       style="fill:#000000;fill-opacity:1;stroke:#0000ff;stroke-width:3.00497;stroke-dasharray:none;stroke-opacity:1;marker-end:url(#Triangle835271255709-6)"
       d="m 45.974861,129.94552 v 9.55066"
       id="path1-9" />
    <path
       style="fill:#000000;fill-opacity:1;stroke:#ff0000;stroke-width:2.4626;stroke-miterlimit:4;stroke-dasharray:none;stroke-opacity:1;marker-start:url(#Triangle8352712557094918);marker-end:url(#Triangle835271255709-6-1569665388945)"
       d="M 95.001444,159.45574 H 122.59151"
       id="path1-9-7" />
    <text
       xml:space="preserve"
       style="font-size:7.05556px;line-height:1.25;font-family:sans-serif;fill:#0000ff;fill-opacity:1"
       x="57.675091"
       y="54.555599"
       id="text3638"><tspan
         sodipodi:role="line"
         id="tspan3636"
         x="57.675091"
         y="54.555599">推論</tspan></text>
    <text
       xml:space="preserve"
       style="font-size:7.05556px;line-height:1.25;font-family:sans-serif;fill:#0000ff;fill-opacity:1"
       x="57.668034"
       y="96.903419"
       id="text12618"><tspan
         sodipodi:role="line"
         id="tspan12616"
         x="57.668034"
         y="96.903419">獲得</tspan></text>
    <text
       xml:space="preserve"
       style="font-size:7.05556px;line-height:1.25;font-family:sans-serif;fill:#0000ff;fill-opacity:1"
       x="57.392872"
       y="140.10849"
       id="text16098"><tspan
         sodipodi:role="line"
         id="tspan16096"
         x="57.392872"
         y="140.10849">サンプリング</tspan></text>
    <text
       xml:space="preserve"
       style="font-size:7.05556px;line-height:1.25;font-family:sans-serif;stroke-width:0.264583;fill:#ff0000;fill-opacity:1"
       x="80.750671"
       y="149.99115"
       id="text22825"><tspan
         sodipodi:role="line"
         id="tspan22823"
         style="stroke-width:0.264583;fill:#ff0000;fill-opacity:1"
         x="80.750671"
         y="149.99115">なるべく近づける</tspan></text>
  </g>
</svg>
