<?xml version="1.0" encoding="UTF-8" standalone="no"?>
<!-- Created with Inkscape (http://www.inkscape.org/) -->

<svg
   width="99.254265mm"
   height="93.226425mm"
   viewBox="0 0 99.254264 93.226425"
   version="1.1"
   id="svg9179"
   inkscape:version="1.1.2 (0a00cf5339, 2022-02-04)"
   sodipodi:docname="feature_theta.svg"
   xmlns:inkscape="http://www.inkscape.org/namespaces/inkscape"
   xmlns:sodipodi="http://sodipodi.sourceforge.net/DTD/sodipodi-0.dtd"
   xmlns:xlink="http://www.w3.org/1999/xlink"
   xmlns="http://www.w3.org/2000/svg"
   xmlns:svg="http://www.w3.org/2000/svg">
  <sodipodi:namedview
     id="namedview9181"
     pagecolor="#ffffff"
     bordercolor="#999999"
     borderopacity="1"
     inkscape:pageshadow="0"
     inkscape:pageopacity="0"
     inkscape:pagecheckerboard="0"
     inkscape:document-units="mm"
     showgrid="false"
     inkscape:zoom="1.1474187"
     inkscape:cx="-47.06216"
     inkscape:cy="204.37179"
     inkscape:window-width="1920"
     inkscape:window-height="1007"
     inkscape:window-x="0"
     inkscape:window-y="0"
     inkscape:window-maximized="1"
     inkscape:current-layer="layer1" />
  <defs
     id="defs9176">
    <marker
       style="overflow:visible"
       id="Arrow1Mend-9"
       refX="0"
       refY="0"
       orient="auto"
       inkscape:stockid="Arrow1Mend"
       inkscape:isstock="true">
      <path
         transform="matrix(-0.4,0,0,-0.4,-4,0)"
         style="fill:context-stroke;fill-rule:evenodd;stroke:context-stroke;stroke-width:1pt"
         d="M 0,0 5,-5 -12.5,0 5,5 Z"
         id="path9589-3" />
    </marker>
    <marker
       style="overflow:visible"
       id="Arrow1Mend-9-9"
       refX="0"
       refY="0"
       orient="auto"
       inkscape:stockid="Arrow1Mend"
       inkscape:isstock="true">
      <path
         transform="matrix(-0.4,0,0,-0.4,-4,0)"
         style="fill:context-stroke;fill-rule:evenodd;stroke:context-stroke;stroke-width:1pt"
         d="M 0,0 5,-5 -12.5,0 5,5 Z"
         id="path9589-3-4" />
    </marker>
    <g
       id="g4640">
      <symbol
         overflow="visible"
         id="symbol8934">
        <path
           style="stroke:none"
           d=""
           id="path6884" />
      </symbol>
      <symbol
         overflow="visible"
         id="symbol1446">
        <path
           style="stroke:none"
           d="m 7.375,-4.34375 c 0,-1.609375 -1.0625,-2.6875 -2.546875,-2.6875 -2.140625,0 -4.34375,2.265625 -4.34375,4.59375 0,1.65625 1.125,2.65625 2.5625,2.65625 2.109375,0 4.328125,-2.1875 4.328125,-4.5625 z m -4.28125,4.296875 c -0.984375,0 -1.671875,-0.796875 -1.671875,-2.109375 0,-0.453125 0.140625,-1.90625 0.90625,-3.0625 0.6875,-1.046875 1.65625,-1.5625 2.453125,-1.5625 0.8125,0 1.703125,0.5625 1.703125,2.046875 0,0.71875 -0.265625,2.265625 -1.25,3.5 C 4.75,-0.625 3.9375,-0.046875 3.09375,-0.046875 Z m 0,0"
           id="path1156" />
      </symbol>
    </g>
    <g
       id="g1605">
      <symbol
         overflow="visible"
         id="symbol8689">
        <path
           style="stroke:none"
           d=""
           id="path2217" />
      </symbol>
      <symbol
         overflow="visible"
         id="symbol8616">
        <path
           style="stroke:none"
           d="m 7.1875,-3.375 c 0,-2.03125 -1.5,-3.65625 -3.3125,-3.65625 -1.796875,0 -3.3125,1.59375 -3.3125,3.65625 0,2.046875 1.53125,3.59375 3.3125,3.59375 1.8125,0 3.3125,-1.578125 3.3125,-3.59375 z M 3.875,-0.046875 c -0.953125,0 -2.296875,-0.875 -2.296875,-3.46875 0,-2.578125 1.46875,-3.265625 2.296875,-3.265625 0.859375,0 2.28125,0.703125 2.28125,3.265625 0,2.640625 -1.359375,3.46875 -2.28125,3.46875 z m 0,0"
           id="path3447" />
      </symbol>
    </g>
    <marker
       style="overflow:visible"
       refX="0"
       refY="0"
       orient="auto"
       inkscape:stockid="Arrow1Mend-9-95350"
       inkscape:isstock="true"
       id="Arrow1Mend-9-95350">
      <path
         transform="matrix(-0.4,0,0,-0.4,-4,0)"
         style="fill:#1f38c5;fill-rule:evenodd;stroke:#1f38c5;stroke-width:1pt"
         d="M 0,0 5,-5 -12.5,0 5,5 Z"
         id="path1090" />
    </marker>
    <marker
       style="overflow:visible"
       refX="0"
       refY="0"
       orient="auto"
       inkscape:stockid="Arrow1Mend-9-953508609"
       inkscape:isstock="true"
       id="Arrow1Mend-9-953508609">
      <path
         transform="matrix(-0.4,0,0,-0.4,-4,0)"
         style="fill:#1f38c5;fill-rule:evenodd;stroke:#1f38c5;stroke-width:1pt"
         d="M 0,0 5,-5 -12.5,0 5,5 Z"
         id="path1216" />
    </marker>
    <marker
       style="overflow:visible"
       refX="0"
       refY="0"
       orient="auto"
       inkscape:stockid="Arrow1Mend-9-9535086095715"
       inkscape:isstock="true"
       id="Arrow1Mend-9-9535086095715">
      <path
         transform="matrix(-0.4,0,0,-0.4,-4,0)"
         style="fill:#1f38c5;fill-rule:evenodd;stroke:#1f38c5;stroke-width:1pt"
         d="M 0,0 5,-5 -12.5,0 5,5 Z"
         id="path1346" />
    </marker>
    <g
       id="g6538">
      <symbol
         overflow="visible"
         id="symbol1918">
        <path
           style="stroke:none"
           d=""
           id="path4277" />
      </symbol>
      <symbol
         overflow="visible"
         id="symbol4713">
        <path
           style="stroke:none"
           d="M 4.84375,-6.1875 H 6.5 c 1.3125,0 1.8125,-0.765625 1.8125,-0.890625 0,-0.046875 -0.03125,-0.0625 -0.09375,-0.0625 -0.109375,0 -0.359375,0.09375 -0.609375,0.265625 C 7.53125,-6.8125 7.5,-6.8125 7.3125,-6.8125 H 2.953125 c -1.234375,0 -2.609375,1.078125 -2.609375,1.890625 0,0.0625 0,0.109375 0.078125,0.109375 0.234375,0 0.859375,-0.328125 0.890625,-0.5625 0,-0.171875 0.015625,-0.359375 0.21875,-0.609375 0.109375,-0.125 0.1875,-0.203125 0.625,-0.203125 h 1.984375 c -0.171875,0.109375 -0.21875,0.25 -0.234375,0.359375 L 2.765625,-1.3125 C 2.65625,-0.828125 2.4375,-0.203125 2.15625,0.453125 2.09375,0.5625 2.09375,0.59375 2.09375,0.609375 c 0,0.0625 0.046875,0.0625 0.09375,0.0625 0.1875,0 0.6875,-0.265625 0.828125,-0.46875 0.0625,-0.109375 0.5,-1.125 0.71875,-1.953125 z m 0,0"
           id="path8263" />
      </symbol>
      <symbol
         overflow="visible"
         id="symbol9546">
        <path
           style="stroke:none"
           d=""
           id="path9027" />
      </symbol>
      <symbol
         overflow="visible"
         id="symbol5292">
        <path
           style="stroke:none"
           d="m 2.265625,-4.359375 c 0,-0.109375 -0.09375,-0.265625 -0.28125,-0.265625 -0.1875,0 -0.390625,0.1875 -0.390625,0.390625 0,0.109375 0.078125,0.265625 0.28125,0.265625 0.1875,0 0.390625,-0.203125 0.390625,-0.390625 z M 0.84375,-0.8125 c -0.03125,0.09375 -0.0625,0.171875 -0.0625,0.296875 0,0.328125 0.265625,0.578125 0.65625,0.578125 0.6875,0 1,-0.953125 1,-1.0625 0,-0.09375 -0.09375,-0.09375 -0.109375,-0.09375 -0.09375,0 -0.109375,0.046875 -0.140625,0.125 -0.15625,0.5625 -0.453125,0.84375 -0.734375,0.84375 -0.140625,0 -0.171875,-0.09375 -0.171875,-0.25 0,-0.15625 0.046875,-0.28125 0.109375,-0.4375 C 1.46875,-1 1.546875,-1.1875 1.609375,-1.375 1.671875,-1.546875 1.9375,-2.171875 1.953125,-2.265625 1.984375,-2.328125 2,-2.40625 2,-2.484375 2,-2.8125 1.71875,-3.078125 1.34375,-3.078125 0.640625,-3.078125 0.328125,-2.125 0.328125,-2 c 0,0.078125 0.09375,0.078125 0.125,0.078125 0.09375,0 0.09375,-0.03125 0.125,-0.109375 C 0.75,-2.625 1.0625,-2.875 1.3125,-2.875 c 0.109375,0 0.171875,0.046875 0.171875,0.234375 0,0.171875 -0.03125,0.265625 -0.203125,0.703125 z m 0,0"
           id="path6201" />
      </symbol>
    </g>
    <g
       id="g2109">
      <symbol
         overflow="visible"
         id="symbol1054">
        <path
           style="stroke:none"
           d=""
           id="path8767" />
      </symbol>
      <symbol
         overflow="visible"
         id="symbol5262">
        <path
           style="stroke:none"
           d="m 4.53125,-4.984375 c 0,-0.65625 -0.171875,-2.046875 -1.1875,-2.046875 -1.390625,0 -2.921875,2.8125 -2.921875,5.09375 0,0.9375 0.28125,2.046875 1.1875,2.046875 1.40625,0 2.921875,-2.859375 2.921875,-5.09375 z M 1.46875,-3.625 C 1.640625,-4.25 1.84375,-5.046875 2.25,-5.765625 2.515625,-6.25 2.875,-6.8125 3.328125,-6.8125 c 0.484375,0 0.546875,0.640625 0.546875,1.203125 0,0.5 -0.078125,1 -0.3125,1.984375 z m 2,0.328125 C 3.359375,-2.84375 3.15625,-2 2.765625,-1.28125 c -0.34375,0.6875 -0.71875,1.171875 -1.15625,1.171875 -0.328125,0 -0.53125,-0.296875 -0.53125,-1.21875 0,-0.421875 0.0625,-1 0.3125,-1.96875 z m 0,0"
           id="path8234" />
      </symbol>
      <symbol
         overflow="visible"
         id="symbol1928">
        <path
           style="stroke:none"
           d=""
           id="path9551" />
      </symbol>
      <symbol
         overflow="visible"
         id="symbol5811">
        <path
           style="stroke:none"
           d="m 3.65625,-2 c 0.125,-0.0625 0.125,-0.09375 0.125,-0.125 0,-0.0625 -0.0625,-0.09375 -0.09375,-0.09375 C 3.65625,-2.21875 2.5,-2 2.3125,-1.953125 L 2.140625,-3.234375 C 2.125,-3.34375 2.125,-3.421875 2.03125,-3.421875 c -0.0625,0 -0.09375,0.0625 -0.109375,0.171875 l -0.15625,1.296875 -1.28125,-0.25 C 0.40625,-2.21875 0.390625,-2.21875 0.390625,-2.21875 c -0.046875,0 -0.109375,0.03125 -0.109375,0.09375 0,0.03125 0.015625,0.046875 0.046875,0.078125 0.015625,0.015625 1.125,0.53125 1.28125,0.59375 L 0.96875,-0.296875 C 0.921875,-0.203125 0.921875,-0.1875 0.921875,-0.1875 c 0,0.0625 0.046875,0.109375 0.09375,0.109375 0.0625,0 0.203125,-0.171875 0.46875,-0.484375 0.1875,-0.1875 0.375,-0.375 0.546875,-0.5625 0.34375,0.34375 0.84375,0.890625 0.921875,0.96875 0.0625,0.0625 0.0625,0.078125 0.109375,0.078125 0.046875,0 0.09375,-0.046875 0.09375,-0.109375 0,-0.015625 -0.09375,-0.171875 -0.140625,-0.265625 L 2.46875,-1.4375 Z m 0,0"
           id="path149" />
      </symbol>
      <symbol
         overflow="visible"
         id="symbol1820">
        <path
           style="stroke:none"
           d="m 2.265625,-4.359375 c 0,-0.109375 -0.09375,-0.265625 -0.28125,-0.265625 -0.1875,0 -0.390625,0.1875 -0.390625,0.390625 0,0.109375 0.078125,0.265625 0.28125,0.265625 0.1875,0 0.390625,-0.203125 0.390625,-0.390625 z M 0.84375,-0.8125 c -0.03125,0.09375 -0.0625,0.171875 -0.0625,0.296875 0,0.328125 0.265625,0.578125 0.65625,0.578125 0.6875,0 1,-0.953125 1,-1.0625 0,-0.09375 -0.09375,-0.09375 -0.109375,-0.09375 -0.09375,0 -0.109375,0.046875 -0.140625,0.125 -0.15625,0.5625 -0.453125,0.84375 -0.734375,0.84375 -0.140625,0 -0.171875,-0.09375 -0.171875,-0.25 0,-0.15625 0.046875,-0.28125 0.109375,-0.4375 C 1.46875,-1 1.546875,-1.1875 1.609375,-1.375 1.671875,-1.546875 1.9375,-2.171875 1.953125,-2.265625 1.984375,-2.328125 2,-2.40625 2,-2.484375 2,-2.8125 1.71875,-3.078125 1.34375,-3.078125 0.640625,-3.078125 0.328125,-2.125 0.328125,-2 c 0,0.078125 0.09375,0.078125 0.125,0.078125 0.09375,0 0.09375,-0.03125 0.125,-0.109375 C 0.75,-2.625 1.0625,-2.875 1.3125,-2.875 c 0.109375,0 0.171875,0.046875 0.171875,0.234375 0,0.171875 -0.03125,0.265625 -0.203125,0.703125 z m 0,0"
           id="path9840" />
      </symbol>
    </g>
    <marker
       style="overflow:visible"
       id="Arrow1Mend-9-91"
       refX="0"
       refY="0"
       orient="auto"
       inkscape:stockid="Arrow1Mend"
       inkscape:isstock="true">
      <path
         transform="matrix(-0.4,0,0,-0.4,-4,0)"
         style="fill:context-stroke;fill-rule:evenodd;stroke:context-stroke;stroke-width:1pt"
         d="M 0,0 5,-5 -12.5,0 5,5 Z"
         id="path9589-3-2" />
    </marker>
    <marker
       style="overflow:visible"
       id="Arrow1Mend-9-91-0"
       refX="0"
       refY="0"
       orient="auto"
       inkscape:stockid="Arrow1Mend"
       inkscape:isstock="true">
      <path
         transform="matrix(-0.4,0,0,-0.4,-4,0)"
         style="fill:context-stroke;fill-rule:evenodd;stroke:context-stroke;stroke-width:1pt"
         d="M 0,0 5,-5 -12.5,0 5,5 Z"
         id="path9589-3-2-9" />
    </marker>
  </defs>
  <g
     inkscape:label="Layer 1"
     inkscape:groupmode="layer"
     id="layer1"
     transform="translate(-15.77633,-67.635548)">
    <circle
       style="fill:#1f38c5;fill-opacity:1;stroke-width:2"
       id="path874-3"
       cx="98.635612"
       cy="129.52945"
       r="4.2737002" />
    <circle
       style="fill:#000000;fill-opacity:1;stroke-width:2"
       id="path874-9"
       cx="39.679256"
       cy="112.41261"
       r="4.2737002" />
    <circle
       style="fill:#000000;fill-opacity:1;stroke-width:2"
       id="path874-9-36"
       cx="108.4349"
       cy="135.38457"
       r="4.2737002" />
    <circle
       style="fill:none;fill-opacity:1;stroke:#000000;stroke-width:1;stroke-miterlimit:4;stroke-dasharray:none;stroke-opacity:1"
       id="path874-9-3"
       cx="26.60076"
       cy="156.08827"
       r="4.2737002" />
    <circle
       style="fill:#000000;fill-opacity:1;stroke-width:2"
       id="path874-1"
       cx="76.280602"
       cy="71.909248"
       r="4.2737002" />
    <circle
       style="fill:#ff0000;fill-opacity:1;stroke-width:2"
       id="path874-7-5"
       cx="71.625313"
       cy="102.75769"
       r="4.2737002" />
    <path
       style="fill:none;stroke:#000000;stroke-width:1;stroke-linecap:butt;stroke-linejoin:miter;stroke-miterlimit:4;stroke-dasharray:none;stroke-opacity:1;marker-end:url(#Arrow1Mend-9)"
       d="m 71.705754,102.79413 2.759741,11.03754"
       id="path9498-6"
       sodipodi:nodetypes="cc" />
    <path
       style="fill:none;stroke:#000000;stroke-width:1;stroke-linecap:butt;stroke-linejoin:miter;stroke-miterlimit:4;stroke-dasharray:none;stroke-opacity:1;marker-end:url(#Arrow1Mend-9-91)"
       d="m 74.465495,113.83167 9.288158,8.26325"
       id="path9498-6-7"
       sodipodi:nodetypes="cc" />
    <path
       style="fill:none;stroke:#000000;stroke-width:1;stroke-linecap:butt;stroke-linejoin:miter;stroke-miterlimit:4;stroke-dasharray:none;stroke-opacity:1;marker-end:url(#Arrow1Mend-9-91-0)"
       d="m 83.753653,122.09492 9.172853,4.66527"
       id="path9498-6-7-3"
       sodipodi:nodetypes="cc" />
    <path
       style="fill:none;fill-opacity:1;stroke:#1f38c5;stroke-width:1;stroke-linecap:butt;stroke-linejoin:miter;stroke-miterlimit:4;stroke-dasharray:none;stroke-opacity:1;marker-end:url(#Arrow1Mend-9-9535086095715)"
       d="M 31.03775,154.42718 92.88365,131.7517"
       id="path9498-6-8"
       sodipodi:nodetypes="cc" />
    <g
       inkscape:label=""
       transform="translate(4.029385,11.113025)"
       id="g2022"
       style="fill:#ff0000;fill-opacity:1">
      <g
         id="g9312"
         style="fill:#ff0000;fill-opacity:1">
        <g
           style="fill:#ff0000;fill-opacity:1"
           id="g935">
          <g
             id="use8885"
             style="fill:#ff0000;fill-opacity:1"
             transform="translate(91.925003,81.962997)">
            <path
               style="stroke:none"
               d="m 4.53125,-4.984375 c 0,-0.65625 -0.171875,-2.046875 -1.1875,-2.046875 -1.390625,0 -2.921875,2.8125 -2.921875,5.09375 0,0.9375 0.28125,2.046875 1.1875,2.046875 1.40625,0 2.921875,-2.859375 2.921875,-5.09375 z M 1.46875,-3.625 C 1.640625,-4.25 1.84375,-5.046875 2.25,-5.765625 2.515625,-6.25 2.875,-6.8125 3.328125,-6.8125 c 0.484375,0 0.546875,0.640625 0.546875,1.203125 0,0.5 -0.078125,1 -0.3125,1.984375 z m 2,0.328125 C 3.359375,-2.84375 3.15625,-2 2.765625,-1.28125 c -0.34375,0.6875 -0.71875,1.171875 -1.15625,1.171875 -0.328125,0 -0.53125,-0.296875 -0.53125,-1.21875 0,-0.421875 0.0625,-1 0.3125,-1.96875 z m 0,0"
               id="path9498" />
          </g>
        </g>
      </g>
    </g>
    <g
       inkscape:label=""
       transform="translate(-1.1456255,59.611559)"
       id="g2144"
       style="fill:#1f38c5;fill-opacity:1">
      <g
         id="g1314"
         style="fill:#1f38c5;fill-opacity:1">
        <g
           style="fill:#1f38c5;fill-opacity:1"
           id="g8689">
          <g
             id="use5751"
             transform="translate(91.925003,81.962997)"
             style="fill:#1f38c5;fill-opacity:1">
            <path
               style="fill:#1f38c5;fill-opacity:1;stroke:none"
               d="m 4.53125,-4.984375 c 0,-0.65625 -0.171875,-2.046875 -1.1875,-2.046875 -1.390625,0 -2.921875,2.8125 -2.921875,5.09375 0,0.9375 0.28125,2.046875 1.1875,2.046875 1.40625,0 2.921875,-2.859375 2.921875,-5.09375 z M 1.46875,-3.625 C 1.640625,-4.25 1.84375,-5.046875 2.25,-5.765625 2.515625,-6.25 2.875,-6.8125 3.328125,-6.8125 c 0.484375,0 0.546875,0.640625 0.546875,1.203125 0,0.5 -0.078125,1 -0.3125,1.984375 z m 2,0.328125 C 3.359375,-2.84375 3.15625,-2 2.765625,-1.28125 c -0.34375,0.6875 -0.71875,1.171875 -1.15625,1.171875 -0.328125,0 -0.53125,-0.296875 -0.53125,-1.21875 0,-0.421875 0.0625,-1 0.3125,-1.96875 z m 0,0"
               id="path9478" />
          </g>
        </g>
        <g
           style="fill:#1f38c5;fill-opacity:1"
           id="g7514">
          <g
             id="use1332"
             transform="translate(96.601997,83.457001)"
             style="fill:#1f38c5;fill-opacity:1">
            <path
               style="fill:#1f38c5;fill-opacity:1;stroke:none"
               d="m 2.265625,-4.359375 c 0,-0.109375 -0.09375,-0.265625 -0.28125,-0.265625 -0.1875,0 -0.390625,0.1875 -0.390625,0.390625 0,0.109375 0.078125,0.265625 0.28125,0.265625 0.1875,0 0.390625,-0.203125 0.390625,-0.390625 z M 0.84375,-0.8125 c -0.03125,0.09375 -0.0625,0.171875 -0.0625,0.296875 0,0.328125 0.265625,0.578125 0.65625,0.578125 0.6875,0 1,-0.953125 1,-1.0625 0,-0.09375 -0.09375,-0.09375 -0.109375,-0.09375 -0.09375,0 -0.109375,0.046875 -0.140625,0.125 -0.15625,0.5625 -0.453125,0.84375 -0.734375,0.84375 -0.140625,0 -0.171875,-0.09375 -0.171875,-0.25 0,-0.15625 0.046875,-0.28125 0.109375,-0.4375 C 1.46875,-1 1.546875,-1.1875 1.609375,-1.375 1.671875,-1.546875 1.9375,-2.171875 1.953125,-2.265625 1.984375,-2.328125 2,-2.40625 2,-2.484375 2,-2.8125 1.71875,-3.078125 1.34375,-3.078125 0.640625,-3.078125 0.328125,-2.125 0.328125,-2 c 0,0.078125 0.09375,0.078125 0.125,0.078125 0.09375,0 0.09375,-0.03125 0.125,-0.109375 C 0.75,-2.625 1.0625,-2.875 1.3125,-2.875 c 0.109375,0 0.171875,0.046875 0.171875,0.234375 0,0.171875 -0.03125,0.265625 -0.203125,0.703125 z m 0,0"
               id="path9474" />
          </g>
        </g>
      </g>
    </g>
    <text
       xml:space="preserve"
       style="font-size:7.05556px;line-height:1.25;font-family:'Noto Sans CJK JP';-inkscape-font-specification:'Noto Sans CJK JP';stroke-width:0.264583"
       x="45.782143"
       y="91.743462"
       id="text4400"><tspan
         sodipodi:role="line"
         id="tspan4398"
         style="fill:#ff0000;fill-opacity:1;stroke-width:0.264583"
         x="45.782143"
         y="91.743462">共通パラメータ</tspan></text>
    <text
       xml:space="preserve"
       style="font-size:7.05556px;line-height:1.25;font-family:'Noto Sans CJK JP';-inkscape-font-specification:'Noto Sans CJK JP';stroke-width:0.264583"
       x="61.407932"
       y="124.22619"
       id="text20885"><tspan
         sodipodi:role="line"
         id="tspan20883"
         style="stroke-width:0.264583"
         x="61.407932"
         y="124.22619">学習</tspan></text>
    <g
       inkscape:label=""
       transform="translate(14.370346,45.9015)"
       id="g1166">
      <g
         id="g1141">
        <g
           style="fill:#000000;fill-opacity:1"
           id="g9249">
          <use
             xlink:href="#symbol5262"
             x="91.925003"
             y="81.962997"
             id="use9283"
             width="100%"
             height="100%" />
        </g>
        <g
           style="fill:#000000;fill-opacity:1"
           id="g6565">
          <use
             xlink:href="#symbol5811"
             x="96.878998"
             y="77.848999"
             id="use9070"
             width="100%"
             height="100%" />
        </g>
        <g
           style="fill:#000000;fill-opacity:1"
           id="g2516">
          <use
             xlink:href="#symbol1820"
             x="96.601997"
             y="84.426003"
             id="use8156"
             width="100%"
             height="100%" />
        </g>
      </g>
    </g>
    <g
       id="g4204"
       transform="translate(-7.0590811)">
      <g
         inkscape:label=""
         transform="translate(-54.628233,66.293451)"
         id="g18633">
        <g
           id="g2987">
          <g
             style="fill:#000000;fill-opacity:1"
             id="g6195">
            <use
               xlink:href="#symbol8616"
               x="91.925003"
               y="81.962997"
               id="use2253"
               width="100%"
               height="100%" />
          </g>
        </g>
      </g>
      <text
         xml:space="preserve"
         style="font-size:7.05556px;line-height:1.25;font-family:'Noto Sans CJK JP';-inkscape-font-specification:'Noto Sans CJK JP';stroke-width:0.264583"
         x="22.588467"
         y="147.53131"
         id="text3373"><tspan
           sodipodi:role="line"
           id="tspan3371"
           style="stroke-width:0.264583"
           x="22.588467"
           y="147.53131">原点</tspan></text>
    </g>
  </g>
</svg>
