<?xml version="1.0" encoding="UTF-8" standalone="no"?>
<svg
   width="460.8pt"
   height="345.6pt"
   viewBox="0 0 460.8 345.6"
   version="1.1"
   id="svg338"
   sodipodi:docname="theta_i_cosine_average.svg"
   inkscape:version="1.1.2 (0a00cf5339, 2022-02-04)"
   xmlns:inkscape="http://www.inkscape.org/namespaces/inkscape"
   xmlns:sodipodi="http://sodipodi.sourceforge.net/DTD/sodipodi-0.dtd"
   xmlns:xlink="http://www.w3.org/1999/xlink"
   xmlns="http://www.w3.org/2000/svg"
   xmlns:svg="http://www.w3.org/2000/svg"
   xmlns:rdf="http://www.w3.org/1999/02/22-rdf-syntax-ns#"
   xmlns:cc="http://creativecommons.org/ns#"
   xmlns:dc="http://purl.org/dc/elements/1.1/">
  <sodipodi:namedview
     id="namedview340"
     pagecolor="#ffffff"
     bordercolor="#999999"
     borderopacity="1"
     inkscape:pageshadow="0"
     inkscape:pageopacity="0"
     inkscape:pagecheckerboard="0"
     inkscape:document-units="pt"
     showgrid="false"
     inkscape:zoom="1.3975694"
     inkscape:cx="306.9615"
     inkscape:cy="230.75777"
     inkscape:window-width="1920"
     inkscape:window-height="1007"
     inkscape:window-x="0"
     inkscape:window-y="0"
     inkscape:window-maximized="1"
     inkscape:current-layer="svg338" />
  <metadata
     id="metadata2">
    <rdf:RDF>
      <cc:Work>
        <dc:type
           rdf:resource="http://purl.org/dc/dcmitype/StillImage" />
        <dc:date>2024-03-11T04:56:13.092972</dc:date>
        <dc:format>image/svg+xml</dc:format>
        <dc:creator>
          <cc:Agent>
            <dc:title>Matplotlib v3.7.5, https://matplotlib.org/</dc:title>
          </cc:Agent>
        </dc:creator>
      </cc:Work>
    </rdf:RDF>
  </metadata>
  <defs
     id="defs6">
    <style
       type="text/css"
       id="style4">*{stroke-linejoin: round; stroke-linecap: butt}</style>
  </defs>
  <g
     id="figure_1">
    <g
       id="patch_1">
      <path
         d="M 0 345.6  L 460.8 345.6  L 460.8 0  L 0 0  z "
         style="fill: #ffffff"
         id="path8" />
    </g>
    <g
       id="axes_1">
      <g
         id="patch_2">
        <path
           d="M 81.43 224.75  L 450 224.75  L 450 26.88  L 81.43 26.88  z "
           style="fill: #ffffff"
           id="path11" />
      </g>
      <g
         id="matplotlib.axis_1">
        <g
           id="xtick_1">
          <g
             id="text_1">
            <!-- invL -->
            <g
               transform="translate(93.959554 231.75) rotate(-270) scale(0.5 -0.5)"
               id="g28">
              <defs
                 id="defs18">
                <path
                   id="DejaVuSans-69"
                   d="M 603 3500  L 1178 3500  L 1178 0  L 603 0  L 603 3500  z M 603 4863  L 1178 4863  L 1178 4134  L 603 4134  L 603 4863  z "
                   transform="scale(0.015625)" />
                <path
                   id="DejaVuSans-6e"
                   d="M 3513 2113  L 3513 0  L 2938 0  L 2938 2094  Q 2938 2591 2744 2837  Q 2550 3084 2163 3084  Q 1697 3084 1428 2787  Q 1159 2491 1159 1978  L 1159 0  L 581 0  L 581 3500  L 1159 3500  L 1159 2956  Q 1366 3272 1645 3428  Q 1925 3584 2291 3584  Q 2894 3584 3203 3211  Q 3513 2838 3513 2113  z "
                   transform="scale(0.015625)" />
                <path
                   id="DejaVuSans-76"
                   d="M 191 3500  L 800 3500  L 1894 563  L 2988 3500  L 3597 3500  L 2284 0  L 1503 0  L 191 3500  z "
                   transform="scale(0.015625)" />
                <path
                   id="DejaVuSans-4c"
                   d="M 628 4666  L 1259 4666  L 1259 531  L 3531 531  L 3531 0  L 628 0  L 628 4666  z "
                   transform="scale(0.015625)" />
              </defs>
              <use
                 xlink:href="#DejaVuSans-69"
                 id="use20" />
              <use
                 xlink:href="#DejaVuSans-6e"
                 x="27.783203"
                 id="use22" />
              <use
                 xlink:href="#DejaVuSans-76"
                 x="91.162109"
                 id="use24" />
              <use
                 xlink:href="#DejaVuSans-4c"
                 x="150.341797"
                 id="use26" />
            </g>
          </g>
        </g>
        <g
           id="xtick_2">
          <g
             id="text_2">
            <!-- UR -->
            <g
               transform="translate(146.612411 231.75) rotate(-270) scale(0.5 -0.5)"
               id="g40">
              <defs
                 id="defs34">
                <path
                   id="DejaVuSans-55"
                   d="M 556 4666  L 1191 4666  L 1191 1831  Q 1191 1081 1462 751  Q 1734 422 2344 422  Q 2950 422 3222 751  Q 3494 1081 3494 1831  L 3494 4666  L 4128 4666  L 4128 1753  Q 4128 841 3676 375  Q 3225 -91 2344 -91  Q 1459 -91 1007 375  Q 556 841 556 1753  L 556 4666  z "
                   transform="scale(0.015625)" />
                <path
                   id="DejaVuSans-52"
                   d="M 2841 2188  Q 3044 2119 3236 1894  Q 3428 1669 3622 1275  L 4263 0  L 3584 0  L 2988 1197  Q 2756 1666 2539 1819  Q 2322 1972 1947 1972  L 1259 1972  L 1259 0  L 628 0  L 628 4666  L 2053 4666  Q 2853 4666 3247 4331  Q 3641 3997 3641 3322  Q 3641 2881 3436 2590  Q 3231 2300 2841 2188  z M 1259 4147  L 1259 2491  L 2053 2491  Q 2509 2491 2742 2702  Q 2975 2913 2975 3322  Q 2975 3731 2742 3939  Q 2509 4147 2053 4147  L 1259 4147  z "
                   transform="scale(0.015625)" />
              </defs>
              <use
                 xlink:href="#DejaVuSans-55"
                 id="use36" />
              <use
                 xlink:href="#DejaVuSans-52"
                 x="73.193359"
                 id="use38" />
            </g>
          </g>
        </g>
        <g
           id="xtick_3">
          <g
             id="text_3">
            <!-- L -->
            <g
               transform="translate(199.265268 231.75) rotate(-270) scale(0.5 -0.5)"
               id="g46">
              <use
                 xlink:href="#DejaVuSans-4c"
                 id="use44" />
            </g>
          </g>
        </g>
        <g
           id="xtick_4">
          <g
             id="text_4">
            <!-- tiL -->
            <g
               transform="translate(251.918125 231.75) rotate(-270) scale(0.5 -0.5)"
               id="g59">
              <defs
                 id="defs51">
                <path
                   id="DejaVuSans-74"
                   d="M 1172 4494  L 1172 3500  L 2356 3500  L 2356 3053  L 1172 3053  L 1172 1153  Q 1172 725 1289 603  Q 1406 481 1766 481  L 2356 481  L 2356 0  L 1766 0  Q 1100 0 847 248  Q 594 497 594 1153  L 594 3053  L 172 3053  L 172 3500  L 594 3500  L 594 4494  L 1172 4494  z "
                   transform="scale(0.015625)" />
              </defs>
              <use
                 xlink:href="#DejaVuSans-74"
                 id="use53" />
              <use
                 xlink:href="#DejaVuSans-69"
                 x="39.208984"
                 id="use55" />
              <use
                 xlink:href="#DejaVuSans-4c"
                 x="66.992188"
                 id="use57" />
            </g>
          </g>
        </g>
        <g
           id="xtick_5">
          <g
             id="text_5">
            <!-- s2 -->
            <g
               transform="translate(304.570982 231.75) rotate(-270) scale(0.5 -0.5)"
               id="g71">
              <defs
                 id="defs65">
                <path
                   id="DejaVuSans-73"
                   d="M 2834 3397  L 2834 2853  Q 2591 2978 2328 3040  Q 2066 3103 1784 3103  Q 1356 3103 1142 2972  Q 928 2841 928 2578  Q 928 2378 1081 2264  Q 1234 2150 1697 2047  L 1894 2003  Q 2506 1872 2764 1633  Q 3022 1394 3022 966  Q 3022 478 2636 193  Q 2250 -91 1575 -91  Q 1294 -91 989 -36  Q 684 19 347 128  L 347 722  Q 666 556 975 473  Q 1284 391 1588 391  Q 1994 391 2212 530  Q 2431 669 2431 922  Q 2431 1156 2273 1281  Q 2116 1406 1581 1522  L 1381 1569  Q 847 1681 609 1914  Q 372 2147 372 2553  Q 372 3047 722 3315  Q 1072 3584 1716 3584  Q 2034 3584 2315 3537  Q 2597 3491 2834 3397  z "
                   transform="scale(0.015625)" />
                <path
                   id="DejaVuSans-32"
                   d="M 1228 531  L 3431 531  L 3431 0  L 469 0  L 469 531  Q 828 903 1448 1529  Q 2069 2156 2228 2338  Q 2531 2678 2651 2914  Q 2772 3150 2772 3378  Q 2772 3750 2511 3984  Q 2250 4219 1831 4219  Q 1534 4219 1204 4116  Q 875 4013 500 3803  L 500 4441  Q 881 4594 1212 4672  Q 1544 4750 1819 4750  Q 2544 4750 2975 4387  Q 3406 4025 3406 3419  Q 3406 3131 3298 2873  Q 3191 2616 2906 2266  Q 2828 2175 2409 1742  Q 1991 1309 1228 531  z "
                   transform="scale(0.015625)" />
              </defs>
              <use
                 xlink:href="#DejaVuSans-73"
                 id="use67" />
              <use
                 xlink:href="#DejaVuSans-32"
                 x="52.099609"
                 id="use69" />
            </g>
          </g>
        </g>
        <g
           id="xtick_6">
          <g
             id="text_6">
            <!-- s0 -->
            <g
               transform="translate(357.223839 231.75) rotate(-270) scale(0.5 -0.5)"
               id="g82">
              <defs
                 id="defs76">
                <path
                   id="DejaVuSans-30"
                   d="M 2034 4250  Q 1547 4250 1301 3770  Q 1056 3291 1056 2328  Q 1056 1369 1301 889  Q 1547 409 2034 409  Q 2525 409 2770 889  Q 3016 1369 3016 2328  Q 3016 3291 2770 3770  Q 2525 4250 2034 4250  z M 2034 4750  Q 2819 4750 3233 4129  Q 3647 3509 3647 2328  Q 3647 1150 3233 529  Q 2819 -91 2034 -91  Q 1250 -91 836 529  Q 422 1150 422 2328  Q 422 3509 836 4129  Q 1250 4750 2034 4750  z "
                   transform="scale(0.015625)" />
              </defs>
              <use
                 xlink:href="#DejaVuSans-73"
                 id="use78" />
              <use
                 xlink:href="#DejaVuSans-30"
                 x="52.099609"
                 id="use80" />
            </g>
          </g>
        </g>
        <g
           id="xtick_7">
          <g
             id="text_7">
            <!-- s1 -->
            <g
               transform="translate(409.876696 231.75) rotate(-270) scale(0.5 -0.5)"
               id="g93">
              <defs
                 id="defs87">
                <path
                   id="DejaVuSans-31"
                   d="M 794 531  L 1825 531  L 1825 4091  L 703 3866  L 703 4441  L 1819 4666  L 2450 4666  L 2450 531  L 3481 531  L 3481 0  L 794 0  L 794 531  z "
                   transform="scale(0.015625)" />
              </defs>
              <use
                 xlink:href="#DejaVuSans-73"
                 id="use89" />
              <use
                 xlink:href="#DejaVuSans-31"
                 x="52.099609"
                 id="use91" />
            </g>
          </g>
        </g>
      </g>
      <g
         id="matplotlib.axis_2">
        <g
           id="ytick_1">
          <g
             id="line2d_1">
            <defs
               id="defs99">
              <path
                 id="ma7e7629ebc"
                 d="M 0 0  L -3.5 0  "
                 style="stroke: #000000; stroke-width: 0.8" />
            </defs>
            <g
               id="g103">
              <use
                 xlink:href="#ma7e7629ebc"
                 x="81.43"
                 y="224.75"
                 style="stroke: #000000; stroke-width: 0.8"
                 id="use101" />
            </g>
          </g>
          <g
             id="text_8">
            <!-- 0.0 -->
            <g
               transform="translate(10.8175 239.946875) scale(0.4 -0.4)"
               id="g115">
              <defs
                 id="defs107">
                <path
                   id="DejaVuSans-2e"
                   d="M 684 794  L 1344 794  L 1344 0  L 684 0  L 684 794  z "
                   transform="scale(0.015625)" />
              </defs>
              <use
                 xlink:href="#DejaVuSans-30"
                 id="use109" />
              <use
                 xlink:href="#DejaVuSans-2e"
                 x="63.623047"
                 id="use111" />
              <use
                 xlink:href="#DejaVuSans-30"
                 x="95.410156"
                 id="use113" />
            </g>
          </g>
        </g>
        <g
           id="ytick_2">
          <g
             id="line2d_2">
            <g
               id="g121">
              <use
                 xlink:href="#ma7e7629ebc"
                 x="81.43"
                 y="193.528398"
                 style="stroke: #000000; stroke-width: 0.8"
                 id="use119" />
            </g>
          </g>
          <g
             id="text_9">
            <!-- 0.5 -->
            <g
               transform="translate(10.8175 208.725273) scale(0.4 -0.4)"
               id="g133">
              <defs
                 id="defs125">
                <path
                   id="DejaVuSans-35"
                   d="M 691 4666  L 3169 4666  L 3169 4134  L 1269 4134  L 1269 2991  Q 1406 3038 1543 3061  Q 1681 3084 1819 3084  Q 2600 3084 3056 2656  Q 3513 2228 3513 1497  Q 3513 744 3044 326  Q 2575 -91 1722 -91  Q 1428 -91 1123 -41  Q 819 9 494 109  L 494 744  Q 775 591 1075 516  Q 1375 441 1709 441  Q 2250 441 2565 725  Q 2881 1009 2881 1497  Q 2881 1984 2565 2268  Q 2250 2553 1709 2553  Q 1456 2553 1204 2497  Q 953 2441 691 2322  L 691 4666  z "
                   transform="scale(0.015625)" />
              </defs>
              <use
                 xlink:href="#DejaVuSans-30"
                 id="use127" />
              <use
                 xlink:href="#DejaVuSans-2e"
                 x="63.623047"
                 id="use129" />
              <use
                 xlink:href="#DejaVuSans-35"
                 x="95.410156"
                 id="use131" />
            </g>
          </g>
        </g>
        <g
           id="ytick_3">
          <g
             id="line2d_3">
            <g
               id="g139">
              <use
                 xlink:href="#ma7e7629ebc"
                 x="81.43"
                 y="162.306796"
                 style="stroke: #000000; stroke-width: 0.8"
                 id="use137" />
            </g>
          </g>
          <g
             id="text_10">
            <!-- 1.0 -->
            <g
               transform="translate(10.8175 177.503671) scale(0.4 -0.4)"
               id="g148">
              <use
                 xlink:href="#DejaVuSans-31"
                 id="use142" />
              <use
                 xlink:href="#DejaVuSans-2e"
                 x="63.623047"
                 id="use144" />
              <use
                 xlink:href="#DejaVuSans-30"
                 x="95.410156"
                 id="use146" />
            </g>
          </g>
        </g>
        <g
           id="ytick_4">
          <g
             id="line2d_4">
            <g
               id="g154">
              <use
                 xlink:href="#ma7e7629ebc"
                 x="81.43"
                 y="131.085194"
                 style="stroke: #000000; stroke-width: 0.8"
                 id="use152" />
            </g>
          </g>
          <g
             id="text_11">
            <!-- 1.5 -->
            <g
               transform="translate(10.8175 146.282069) scale(0.4 -0.4)"
               id="g163">
              <use
                 xlink:href="#DejaVuSans-31"
                 id="use157" />
              <use
                 xlink:href="#DejaVuSans-2e"
                 x="63.623047"
                 id="use159" />
              <use
                 xlink:href="#DejaVuSans-35"
                 x="95.410156"
                 id="use161" />
            </g>
          </g>
        </g>
        <g
           id="ytick_5">
          <g
             id="line2d_5">
            <g
               id="g169">
              <use
                 xlink:href="#ma7e7629ebc"
                 x="81.43"
                 y="99.863591"
                 style="stroke: #000000; stroke-width: 0.8"
                 id="use167" />
            </g>
          </g>
          <g
             id="text_12">
            <!-- 2.0 -->
            <g
               transform="translate(10.8175 115.060466) scale(0.4 -0.4)"
               id="g178">
              <use
                 xlink:href="#DejaVuSans-32"
                 id="use172" />
              <use
                 xlink:href="#DejaVuSans-2e"
                 x="63.623047"
                 id="use174" />
              <use
                 xlink:href="#DejaVuSans-30"
                 x="95.410156"
                 id="use176" />
            </g>
          </g>
        </g>
        <g
           id="ytick_6">
          <g
             id="line2d_6">
            <g
               id="g184">
              <use
                 xlink:href="#ma7e7629ebc"
                 x="81.43"
                 y="68.641989"
                 style="stroke: #000000; stroke-width: 0.8"
                 id="use182" />
            </g>
          </g>
          <g
             id="text_13">
            <!-- 2.5 -->
            <g
               transform="translate(10.8175 83.838864) scale(0.4 -0.4)"
               id="g193">
              <use
                 xlink:href="#DejaVuSans-32"
                 id="use187" />
              <use
                 xlink:href="#DejaVuSans-2e"
                 x="63.623047"
                 id="use189" />
              <use
                 xlink:href="#DejaVuSans-35"
                 x="95.410156"
                 id="use191" />
            </g>
          </g>
        </g>
        <g
           id="ytick_7">
          <g
             id="line2d_7">
            <g
               id="g199">
              <use
                 xlink:href="#ma7e7629ebc"
                 x="81.43"
                 y="37.420387"
                 style="stroke: #000000; stroke-width: 0.8"
                 id="use197" />
            </g>
          </g>
          <g
             id="text_14">
            <!-- 3.0 -->
            <g
               transform="translate(10.8175 52.617262) scale(0.4 -0.4)"
               id="g211">
              <defs
                 id="defs203">
                <path
                   id="DejaVuSans-33"
                   d="M 2597 2516  Q 3050 2419 3304 2112  Q 3559 1806 3559 1356  Q 3559 666 3084 287  Q 2609 -91 1734 -91  Q 1441 -91 1130 -33  Q 819 25 488 141  L 488 750  Q 750 597 1062 519  Q 1375 441 1716 441  Q 2309 441 2620 675  Q 2931 909 2931 1356  Q 2931 1769 2642 2001  Q 2353 2234 1838 2234  L 1294 2234  L 1294 2753  L 1863 2753  Q 2328 2753 2575 2939  Q 2822 3125 2822 3475  Q 2822 3834 2567 4026  Q 2313 4219 1838 4219  Q 1578 4219 1281 4162  Q 984 4106 628 3988  L 628 4550  Q 988 4650 1302 4700  Q 1616 4750 1894 4750  Q 2613 4750 3031 4423  Q 3450 4097 3450 3541  Q 3450 3153 3228 2886  Q 3006 2619 2597 2516  z "
                   transform="scale(0.015625)" />
              </defs>
              <use
                 xlink:href="#DejaVuSans-33"
                 id="use205" />
              <use
                 xlink:href="#DejaVuSans-2e"
                 x="63.623047"
                 id="use207" />
              <use
                 xlink:href="#DejaVuSans-30"
                 x="95.410156"
                 id="use209" />
            </g>
          </g>
        </g>
        <g
           id="text_15">
          <!-- 1e−5 -->
          <g
             transform="translate(81.43 23.88) scale(0.1 -0.1)"
             id="g227">
            <defs
               id="defs217">
              <path
                 id="DejaVuSans-65"
                 d="M 3597 1894  L 3597 1613  L 953 1613  Q 991 1019 1311 708  Q 1631 397 2203 397  Q 2534 397 2845 478  Q 3156 559 3463 722  L 3463 178  Q 3153 47 2828 -22  Q 2503 -91 2169 -91  Q 1331 -91 842 396  Q 353 884 353 1716  Q 353 2575 817 3079  Q 1281 3584 2069 3584  Q 2775 3584 3186 3129  Q 3597 2675 3597 1894  z M 3022 2063  Q 3016 2534 2758 2815  Q 2500 3097 2075 3097  Q 1594 3097 1305 2825  Q 1016 2553 972 2059  L 3022 2063  z "
                 transform="scale(0.015625)" />
              <path
                 id="DejaVuSans-2212"
                 d="M 678 2272  L 4684 2272  L 4684 1741  L 678 1741  L 678 2272  z "
                 transform="scale(0.015625)" />
            </defs>
            <use
               xlink:href="#DejaVuSans-31"
               id="use219" />
            <use
               xlink:href="#DejaVuSans-65"
               x="63.623047"
               id="use221" />
            <use
               xlink:href="#DejaVuSans-2212"
               x="125.146484"
               id="use223" />
            <use
               xlink:href="#DejaVuSans-35"
               x="208.935547"
               id="use225" />
          </g>
        </g>
      </g>
      <g
         id="LineCollection_1">
        <path
           d="M 107.756429 224.75  L 107.756429 145.890179  L 160.409286 145.890179  L 160.409286 224.75  "
           clip-path="url(#pc1722d3093)"
           style="fill: none; stroke: #ff7f0e; stroke-width: 1.5"
           id="path231" />
        <path
           d="M 213.062143 224.75  L 213.062143 139.331495  L 265.715 139.331495  L 265.715 224.75  "
           clip-path="url(#pc1722d3093)"
           style="fill: none; stroke: #ff7f0e; stroke-width: 1.5"
           id="path233" />
        <path
           d="M 134.082857 145.890179  L 134.082857 132.430277  L 239.388571 132.430277  L 239.388571 139.331495  "
           clip-path="url(#pc1722d3093)"
           style="fill: none; stroke: #ff7f0e; stroke-width: 1.5"
           id="path235" />
      </g>
      <g
         id="LineCollection_2">
        <path
           d="M 371.020714 224.75  L 371.020714 127.827984  L 423.673571 127.827984  L 423.673571 224.75  "
           clip-path="url(#pc1722d3093)"
           style="fill: none; stroke: #2ca02c; stroke-width: 1.5"
           id="path238" />
        <path
           d="M 318.367857 224.75  L 318.367857 112.570841  L 397.347143 112.570841  L 397.347143 127.827984  "
           clip-path="url(#pc1722d3093)"
           style="fill: none; stroke: #2ca02c; stroke-width: 1.5"
           id="path240" />
      </g>
      <g
         id="LineCollection_3">
        <path
           d="M 186.735714 132.430277  L 186.735714 36.302381  L 357.8575 36.302381  L 357.8575 112.570841  "
           clip-path="url(#pc1722d3093)"
           style="fill: none; stroke: #1f77b4; stroke-width: 1.5"
           id="path243" />
      </g>
      <g
         id="LineCollection_4">
        <path
           d="M 186.735714 132.430277  L 186.735714 36.302381  L 357.8575 36.302381  L 357.8575 112.570841  "
           clip-path="url(#pc1722d3093)"
           style="fill: none; stroke: #1f77b4; stroke-width: 10"
           id="path246" />
        <path
           d="M 318.367857 224.75  L 318.367857 112.570841  L 397.347143 112.570841  L 397.347143 127.827984  "
           clip-path="url(#pc1722d3093)"
           style="fill: none; stroke: #1f77b4; stroke-width: 10"
           id="path248" />
        <path
           d="M 371.020714 224.75  L 371.020714 127.827984  L 423.673571 127.827984  L 423.673571 224.75  "
           clip-path="url(#pc1722d3093)"
           style="fill: none; stroke: #1f77b4; stroke-width: 10"
           id="path250" />
        <path
           d="M 134.082857 145.890179  L 134.082857 132.430277  L 239.388571 132.430277  L 239.388571 139.331495  "
           clip-path="url(#pc1722d3093)"
           style="fill: none; stroke: #1f77b4; stroke-width: 10"
           id="path252" />
        <path
           d="M 213.062143 224.75  L 213.062143 139.331495  L 265.715 139.331495  L 265.715 224.75  "
           clip-path="url(#pc1722d3093)"
           style="fill: none; stroke: #1f77b4; stroke-width: 10"
           id="path254" />
        <path
           d="M 107.756429 224.75  L 107.756429 145.890179  L 160.409286 145.890179  L 160.409286 224.75  "
           clip-path="url(#pc1722d3093)"
           style="fill: none; stroke: #1f77b4; stroke-width: 10"
           id="path256" />
      </g>
      <g
         id="patch_3">
        <path
           d="M 81.43 224.75  L 81.43 26.88  "
           style="fill: none; stroke: #000000; stroke-width: 0.8; stroke-linejoin: miter; stroke-linecap: square"
           id="path259" />
      </g>
      <g
         id="patch_4">
        <path
           d="M 450 224.75  L 450 26.88  "
           style="fill: none; stroke: #000000; stroke-width: 0.8; stroke-linejoin: miter; stroke-linecap: square"
           id="path262" />
      </g>
      <g
         id="patch_5">
        <path
           d="M 81.43 224.75  L 450 224.75  "
           style="fill: none; stroke: #000000; stroke-width: 0.8; stroke-linejoin: miter; stroke-linecap: square"
           id="path265" />
      </g>
      <g
         id="patch_6">
        <path
           d="M 81.43 26.88  L 450 26.88  "
           style="fill: none; stroke: #000000; stroke-width: 0.8; stroke-linejoin: miter; stroke-linecap: square"
           id="path268" />
      </g>
      <g
         id="text_16">
        <!-- theta_i_cosine_average_0 -->
        <g
           transform="translate(188.533438 20.88) scale(0.12 -0.12)"
           id="g328">
          <defs
             id="defs278">
            <path
               id="DejaVuSans-68"
               d="M 3513 2113  L 3513 0  L 2938 0  L 2938 2094  Q 2938 2591 2744 2837  Q 2550 3084 2163 3084  Q 1697 3084 1428 2787  Q 1159 2491 1159 1978  L 1159 0  L 581 0  L 581 4863  L 1159 4863  L 1159 2956  Q 1366 3272 1645 3428  Q 1925 3584 2291 3584  Q 2894 3584 3203 3211  Q 3513 2838 3513 2113  z "
               transform="scale(0.015625)" />
            <path
               id="DejaVuSans-61"
               d="M 2194 1759  Q 1497 1759 1228 1600  Q 959 1441 959 1056  Q 959 750 1161 570  Q 1363 391 1709 391  Q 2188 391 2477 730  Q 2766 1069 2766 1631  L 2766 1759  L 2194 1759  z M 3341 1997  L 3341 0  L 2766 0  L 2766 531  Q 2569 213 2275 61  Q 1981 -91 1556 -91  Q 1019 -91 701 211  Q 384 513 384 1019  Q 384 1609 779 1909  Q 1175 2209 1959 2209  L 2766 2209  L 2766 2266  Q 2766 2663 2505 2880  Q 2244 3097 1772 3097  Q 1472 3097 1187 3025  Q 903 2953 641 2809  L 641 3341  Q 956 3463 1253 3523  Q 1550 3584 1831 3584  Q 2591 3584 2966 3190  Q 3341 2797 3341 1997  z "
               transform="scale(0.015625)" />
            <path
               id="DejaVuSans-5f"
               d="M 3263 -1063  L 3263 -1509  L -63 -1509  L -63 -1063  L 3263 -1063  z "
               transform="scale(0.015625)" />
            <path
               id="DejaVuSans-63"
               d="M 3122 3366  L 3122 2828  Q 2878 2963 2633 3030  Q 2388 3097 2138 3097  Q 1578 3097 1268 2742  Q 959 2388 959 1747  Q 959 1106 1268 751  Q 1578 397 2138 397  Q 2388 397 2633 464  Q 2878 531 3122 666  L 3122 134  Q 2881 22 2623 -34  Q 2366 -91 2075 -91  Q 1284 -91 818 406  Q 353 903 353 1747  Q 353 2603 823 3093  Q 1294 3584 2113 3584  Q 2378 3584 2631 3529  Q 2884 3475 3122 3366  z "
               transform="scale(0.015625)" />
            <path
               id="DejaVuSans-6f"
               d="M 1959 3097  Q 1497 3097 1228 2736  Q 959 2375 959 1747  Q 959 1119 1226 758  Q 1494 397 1959 397  Q 2419 397 2687 759  Q 2956 1122 2956 1747  Q 2956 2369 2687 2733  Q 2419 3097 1959 3097  z M 1959 3584  Q 2709 3584 3137 3096  Q 3566 2609 3566 1747  Q 3566 888 3137 398  Q 2709 -91 1959 -91  Q 1206 -91 779 398  Q 353 888 353 1747  Q 353 2609 779 3096  Q 1206 3584 1959 3584  z "
               transform="scale(0.015625)" />
            <path
               id="DejaVuSans-72"
               d="M 2631 2963  Q 2534 3019 2420 3045  Q 2306 3072 2169 3072  Q 1681 3072 1420 2755  Q 1159 2438 1159 1844  L 1159 0  L 581 0  L 581 3500  L 1159 3500  L 1159 2956  Q 1341 3275 1631 3429  Q 1922 3584 2338 3584  Q 2397 3584 2469 3576  Q 2541 3569 2628 3553  L 2631 2963  z "
               transform="scale(0.015625)" />
            <path
               id="DejaVuSans-67"
               d="M 2906 1791  Q 2906 2416 2648 2759  Q 2391 3103 1925 3103  Q 1463 3103 1205 2759  Q 947 2416 947 1791  Q 947 1169 1205 825  Q 1463 481 1925 481  Q 2391 481 2648 825  Q 2906 1169 2906 1791  z M 3481 434  Q 3481 -459 3084 -895  Q 2688 -1331 1869 -1331  Q 1566 -1331 1297 -1286  Q 1028 -1241 775 -1147  L 775 -588  Q 1028 -725 1275 -790  Q 1522 -856 1778 -856  Q 2344 -856 2625 -561  Q 2906 -266 2906 331  L 2906 616  Q 2728 306 2450 153  Q 2172 0 1784 0  Q 1141 0 747 490  Q 353 981 353 1791  Q 353 2603 747 3093  Q 1141 3584 1784 3584  Q 2172 3584 2450 3431  Q 2728 3278 2906 2969  L 2906 3500  L 3481 3500  L 3481 434  z "
               transform="scale(0.015625)" />
          </defs>
          <use
             xlink:href="#DejaVuSans-74"
             id="use280" />
          <use
             xlink:href="#DejaVuSans-68"
             x="39.208984"
             id="use282" />
          <use
             xlink:href="#DejaVuSans-65"
             x="102.587891"
             id="use284" />
          <use
             xlink:href="#DejaVuSans-74"
             x="164.111328"
             id="use286" />
          <use
             xlink:href="#DejaVuSans-61"
             x="203.320312"
             id="use288" />
          <use
             xlink:href="#DejaVuSans-5f"
             x="264.599609"
             id="use290" />
          <use
             xlink:href="#DejaVuSans-69"
             x="314.599609"
             id="use292" />
          <use
             xlink:href="#DejaVuSans-5f"
             x="342.382812"
             id="use294" />
          <use
             xlink:href="#DejaVuSans-63"
             x="392.382812"
             id="use296" />
          <use
             xlink:href="#DejaVuSans-6f"
             x="447.363281"
             id="use298" />
          <use
             xlink:href="#DejaVuSans-73"
             x="508.544922"
             id="use300" />
          <use
             xlink:href="#DejaVuSans-69"
             x="560.644531"
             id="use302" />
          <use
             xlink:href="#DejaVuSans-6e"
             x="588.427734"
             id="use304" />
          <use
             xlink:href="#DejaVuSans-65"
             x="651.806641"
             id="use306" />
          <use
             xlink:href="#DejaVuSans-5f"
             x="713.330078"
             id="use308" />
          <use
             xlink:href="#DejaVuSans-61"
             x="763.330078"
             id="use310" />
          <use
             xlink:href="#DejaVuSans-76"
             x="824.609375"
             id="use312" />
          <use
             xlink:href="#DejaVuSans-65"
             x="883.789062"
             id="use314" />
          <use
             xlink:href="#DejaVuSans-72"
             x="945.3125"
             id="use316" />
          <use
             xlink:href="#DejaVuSans-61"
             x="986.425781"
             id="use318" />
          <use
             xlink:href="#DejaVuSans-67"
             x="1047.705078"
             id="use320" />
          <use
             xlink:href="#DejaVuSans-65"
             x="1111.181641"
             id="use322" />
          <use
             xlink:href="#DejaVuSans-5f"
             x="1172.705078"
             id="use324" />
          <use
             xlink:href="#DejaVuSans-30"
             x="1222.705078"
             id="use326" />
        </g>
      </g>
    </g>
  </g>
  <defs
     id="defs336">
    <clipPath
       id="pc1722d3093">
      <rect
         x="81.43"
         y="26.88"
         width="368.57"
         height="197.87"
         id="rect333" />
    </clipPath>
  </defs>
  <rect
     style="fill:none;stroke:#ff0000;stroke-width:9.99998;stroke-linecap:butt;stroke-linejoin:round;stroke-miterlimit:4;stroke-dasharray:none;stroke-opacity:1"
     id="rect3483"
     width="103.32669"
     height="285.39099"
     x="86.863983"
     y="55.209019"
     ry="18.487801" />
  <rect
     style="fill:none;stroke:#0000ff;stroke-width:9.99998;stroke-linecap:butt;stroke-linejoin:round;stroke-miterlimit:4;stroke-dasharray:none;stroke-opacity:1"
     id="rect3483-3"
     width="156.45464"
     height="285.39099"
     x="297.62051"
     y="55.209019"
     ry="18.487801" />
</svg>
