<?xml version="1.0" encoding="UTF-8" standalone="no"?>
<!-- Created with Inkscape (http://www.inkscape.org/) -->

<svg
   width="72.154732mm"
   height="66.167603mm"
   viewBox="0 0 72.154733 66.167606"
   version="1.1"
   id="svg5"
   inkscape:version="1.1.2 (0a00cf5339, 2022-02-04)"
   sodipodi:docname="theta_grad.svg"
   xmlns:inkscape="http://www.inkscape.org/namespaces/inkscape"
   xmlns:sodipodi="http://sodipodi.sourceforge.net/DTD/sodipodi-0.dtd"
   xmlns:xlink="http://www.w3.org/1999/xlink"
   xmlns="http://www.w3.org/2000/svg"
   xmlns:svg="http://www.w3.org/2000/svg">
  <sodipodi:namedview
     id="namedview7"
     pagecolor="#ffffff"
     bordercolor="#999999"
     borderopacity="1"
     inkscape:pageshadow="0"
     inkscape:pageopacity="0"
     inkscape:pagecheckerboard="0"
     inkscape:document-units="mm"
     showgrid="false"
     inkscape:zoom="1.6226949"
     inkscape:cx="86.276231"
     inkscape:cy="249.89294"
     inkscape:window-width="1920"
     inkscape:window-height="1007"
     inkscape:window-x="0"
     inkscape:window-y="0"
     inkscape:window-maximized="1"
     inkscape:current-layer="layer1" />
  <defs
     id="defs2">
    <marker
       style="overflow:visible"
       id="Arrow1Mend"
       refX="0"
       refY="0"
       orient="auto"
       inkscape:stockid="Arrow1Mend"
       inkscape:isstock="true">
      <path
         transform="matrix(-0.4,0,0,-0.4,-4,0)"
         style="fill:context-stroke;fill-rule:evenodd;stroke:context-stroke;stroke-width:1pt"
         d="M 0,0 5,-5 -12.5,0 5,5 Z"
         id="path9589" />
    </marker>
    <marker
       style="overflow:visible"
       id="Arrow1Lend"
       refX="0"
       refY="0"
       orient="auto"
       inkscape:stockid="Arrow1Lend"
       inkscape:isstock="true">
      <path
         transform="matrix(-0.8,0,0,-0.8,-10,0)"
         style="fill:context-stroke;fill-rule:evenodd;stroke:context-stroke;stroke-width:1pt"
         d="M 0,0 5,-5 -12.5,0 5,5 Z"
         id="path9583" />
    </marker>
    <marker
       style="overflow:visible"
       id="Arrow1Mend-6"
       refX="0"
       refY="0"
       orient="auto"
       inkscape:stockid="Arrow1Mend"
       inkscape:isstock="true">
      <path
         transform="matrix(-0.4,0,0,-0.4,-4,0)"
         style="fill:context-stroke;fill-rule:evenodd;stroke:context-stroke;stroke-width:1pt"
         d="M 0,0 5,-5 -12.5,0 5,5 Z"
         id="path9589-2" />
    </marker>
    <marker
       style="overflow:visible"
       id="Arrow1Mend-1"
       refX="0"
       refY="0"
       orient="auto"
       inkscape:stockid="Arrow1Mend"
       inkscape:isstock="true">
      <path
         transform="matrix(-0.4,0,0,-0.4,-4,0)"
         style="fill:context-stroke;fill-rule:evenodd;stroke:context-stroke;stroke-width:1pt"
         d="M 0,0 5,-5 -12.5,0 5,5 Z"
         id="path9589-27" />
    </marker>
    <marker
       style="overflow:visible"
       id="Arrow1Mend-9"
       refX="0"
       refY="0"
       orient="auto"
       inkscape:stockid="Arrow1Mend"
       inkscape:isstock="true">
      <path
         transform="matrix(-0.4,0,0,-0.4,-4,0)"
         style="fill:context-stroke;fill-rule:evenodd;stroke:context-stroke;stroke-width:1pt"
         d="M 0,0 5,-5 -12.5,0 5,5 Z"
         id="path9589-3" />
    </marker>
    <marker
       style="overflow:visible"
       id="Arrow1Mend-0"
       refX="0"
       refY="0"
       orient="auto"
       inkscape:stockid="Arrow1Mend"
       inkscape:isstock="true">
      <path
         transform="matrix(-0.4,0,0,-0.4,-4,0)"
         style="fill:context-stroke;fill-rule:evenodd;stroke:context-stroke;stroke-width:1pt"
         d="M 0,0 5,-5 -12.5,0 5,5 Z"
         id="path9589-6" />
    </marker>
    <marker
       style="overflow:visible"
       id="Arrow1Mend-61"
       refX="0"
       refY="0"
       orient="auto"
       inkscape:stockid="Arrow1Mend"
       inkscape:isstock="true">
      <path
         transform="matrix(-0.4,0,0,-0.4,-4,0)"
         style="fill:context-stroke;fill-rule:evenodd;stroke:context-stroke;stroke-width:1pt"
         d="M 0,0 5,-5 -12.5,0 5,5 Z"
         id="path9589-8" />
    </marker>
    <g
       id="g6796">
      <symbol
         overflow="visible"
         id="symbol9894">
        <path
           style="stroke:none"
           d=""
           id="path9374" />
      </symbol>
      <symbol
         overflow="visible"
         id="symbol288">
        <path
           style="stroke:none"
           d="m 4.53125,-4.984375 c 0,-0.65625 -0.171875,-2.046875 -1.1875,-2.046875 -1.390625,0 -2.921875,2.8125 -2.921875,5.09375 0,0.9375 0.28125,2.046875 1.1875,2.046875 1.40625,0 2.921875,-2.859375 2.921875,-5.09375 z M 1.46875,-3.625 C 1.640625,-4.25 1.84375,-5.046875 2.25,-5.765625 2.515625,-6.25 2.875,-6.8125 3.328125,-6.8125 c 0.484375,0 0.546875,0.640625 0.546875,1.203125 0,0.5 -0.078125,1 -0.3125,1.984375 z m 2,0.328125 C 3.359375,-2.84375 3.15625,-2 2.765625,-1.28125 c -0.34375,0.6875 -0.71875,1.171875 -1.15625,1.171875 -0.328125,0 -0.53125,-0.296875 -0.53125,-1.21875 0,-0.421875 0.0625,-1 0.3125,-1.96875 z m 0,0"
           id="path6579" />
      </symbol>
    </g>
    <g
       id="g6278">
      <symbol
         overflow="visible"
         id="symbol1708">
        <path
           style="stroke:none"
           d=""
           id="path8174" />
      </symbol>
      <symbol
         overflow="visible"
         id="symbol4331">
        <path
           style="stroke:none"
           d="m 4.53125,-4.984375 c 0,-0.65625 -0.171875,-2.046875 -1.1875,-2.046875 -1.390625,0 -2.921875,2.8125 -2.921875,5.09375 0,0.9375 0.28125,2.046875 1.1875,2.046875 1.40625,0 2.921875,-2.859375 2.921875,-5.09375 z M 1.46875,-3.625 C 1.640625,-4.25 1.84375,-5.046875 2.25,-5.765625 2.515625,-6.25 2.875,-6.8125 3.328125,-6.8125 c 0.484375,0 0.546875,0.640625 0.546875,1.203125 0,0.5 -0.078125,1 -0.3125,1.984375 z m 2,0.328125 C 3.359375,-2.84375 3.15625,-2 2.765625,-1.28125 c -0.34375,0.6875 -0.71875,1.171875 -1.15625,1.171875 -0.328125,0 -0.53125,-0.296875 -0.53125,-1.21875 0,-0.421875 0.0625,-1 0.3125,-1.96875 z m 0,0"
           id="path6647" />
      </symbol>
      <symbol
         overflow="visible"
         id="symbol9068">
        <path
           style="stroke:none"
           d=""
           id="path2389" />
      </symbol>
      <symbol
         overflow="visible"
         id="symbol5258">
        <path
           style="stroke:none"
           d="m 2.265625,-4.359375 c 0,-0.109375 -0.09375,-0.265625 -0.28125,-0.265625 -0.1875,0 -0.390625,0.1875 -0.390625,0.390625 0,0.109375 0.078125,0.265625 0.28125,0.265625 0.1875,0 0.390625,-0.203125 0.390625,-0.390625 z M 0.84375,-0.8125 c -0.03125,0.09375 -0.0625,0.171875 -0.0625,0.296875 0,0.328125 0.265625,0.578125 0.65625,0.578125 0.6875,0 1,-0.953125 1,-1.0625 0,-0.09375 -0.09375,-0.09375 -0.109375,-0.09375 -0.09375,0 -0.109375,0.046875 -0.140625,0.125 -0.15625,0.5625 -0.453125,0.84375 -0.734375,0.84375 -0.140625,0 -0.171875,-0.09375 -0.171875,-0.25 0,-0.15625 0.046875,-0.28125 0.109375,-0.4375 C 1.46875,-1 1.546875,-1.1875 1.609375,-1.375 1.671875,-1.546875 1.9375,-2.171875 1.953125,-2.265625 1.984375,-2.328125 2,-2.40625 2,-2.484375 2,-2.8125 1.71875,-3.078125 1.34375,-3.078125 0.640625,-3.078125 0.328125,-2.125 0.328125,-2 c 0,0.078125 0.09375,0.078125 0.125,0.078125 0.09375,0 0.09375,-0.03125 0.125,-0.109375 C 0.75,-2.625 1.0625,-2.875 1.3125,-2.875 c 0.109375,0 0.171875,0.046875 0.171875,0.234375 0,0.171875 -0.03125,0.265625 -0.203125,0.703125 z m 0,0"
           id="path1922" />
      </symbol>
    </g>
    <g
       id="g5972">
      <symbol
         overflow="visible"
         id="symbol5660">
        <path
           style="stroke:none"
           d=""
           id="path6253" />
      </symbol>
      <symbol
         overflow="visible"
         id="symbol3931">
        <path
           style="stroke:none"
           d="M 7.78125,-6.59375 C 7.796875,-6.625 7.828125,-6.6875 7.828125,-6.734375 7.828125,-6.796875 7.8125,-6.8125 7.59375,-6.8125 H 0.703125 c -0.21875,0 -0.234375,0.015625 -0.234375,0.078125 0,0.046875 0.03125,0.109375 0.046875,0.140625 L 3.875,0.140625 c 0.078125,0.125 0.109375,0.1875 0.265625,0.1875 0.171875,0 0.203125,-0.0625 0.28125,-0.1875 z m -6.078125,0.5 h 5.46875 l -2.71875,5.484375 z m 0,0"
           id="path7385" />
      </symbol>
      <symbol
         overflow="visible"
         id="symbol1244">
        <path
           style="stroke:none"
           d="M 1.796875,-0.921875 C 2.328125,-1.765625 2.5,-2.40625 2.625,-2.9375 2.984375,-4.3125 3.359375,-5.5 3.984375,-6.1875 4.09375,-6.3125 4.171875,-6.40625 4.5,-6.40625 c 0.6875,0 0.703125,0.6875 0.703125,0.828125 0,0.171875 -0.046875,0.3125 -0.046875,0.359375 0,0.078125 0.0625,0.078125 0.0625,0.078125 0.171875,0 0.4375,-0.109375 0.6875,-0.296875 0.171875,-0.140625 0.265625,-0.234375 0.265625,-0.640625 0,-0.546875 -0.28125,-0.953125 -0.84375,-0.953125 -0.3125,0 -1.1875,0.078125 -2.171875,1.0625 -0.796875,0.828125 -1.265625,2.625 -1.453125,3.359375 -0.171875,0.703125 -0.25,1 -0.5625,1.609375 -0.0625,0.109375 -0.328125,0.546875 -0.46875,0.6875 C 0.40625,-0.0625 0.3125,0.109375 0.3125,0.15625 c 0,0.015625 0.015625,0.0625 0.09375,0.0625 0.03125,0 0.234375,-0.046875 0.5,-0.203125 0.171875,-0.109375 0.1875,-0.125 0.421875,-0.359375 0.5,0 0.84375,0.09375 1.46875,0.28125 0.515625,0.125 1.015625,0.28125 1.53125,0.28125 0.8125,0 1.625,-0.609375 1.9375,-1.046875 C 6.46875,-1.09375 6.53125,-1.34375 6.53125,-1.375 c 0,-0.078125 -0.0625,-0.078125 -0.078125,-0.078125 -0.15625,0 -0.390625,0.125 -0.5625,0.234375 C 5.625,-1.046875 5.609375,-0.984375 5.546875,-0.8125 5.5,-0.65625 5.4375,-0.578125 5.390625,-0.515625 5.3125,-0.40625 5.296875,-0.40625 5.15625,-0.40625 4.671875,-0.40625 4.171875,-0.546875 3.515625,-0.734375 3.234375,-0.8125 2.6875,-0.96875 2.1875,-0.96875 c -0.125,0 -0.265625,0.015625 -0.390625,0.046875 z m 0,0"
           id="path1653" />
      </symbol>
      <symbol
         overflow="visible"
         id="symbol2357">
        <path
           style="stroke:none"
           d=""
           id="path1433" />
      </symbol>
      <symbol
         overflow="visible"
         id="symbol7649">
        <path
           style="stroke:none"
           d="m 3.5625,-3.390625 c 0,-0.734375 -0.28125,-1.515625 -0.96875,-1.515625 -1.046875,0 -2.15625,1.875 -2.15625,3.46875 0,0.828125 0.328125,1.5 0.96875,1.5 1.046875,0 2.15625,-1.890625 2.15625,-3.453125 z m -2.34375,0.84375 c 0.359375,-1.5 0.96875,-2.15625 1.375,-2.15625 0.4375,0 0.4375,0.765625 0.4375,0.890625 0,0.28125 -0.046875,0.6875 -0.1875,1.265625 z m 1.5625,0.25 C 2.578125,-1.53125 2.421875,-1.15625 2.203125,-0.8125 2,-0.453125 1.71875,-0.125 1.40625,-0.125 c -0.375,0 -0.4375,-0.53125 -0.4375,-0.90625 0,-0.453125 0.125,-1 0.1875,-1.265625 z m 0,0"
           id="path1064" />
      </symbol>
      <symbol
         overflow="visible"
         id="symbol7089">
        <path
           style="stroke:none"
           d="m 2.265625,-4.359375 c 0,-0.109375 -0.09375,-0.265625 -0.28125,-0.265625 -0.1875,0 -0.390625,0.1875 -0.390625,0.390625 0,0.109375 0.078125,0.265625 0.28125,0.265625 0.1875,0 0.390625,-0.203125 0.390625,-0.390625 z M 0.84375,-0.8125 c -0.03125,0.09375 -0.0625,0.171875 -0.0625,0.296875 0,0.328125 0.265625,0.578125 0.65625,0.578125 0.6875,0 1,-0.953125 1,-1.0625 0,-0.09375 -0.09375,-0.09375 -0.109375,-0.09375 -0.09375,0 -0.109375,0.046875 -0.140625,0.125 -0.15625,0.5625 -0.453125,0.84375 -0.734375,0.84375 -0.140625,0 -0.171875,-0.09375 -0.171875,-0.25 0,-0.15625 0.046875,-0.28125 0.109375,-0.4375 C 1.46875,-1 1.546875,-1.1875 1.609375,-1.375 1.671875,-1.546875 1.9375,-2.171875 1.953125,-2.265625 1.984375,-2.328125 2,-2.40625 2,-2.484375 2,-2.8125 1.71875,-3.078125 1.34375,-3.078125 0.640625,-3.078125 0.328125,-2.125 0.328125,-2 c 0,0.078125 0.09375,0.078125 0.125,0.078125 0.09375,0 0.09375,-0.03125 0.125,-0.109375 C 0.75,-2.625 1.0625,-2.875 1.3125,-2.875 c 0.109375,0 0.171875,0.046875 0.171875,0.234375 0,0.171875 -0.03125,0.265625 -0.203125,0.703125 z m 0,0"
           id="path9607" />
      </symbol>
    </g>
    <marker
       style="overflow:visible"
       refX="0"
       refY="0"
       orient="auto"
       inkscape:stockid="Arrow1Mend-98686"
       inkscape:isstock="true"
       id="Arrow1Mend-98686">
      <path
         transform="matrix(-0.4,0,0,-0.4,-4,0)"
         style="fill:#1f38c5;fill-rule:evenodd;stroke:#ff0000;stroke-width:1pt"
         d="M 0,0 5,-5 -12.5,0 5,5 Z"
         id="path1135" />
    </marker>
    <marker
       style="overflow:visible"
       refX="0"
       refY="0"
       orient="auto"
       inkscape:stockid="Arrow1Mend-986863582"
       inkscape:isstock="true"
       id="Arrow1Mend-986863582">
      <path
         transform="matrix(-0.4,0,0,-0.4,-4,0)"
         style="fill:#1f38c5;fill-rule:evenodd;stroke:#1f38c5;stroke-width:1pt"
         d="M 0,0 5,-5 -12.5,0 5,5 Z"
         id="path1301" />
    </marker>
    <g
       id="g5390">
      <symbol
         overflow="visible"
         id="symbol3827">
        <path
           style="stroke:none;"
           d=""
           id="path2626" />
      </symbol>
      <symbol
         overflow="visible"
         id="symbol711">
        <path
           style="stroke:none;"
           d="M 4.53125 -4.984375 C 4.53125 -5.640625 4.359375 -7.03125 3.34375 -7.03125 C 1.953125 -7.03125 0.421875 -4.21875 0.421875 -1.9375 C 0.421875 -1 0.703125 0.109375 1.609375 0.109375 C 3.015625 0.109375 4.53125 -2.75 4.53125 -4.984375 Z M 1.46875 -3.625 C 1.640625 -4.25 1.84375 -5.046875 2.25 -5.765625 C 2.515625 -6.25 2.875 -6.8125 3.328125 -6.8125 C 3.8125 -6.8125 3.875 -6.171875 3.875 -5.609375 C 3.875 -5.109375 3.796875 -4.609375 3.5625 -3.625 Z M 3.46875 -3.296875 C 3.359375 -2.84375 3.15625 -2 2.765625 -1.28125 C 2.421875 -0.59375 2.046875 -0.109375 1.609375 -0.109375 C 1.28125 -0.109375 1.078125 -0.40625 1.078125 -1.328125 C 1.078125 -1.75 1.140625 -2.328125 1.390625 -3.296875 Z M 3.46875 -3.296875 "
           id="path7828" />
      </symbol>
      <symbol
         overflow="visible"
         id="symbol3551">
        <path
           style="stroke:none;"
           d=""
           id="path9201" />
      </symbol>
      <symbol
         overflow="visible"
         id="symbol6307">
        <path
           style="stroke:none;"
           d="M 3.65625 -2 C 3.78125 -2.0625 3.78125 -2.09375 3.78125 -2.125 C 3.78125 -2.1875 3.71875 -2.21875 3.6875 -2.21875 C 3.65625 -2.21875 2.5 -2 2.3125 -1.953125 L 2.140625 -3.234375 C 2.125 -3.34375 2.125 -3.421875 2.03125 -3.421875 C 1.96875 -3.421875 1.9375 -3.359375 1.921875 -3.25 L 1.765625 -1.953125 L 0.484375 -2.203125 C 0.40625 -2.21875 0.390625 -2.21875 0.390625 -2.21875 C 0.34375 -2.21875 0.28125 -2.1875 0.28125 -2.125 C 0.28125 -2.09375 0.296875 -2.078125 0.328125 -2.046875 C 0.34375 -2.03125 1.453125 -1.515625 1.609375 -1.453125 L 0.96875 -0.296875 C 0.921875 -0.203125 0.921875 -0.1875 0.921875 -0.1875 C 0.921875 -0.125 0.96875 -0.078125 1.015625 -0.078125 C 1.078125 -0.078125 1.21875 -0.25 1.484375 -0.5625 C 1.671875 -0.75 1.859375 -0.9375 2.03125 -1.125 C 2.375 -0.78125 2.875 -0.234375 2.953125 -0.15625 C 3.015625 -0.09375 3.015625 -0.078125 3.0625 -0.078125 C 3.109375 -0.078125 3.15625 -0.125 3.15625 -0.1875 C 3.15625 -0.203125 3.0625 -0.359375 3.015625 -0.453125 L 2.46875 -1.4375 Z M 3.65625 -2 "
           id="path2212" />
      </symbol>
      <symbol
         overflow="visible"
         id="symbol7775">
        <path
           style="stroke:none;"
           d="M 2.265625 -4.359375 C 2.265625 -4.46875 2.171875 -4.625 1.984375 -4.625 C 1.796875 -4.625 1.59375 -4.4375 1.59375 -4.234375 C 1.59375 -4.125 1.671875 -3.96875 1.875 -3.96875 C 2.0625 -3.96875 2.265625 -4.171875 2.265625 -4.359375 Z M 0.84375 -0.8125 C 0.8125 -0.71875 0.78125 -0.640625 0.78125 -0.515625 C 0.78125 -0.1875 1.046875 0.0625 1.4375 0.0625 C 2.125 0.0625 2.4375 -0.890625 2.4375 -1 C 2.4375 -1.09375 2.34375 -1.09375 2.328125 -1.09375 C 2.234375 -1.09375 2.21875 -1.046875 2.1875 -0.96875 C 2.03125 -0.40625 1.734375 -0.125 1.453125 -0.125 C 1.3125 -0.125 1.28125 -0.21875 1.28125 -0.375 C 1.28125 -0.53125 1.328125 -0.65625 1.390625 -0.8125 C 1.46875 -1 1.546875 -1.1875 1.609375 -1.375 C 1.671875 -1.546875 1.9375 -2.171875 1.953125 -2.265625 C 1.984375 -2.328125 2 -2.40625 2 -2.484375 C 2 -2.8125 1.71875 -3.078125 1.34375 -3.078125 C 0.640625 -3.078125 0.328125 -2.125 0.328125 -2 C 0.328125 -1.921875 0.421875 -1.921875 0.453125 -1.921875 C 0.546875 -1.921875 0.546875 -1.953125 0.578125 -2.03125 C 0.75 -2.625 1.0625 -2.875 1.3125 -2.875 C 1.421875 -2.875 1.484375 -2.828125 1.484375 -2.640625 C 1.484375 -2.46875 1.453125 -2.375 1.28125 -1.9375 Z M 0.84375 -0.8125 "
           id="path2702" />
      </symbol>
    </g>
  </defs>
  <g
     inkscape:label="Layer 1"
     inkscape:groupmode="layer"
     id="layer1"
     transform="translate(-49.3015, -60.7331)">
    <circle
       style="fill:#000000;fill-opacity:1;stroke-width:2"
       id="path874-3"
       cx="112.5316"
       cy="122.62701"
       r="4.2737002" />
    <circle
       style="fill:#000000;fill-opacity:1;stroke-width:2"
       id="path874-9"
       cx="53.575241"
       cy="105.51017"
       r="4.2737002" />
    <circle
       style="fill:#000000;fill-opacity:1;stroke-width:2"
       id="path874-1"
       cx="90.17659"
       cy="65.006805"
       r="4.2737002" />
    <circle
       style="fill:#ff0000;fill-opacity:1;stroke-width:2"
       id="path874-7-5"
       cx="85.521301"
       cy="95.855247"
       r="4.2737002" />
    <path
       style="fill:#1f38c5;stroke:#1f38c5;stroke-width:1;stroke-linecap:butt;stroke-linejoin:miter;stroke-miterlimit:4;stroke-dasharray:none;stroke-opacity:1;marker-end:url(#Arrow1Mend-986863582);fill-opacity:1"
       d="M 85.60174,95.891688 99.470337,110.03924"
       id="path9498-6"
       sodipodi:nodetypes="cc" />
    <g
       inkscape:label=""
       transform="translate(17.925371,4.2105854)"
       id="g2022"
       style="fill:#ff0000;fill-opacity:1">
      <g
         id="g9312"
         style="fill:#ff0000;fill-opacity:1">
        <g
           style="fill:#ff0000;fill-opacity:1"
           id="g935">
          <use
             xlink:href="#symbol288"
             x="91.925003"
             y="81.962997"
             id="use8885"
             style="fill:#ff0000;fill-opacity:1"
             width="100%"
             height="100%" />
        </g>
      </g>
    </g>
    <g
       inkscape:label=""
       transform="translate(7.41277,23.668376)"
       id="g2301"
       style="fill:#1f38c5;fill-opacity:1">
      <g
         id="g9030"
         style="fill:#1f38c5;fill-opacity:1">
        <g
           style="fill:#1f38c5;fill-opacity:1"
           id="g5753">
          <use
             xlink:href="#symbol3931"
             x="91.925003"
             y="81.962997"
             id="use9857"
             width="100%"
             height="100%"
             style="fill:#1f38c5;fill-opacity:1" />
        </g>
        <g
           style="fill:#1f38c5;fill-opacity:1"
           id="g2417">
          <use
             xlink:href="#symbol7649"
             x="100.227"
             y="83.457001"
             id="use225"
             width="100%"
             height="100%"
             style="fill:#1f38c5;fill-opacity:1" />
        </g>
        <g
           style="fill:#1f38c5;fill-opacity:1"
           id="g186">
          <use
             xlink:href="#symbol1244"
             x="104.735"
             y="81.962997"
             id="use2949"
             width="100%"
             height="100%"
             style="fill:#1f38c5;fill-opacity:1" />
        </g>
        <g
           style="fill:#1f38c5;fill-opacity:1"
           id="g2386">
          <use
             xlink:href="#symbol7089"
             x="111.606"
             y="83.457001"
             id="use5231"
             width="100%"
             height="100%"
             style="fill:#1f38c5;fill-opacity:1" />
        </g>
      </g>
    </g>
    <text
       xml:space="preserve"
       style="font-size:7.05556px;line-height:1.25;font-family:'Noto Sans CJK JP';-inkscape-font-specification:'Noto Sans CJK JP';stroke-width:0.264583"
       x="59.678127"
       y="84.841019"
       id="text4400"><tspan
         sodipodi:role="line"
         id="tspan4398"
         style="fill:#ff0000;fill-opacity:1;stroke-width:0.264583"
         x="59.678127"
         y="84.841019">共通パラメータ</tspan></text>
    <g
       id="g1740"
       transform="matrix(0.26458333,0,0,0.26458333,27.275162,50.088815)"
       style="fill:#000000;fill-opacity:1" />
    <g
       inkscape:label=""
       transform="translate(6.9566426,42.412204)"
       id="g1127">
      <g
         id="g4551">
        <g
           style="fill:#000000;fill-opacity:1"
           id="g735">
          <use
             xlink:href="#symbol711"
             x="91.925003"
             y="81.962997"
             id="use8082"
             width="100%"
             height="100%" />
        </g>
        <g
           style="fill:#000000;fill-opacity:1"
           id="g7529">
          <use
             xlink:href="#symbol6307"
             x="96.878998"
             y="77.848999"
             id="use9620"
             width="100%"
             height="100%" />
        </g>
        <g
           style="fill:#000000;fill-opacity:1"
           id="g6437">
          <use
             xlink:href="#symbol7775"
             x="96.601997"
             y="84.426003"
             id="use6459"
             width="100%"
             height="100%" />
        </g>
      </g>
    </g>
    <text
       xml:space="preserve"
       style="font-size:7.05556px;line-height:1.25;font-family:'Noto Sans CJK JP';-inkscape-font-specification:'Noto Sans CJK JP';stroke-width:0.264583"
       x="48.955818"
       y="124.55113"
       id="text2767"><tspan
         sodipodi:role="line"
         id="tspan2765"
         style="stroke-width:0.264583"
         x="48.955818"
         y="124.55113">最適パラメータ</tspan></text>
  </g>
</svg>
